#VRML V2.0 utf8
DEF TXFM_1 Transform {
  center 0 0 0
  rotation 0 0 1 0
  scale 1 1 1
  scaleOrientation 0 0 1 0
  translation 0 0 0
 children [
DEF TXFM_2 Transform {
  center 0 0 0
  rotation 0 0 1 0
  scale 1 1 1
  scaleOrientation 0 0 1 0
  translation 0 0 0
 children [
DEF TXFM_3 Transform {
  center 0 0 0
  rotation 0 0 1 0
  scale 1 1 1
  scaleOrientation 0 0 1 0
  translation 0 0 0
 children [
DEF SHAPE_1 Shape {
 appearance DEF APP_1 Appearance {
  material Material {
   ambientIntensity 0.11283861
   diffuseColor 0.89499998 0.89099997 0.81300002
   emissiveColor 0 0 0
   shininess 0.1
   specularColor 0.12 0.12 0.12
   transparency 0
} }
 geometry DEF FACE_1 IndexedFaceSet {
  coord DEF COORD_1 Coordinate { point [
  1.6909449 0 2.2480315,1.6909449 -0.26595185 2.2130183,
  1.6909449 -0.51377953 2.1103647,1.6909449 -0.72659398 1.9470664,
  1.6909449 -0.88989225 1.734252,1.6909449 -0.99254583 1.4864243,
  1.6909449 -1.0275591 1.2204724,1.6909449 -0.99254583 0.95452059,
  1.6909449 -0.88989225 0.70669291,1.6909449 -0.72659398 0.49387847,
  1.6909449 -0.51377953 0.3305802,1.6909449 -0.26595185 0.22792661,
  1.6909449 0 0.19291339,1.6909449 0.26595185 0.22792661,
  1.6909449 0.51377953 0.3305802,1.6909449 0.72659398 0.49387847,
  1.6909449 0.88989225 0.70669291,1.6909449 0.99254583 0.95452059,
  1.6909449 1.0275591 1.2204724,1.6909449 0.99254583 1.4864243,
  1.6909449 0.88989225 1.734252,1.6909449 0.72659398 1.9470664,
  1.6909449 0.51377953 2.1103647,1.6909449 0.26595185 2.2130183,
  1.6909449 0 2.2480315,2.6259843 0 2.2480315,
  2.6259843 0 2.2480315,2.6259843 -0.26595185 2.2130183,
  2.6259843 -0.51377953 2.1103647,2.6259843 -0.72659398 1.9470664,
  2.6259843 -0.88989225 1.734252,2.6259843 -0.99254583 1.4864243,
  2.6259843 -1.0275591 1.2204724,2.6259843 -0.99254583 0.95452059,
  2.6259843 -0.88989225 0.70669291,2.6259843 -0.72659398 0.49387847,
  2.6259843 -0.51377953 0.3305802,2.6259843 -0.26595185 0.22792661,
  2.6259843 0 0.19291339,2.6259843 0.26595185 0.22792661,
  2.6259843 0.51377953 0.3305802,2.6259843 0.72659398 0.49387847,
  2.6259843 0.88989225 0.70669291,2.6259843 0.99254583 0.95452059,
  2.6259843 1.0275591 1.2204724,2.6259843 0.99254583 1.4864243,
  2.6259843 0.88989225 1.734252,2.6259843 0.72659398 1.9470664,
  2.6259843 0.51377953 2.1103647,2.6259843 0.26595185 2.2130183] }
 coordIndex [
  27,0,1,-1,27,26,0,-1,28,1,2,-1,28,27,1,-1,29,2,3,-1,29,28,2,-1,30,3,4,-1,30,29,3,-1,
  31,4,5,-1,31,30,4,-1,32,5,6,-1,32,31,5,-1,33,6,7,-1,33,32,6,-1,34,7,8,-1,34,33,7,-1,
  35,8,9,-1,35,34,8,-1,36,9,10,-1,36,35,9,-1,37,10,11,-1,37,36,10,-1,38,37,11,-1,38,11,12,-1,
  39,38,12,-1,39,12,13,-1,40,39,13,-1,40,13,14,-1,41,14,15,-1,41,40,14,-1,42,15,16,-1,42,41,15,-1,
  43,16,17,-1,43,42,16,-1,44,17,18,-1,44,18,19,-1,44,43,17,-1,45,44,19,-1,46,19,20,-1,46,45,19,-1,
  47,20,21,-1,47,21,22,-1,47,46,20,-1,48,47,22,-1,49,22,23,-1,49,48,22,-1,25,23,24,-1,25,49,23,-1]
  normalPerVertex TRUE
  normal DEF NORM_1 Normal { vector [
  0 -0.13052619 0.99144486,0 -0.30091828 0.95364993,
  0 -0.5374875 0.84327172,0 -0.73742784 0.67542593,
  0 -0.88711369 0.46155098,0 -0.9763442 0.21622209,
  0 -0.99903848 -0.04384197,0 -0.95364993 -0.30091828,
  0 -0.84327172 -0.5374875,0 -0.67542593 -0.73742784,
  0 -0.46155098 -0.88711369,0 -0.21622209 -0.9763442,
  0 0.04384197 -0.99903848,0 0.30091828 -0.95364993,
  0 0.5374875 -0.84327172,0 0.73742784 -0.67542593,
  0 0.88711369 -0.46155098,0 0.9763442 -0.21622209,
  0 1 0,0 0.96592583 0.25881905,
  0 0.84327172 0.5374875,0 0.70710678 0.70710678,
  0 0.5 0.8660254,0 0.21622209 0.9763442,
  0 0.13052619 0.99144486,0 0.13052619 0.99144486,
  0 -0.13052619 0.99144486,0 -0.21622209 0.9763442,
  0 -0.46155098 0.88711369,0 -0.67542593 0.73742784,
  0 -0.84327172 0.5374875,0 -0.95364993 0.30091828,
  0 -0.99903848 0.04384197,0 -0.9763442 -0.21622209,
  0 -0.88711369 -0.46155098,0 -0.73742784 -0.67542593,
  0 -0.5374875 -0.84327172,0 -0.30091828 -0.95364993,
  0 -0.04384197 -0.99903848,0 0.21622209 -0.9763442,
  0 0.46155098 -0.88711369,0 0.67542593 -0.73742784,
  0 0.84327172 -0.5374875,0 0.95364993 -0.30091828,
  0 1 0,0 0.96592583 0.25881905,
  0 0.88711369 0.46155098,0 0.70710678 0.70710678,
  0 0.5 0.8660254,0 0.30091828 0.95364993] }
}
}
DEF SHAPE_2 Shape {
 appearance USE APP_1
 geometry DEF FACE_2 IndexedFaceSet {
  coord DEF COORD_2 Coordinate { point [
  1.6909449 0 2.2480315,1.6909449 -0.26595185 2.2130183,
  1.6909449 -0.51377953 2.1103647,1.6909449 -0.72659398 1.9470664,
  1.6909449 -0.88989225 1.734252,1.6909449 -0.99254583 1.4864243,
  1.6909449 -1.0275591 1.2204724,1.6909449 -0.99254583 0.95452059,
  1.6909449 -0.88989225 0.70669291,1.6909449 -0.72659398 0.49387847,
  1.6909449 -0.51377953 0.3305802,1.6909449 -0.26595185 0.22792661,
  1.6909449 0 0.19291339,1.6909449 0.26595185 0.22792661,
  1.6909449 0.51377953 0.3305802,1.6909449 0.72659398 0.49387847,
  1.6909449 0.88989225 0.70669291,1.6909449 0.99254583 0.95452059,
  1.6909449 1.0275591 1.2204724,1.6909449 0.99254583 1.4864243,
  1.6909449 0.88989225 1.734252,1.6909449 0.72659398 1.9470664,
  1.6909449 0.51377953 2.1103647,1.6909449 0.26595185 2.2130183,
  1.6909449 0 2.2440945,1.6909449 -0.26493288 2.2092154,
  1.6909449 -0.51181102 2.1069551,1.6909449 -0.72381009 1.9442825,
  1.6909449 -0.8864827 1.7322835,1.6909449 -0.98874297 1.4854053,
  1.6909449 -1.023622 1.2204724,1.6909449 -0.98874297 0.95553956,
  1.6909449 -0.8864827 0.70866142,1.6909449 -0.72381009 0.49666235,
  1.6909449 -0.51181102 0.33398974,1.6909449 -0.26493288 0.23172947,
  1.6909449 0 0.19685039,1.6909449 0.26493288 0.23172947,
  1.6909449 0.51181102 0.33398974,1.6909449 0.72381009 0.49666235,
  1.6909449 0.8864827 0.70866142,1.6909449 0.98874297 0.95553956,
  1.6909449 1.023622 1.2204724,1.6909449 0.98874297 1.4854053,
  1.6909449 0.8864827 1.7322835,1.6909449 0.72381009 1.9442825,
  1.6909449 0.51181102 2.1069551,1.6909449 0.26493288 2.2092154] }
 coordIndex [
  38,15,14,-1,38,39,15,-1,40,16,15,-1,40,15,39,-1,37,14,13,-1,37,38,14,-1,41,17,16,-1,41,16,40,-1,
  36,13,12,-1,36,37,13,-1,42,18,17,-1,42,17,41,-1,43,19,18,-1,43,18,42,-1,35,12,11,-1,35,36,12,-1,
  20,19,43,-1,44,20,43,-1,34,11,10,-1,34,35,11,-1,21,44,45,-1,21,20,44,-1,9,33,34,-1,9,34,10,-1,
  22,45,46,-1,22,21,45,-1,8,33,9,-1,8,32,33,-1,47,22,46,-1,31,32,8,-1,23,22,47,-1,7,31,8,-1,
  0,23,47,-1,0,47,24,-1,6,31,7,-1,6,30,31,-1,29,30,6,-1,1,24,25,-1,1,0,24,-1,5,29,6,-1,
  28,29,5,-1,4,28,5,-1,2,25,26,-1,2,1,25,-1,3,28,4,-1,3,26,27,-1,3,27,28,-1,3,2,26,-1]
  normalPerVertex TRUE
  normal DEF NORM_2 Normal { vector [
  -1 0 0,-1 0 0,
  -1 0 0,-1 0 0,
  -1 0 0,-1 0 0,
  -1 0 0,-1 0 0,
  -1 0 0,-1 0 0,
  -1 0 0,-1 0 0,
  -1 0 0,-1 0 0,
  -1 0 0,-1 0 0,
  -1 0 0,-1 0 0,
  -1 0 0,-1 0 0,
  -1 0 0,-1 0 0,
  -1 0 0,-1 0 0,
  -1 0 0,-1 0 0,
  -1 0 0,-1 0 0,
  -1 0 0,-1 0 0,
  -1 0 0,-1 0 0,
  -1 0 0,-1 0 0,
  -1 0 0,-1 0 0,
  -1 0 0,-1 0 0,
  -1 0 0,-1 0 0,
  -1 0 0,-1 0 0,
  -1 0 0,-1 0 0,
  -1 0 0,-1 0 0,
  -1 0 0,-1 0 0] }
}
}
DEF SHAPE_3 Shape {
 appearance USE APP_1
 geometry DEF FACE_3 IndexedFaceSet {
  coord DEF COORD_3 Coordinate { point [
  2.6259843 0 2.2480315,2.6259843 -0.26595185 2.2130183,
  2.6259843 -0.51377953 2.1103647,2.6259843 -0.72659398 1.9470664,
  2.6259843 -0.88989225 1.734252,2.6259843 -0.99254583 1.4864243,
  2.6259843 -1.0275591 1.2204724,2.6259843 -0.99254583 0.95452059,
  2.6259843 -0.88989225 0.70669291,2.6259843 -0.72659398 0.49387847,
  2.6259843 -0.51377953 0.3305802,2.6259843 -0.26595185 0.22792661,
  2.6259843 0 0.19291339,2.6259843 0.26595185 0.22792661,
  2.6259843 0.51377953 0.3305802,2.6259843 0.72659398 0.49387847,
  2.6259843 0.88989225 0.70669291,2.6259843 0.99254583 0.95452059,
  2.6259843 1.0275591 1.2204724,2.6259843 0.99254583 1.4864243,
  2.6259843 0.88989225 1.734252,2.6259843 0.72659398 1.9470664,
  2.6259843 0.51377953 2.1103647,2.6259843 0.26595185 2.2130183,
  2.6259843 0 2.2440945,2.6259843 -0.26493288 2.2092154,
  2.6259843 -0.51181102 2.1069551,2.6259843 -0.72381009 1.9442825,
  2.6259843 -0.8864827 1.7322835,2.6259843 -0.98874297 1.4854053,
  2.6259843 -1.023622 1.2204724,2.6259843 -0.98874297 0.95553956,
  2.6259843 -0.8864827 0.70866142,2.6259843 -0.72381009 0.49666235,
  2.6259843 -0.51181102 0.33398974,2.6259843 -0.26493288 0.23172947,
  2.6259843 0 0.19685039,2.6259843 0.26493288 0.23172947,
  2.6259843 0.51181102 0.33398974,2.6259843 0.72381009 0.49666235,
  2.6259843 0.8864827 0.70866142,2.6259843 0.98874297 0.95553956,
  2.6259843 1.023622 1.2204724,2.6259843 0.98874297 1.4854053,
  2.6259843 0.8864827 1.7322835,2.6259843 0.72381009 1.9442825,
  2.6259843 0.51181102 2.1069551,2.6259843 0.26493288 2.2092154] }
 coordIndex [
  38,14,15,-1,38,15,39,-1,40,15,16,-1,40,39,15,-1,37,13,14,-1,37,14,38,-1,41,16,17,-1,41,40,16,-1,
  36,12,13,-1,36,13,37,-1,42,17,18,-1,42,41,17,-1,43,18,19,-1,43,42,18,-1,35,11,12,-1,35,12,36,-1,
  20,43,19,-1,44,43,20,-1,34,10,11,-1,34,11,35,-1,21,45,44,-1,21,44,20,-1,9,34,33,-1,9,10,34,-1,
  22,46,45,-1,22,45,21,-1,8,9,33,-1,8,33,32,-1,47,46,22,-1,31,8,32,-1,23,47,22,-1,7,8,31,-1,
  0,47,23,-1,0,24,47,-1,6,7,31,-1,6,31,30,-1,29,6,30,-1,1,25,24,-1,1,24,0,-1,5,6,29,-1,
  28,5,29,-1,4,5,28,-1,2,26,25,-1,2,25,1,-1,3,4,28,-1,3,27,26,-1,3,28,27,-1,3,26,2,-1]
  normalPerVertex TRUE
  normal DEF NORM_3 Normal { vector [
  1 0 0,1 0 0,
  1 0 0,1 0 0,
  1 0 0,1 0 0,
  1 0 0,1 0 0,
  1 0 0,1 0 0,
  1 0 0,1 0 0,
  1 0 0,1 0 0,
  1 0 0,1 0 0,
  1 0 0,1 0 0,
  1 0 0,1 0 0,
  1 0 0,1 0 0,
  1 0 0,1 0 0,
  1 0 0,1 0 0,
  1 0 0,1 0 0,
  1 0 0,1 0 0,
  1 0 0,1 0 0,
  1 0 0,1 0 0,
  1 0 0,1 0 0,
  1 0 0,1 0 0,
  1 0 0,1 0 0,
  1 0 0,1 0 0,
  1 0 0,1 0 0,
  1 0 0,1 0 0,
  1 0 0,1 0 0] }
}
}
DEF SHAPE_4 Shape {
 appearance DEF APP_2 Appearance {
  material Material {
   ambientIntensity 0.686634
   diffuseColor 0.148 0.145 0.145
   emissiveColor 0 0 0
   shininess 0.1
   specularColor 0.12 0.12 0.12
   transparency 0
} }
 geometry DEF FACE_4 IndexedFaceSet {
  coord DEF COORD_4 Coordinate { point [
  1.1299213 0 2.2440945,1.6909449 0 2.2440945,
  1.1299213 -0.26493288 2.2092154,1.1299213 -0.51181102 2.1069551,
  1.1299213 -0.72381009 1.9442825,1.1299213 -0.8864827 1.7322835,
  1.1299213 -0.98874297 1.4854053,1.1299213 -1.023622 1.2204724,
  1.1299213 -0.98874297 0.95553956,1.1299213 -0.8864827 0.70866142,
  1.1299213 -0.72381009 0.49666235,1.1299213 -0.51181102 0.33398974,
  1.1299213 -0.26493288 0.23172947,1.1299213 0 0.19685039,
  1.1299213 0.26493288 0.23172947,1.1299213 0.51181102 0.33398974,
  1.1299213 0.72381009 0.49666235,1.1299213 0.8864827 0.70866142,
  1.1299213 0.98874297 0.95553956,1.1299213 1.023622 1.2204724,
  1.1299213 0.98874297 1.4854053,1.1299213 0.8864827 1.7322835,
  1.1299213 0.72381009 1.9442825,1.1299213 0.51181102 2.1069551,
  1.1299213 0.26493288 2.2092154,1.1299213 0 2.2440945,
  1.6909449 0 2.2440945,1.6909449 -0.26493288 2.2092154,
  1.6909449 -0.51181102 2.1069551,1.6909449 -0.72381009 1.9442825,
  1.6909449 -0.8864827 1.7322835,1.6909449 -0.98874297 1.4854053,
  1.6909449 -1.023622 1.2204724,1.6909449 -0.98874297 0.95553956,
  1.6909449 -0.8864827 0.70866142,1.6909449 -0.72381009 0.49666235,
  1.6909449 -0.51181102 0.33398974,1.6909449 -0.26493288 0.23172947,
  1.6909449 0 0.19685039,1.6909449 0.26493288 0.23172947,
  1.6909449 0.51181102 0.33398974,1.6909449 0.72381009 0.49666235,
  1.6909449 0.8864827 0.70866142,1.6909449 0.98874297 0.95553956,
  1.6909449 1.023622 1.2204724,1.6909449 0.98874297 1.4854053,
  1.6909449 0.8864827 1.7322835,1.6909449 0.72381009 1.9442825,
  1.6909449 0.51181102 2.1069551,1.6909449 0.26493288 2.2092154] }
 coordIndex [
  27,1,0,-1,27,0,2,-1,28,2,3,-1,28,27,2,-1,29,3,4,-1,29,28,3,-1,30,4,5,-1,30,29,4,-1,
  31,5,6,-1,31,30,5,-1,32,6,7,-1,32,31,6,-1,33,7,8,-1,33,32,7,-1,34,8,9,-1,34,33,8,-1,
  35,9,10,-1,35,34,9,-1,36,10,11,-1,36,35,10,-1,37,11,12,-1,37,12,13,-1,37,36,11,-1,38,37,13,-1,
  39,38,13,-1,39,13,14,-1,40,39,14,-1,40,14,15,-1,40,15,16,-1,41,16,17,-1,41,40,16,-1,42,41,17,-1,
  43,17,18,-1,43,18,19,-1,43,42,17,-1,44,43,19,-1,45,44,19,-1,45,19,20,-1,45,20,21,-1,46,21,22,-1,
  46,45,21,-1,47,46,22,-1,48,22,23,-1,48,23,24,-1,48,47,22,-1,49,24,25,-1,49,48,24,-1,26,49,25,-1]
  normalPerVertex TRUE
  normal DEF NORM_4 Normal { vector [
  0 -0.13052619 0.99144486,0 -0.13052619 0.99144486,
  0 -0.30091828 0.95364993,0 -0.5374875 0.84327172,
  0 -0.73742784 0.67542593,0 -0.88711369 0.46155098,
  0 -0.9763442 0.21622209,0 -0.99903848 -0.04384197,
  0 -0.95364993 -0.30091828,0 -0.84327172 -0.5374875,
  0 -0.67542593 -0.73742784,0 -0.46155098 -0.88711369,
  0 -0.25881905 -0.96592583,0 0 -1,
  0 0.30091828 -0.95364993,0 0.5 -0.8660254,
  0 0.67542593 -0.73742784,0 0.8660254 -0.5,
  0 0.96592583 -0.25881905,0 1 0,
  0 0.96592583 0.25881905,0 0.88711369 0.46155098,
  0 0.70710678 0.70710678,0 0.5 0.8660254,
  0 0.30091828 0.95364993,0 0.13052619 0.99144486,
  0 0.13052619 0.99144486,0 -0.21622209 0.9763442,
  0 -0.46155098 0.88711369,0 -0.67542593 0.73742784,
  0 -0.84327172 0.5374875,0 -0.95364993 0.30091828,
  0 -0.99903848 0.04384197,0 -0.9763442 -0.21622209,
  0 -0.88711369 -0.46155098,0 -0.73742784 -0.67542593,
  0 -0.5374875 -0.84327172,0 -0.25881905 -0.96592583,
  0 0 -1,0 0.21622209 -0.9763442,
  0 0.5 -0.8660254,0 0.73742784 -0.67542593,
  0 0.8660254 -0.5,0 0.96592583 -0.25881905,
  0 1 0,0 0.96592583 0.25881905,
  0 0.84327172 0.5374875,0 0.70710678 0.70710678,
  0 0.5 0.8660254,0 0.21622209 0.9763442] }
}
}
DEF SHAPE_5 Shape {
 appearance USE APP_2
 geometry DEF FACE_5 IndexedFaceSet {
  coord DEF COORD_5 Coordinate { point [
  2.6259843 0 2.2440945,2.6259843 -0.26493288 2.2092154,
  2.6259843 -0.51181102 2.1069551,2.6259843 -0.72381009 1.9442825,
  2.6259843 -0.8864827 1.7322835,2.6259843 -0.98874297 1.4854053,
  2.6259843 -1.023622 1.2204724,2.6259843 -0.98874297 0.95553956,
  2.6259843 -0.8864827 0.70866142,2.6259843 -0.72381009 0.49666235,
  2.6259843 -0.51181102 0.33398974,2.6259843 -0.26493288 0.23172947,
  2.6259843 0 0.19685039,2.6259843 0.26493288 0.23172947,
  2.6259843 0.51181102 0.33398974,2.6259843 0.72381009 0.49666235,
  2.6259843 0.8864827 0.70866142,2.6259843 0.98874297 0.95553956,
  2.6259843 1.023622 1.2204724,2.6259843 0.98874297 1.4854053,
  2.6259843 0.8864827 1.7322835,2.6259843 0.72381009 1.9442825,
  2.6259843 0.51181102 2.1069551,2.6259843 0.26493288 2.2092154,
  2.6259843 0 2.2440945,4.8700787 0 2.2440945,
  4.8700787 0 2.2440945,4.8700787 -0.26493288 2.2092154,
  4.8700787 -0.51181102 2.1069551,4.8700787 -0.72381009 1.9442825,
  4.8700787 -0.8864827 1.7322835,4.8700787 -0.98874297 1.4854053,
  4.8700787 -1.023622 1.2204724,4.8700787 -0.98874297 0.95553956,
  4.8700787 -0.8864827 0.70866142,4.8700787 -0.72381009 0.49666235,
  4.8700787 -0.51181102 0.33398974,4.8700787 -0.26493288 0.23172947,
  4.8700787 0 0.19685039,4.8700787 0.26493288 0.23172947,
  4.8700787 0.51181102 0.33398974,4.8700787 0.72381009 0.49666235,
  4.8700787 0.8864827 0.70866142,4.8700787 0.98874297 0.95553956,
  4.8700787 1.023622 1.2204724,4.8700787 0.98874297 1.4854053,
  4.8700787 0.8864827 1.7322835,4.8700787 0.72381009 1.9442825,
  4.8700787 0.51181102 2.1069551,4.8700787 0.26493288 2.2092154] }
 coordIndex [
  27,0,1,-1,27,26,0,-1,28,1,2,-1,28,2,3,-1,28,27,1,-1,29,28,3,-1,30,3,4,-1,30,29,3,-1,
  31,4,5,-1,31,30,4,-1,32,5,6,-1,32,31,5,-1,33,6,7,-1,33,32,6,-1,34,7,8,-1,34,33,7,-1,
  35,8,9,-1,35,34,8,-1,36,9,10,-1,36,35,9,-1,37,10,11,-1,37,11,12,-1,37,36,10,-1,38,37,12,-1,
  39,38,12,-1,39,12,13,-1,40,39,13,-1,40,13,14,-1,41,40,14,-1,41,14,15,-1,42,15,16,-1,42,41,15,-1,
  43,16,17,-1,43,42,16,-1,43,17,18,-1,44,18,19,-1,44,43,18,-1,45,19,20,-1,45,44,19,-1,46,45,20,-1,
  47,20,21,-1,47,46,20,-1,48,21,22,-1,48,22,23,-1,48,47,21,-1,49,48,23,-1,25,23,24,-1,25,49,23,-1]
  normalPerVertex TRUE
  normal DEF NORM_5 Normal { vector [
  0 -0.13052619 0.99144486,0 -0.30091828 0.95364993,
  0 -0.5 0.8660254,0 -0.70710678 0.70710678,
  0 -0.88711369 0.46155098,0 -0.9763442 0.21622209,
  0 -0.99903848 -0.04384197,0 -0.95364993 -0.30091828,
  0 -0.84327172 -0.5374875,0 -0.67542593 -0.73742784,
  0 -0.46155098 -0.88711369,0 -0.25881905 -0.96592583,
  0 0 -1,0 0.30091828 -0.95364993,
  0 0.5374875 -0.84327172,0 0.73742784 -0.67542593,
  0 0.88711369 -0.46155098,0 0.96592583 -0.25881905,
  0 0.99903848 -0.04384197,0 0.9763442 0.21622209,
  0 0.8660254 0.5,0 0.67542593 0.73742784,
  0 0.5 0.8660254,0 0.25881905 0.96592583,
  0 0.13052619 0.99144486,0 0.13052619 0.99144486,
  0 -0.13052619 0.99144486,0 -0.21622209 0.9763442,
  0 -0.5 0.8660254,0 -0.70710678 0.70710678,
  0 -0.84327172 0.5374875,0 -0.95364993 0.30091828,
  0 -0.99903848 0.04384197,0 -0.9763442 -0.21622209,
  0 -0.88711369 -0.46155098,0 -0.73742784 -0.67542593,
  0 -0.5374875 -0.84327172,0 -0.25881905 -0.96592583,
  0 0 -1,0 0.21622209 -0.9763442,
  0 0.46155098 -0.88711369,0 0.67542593 -0.73742784,
  0 0.84327172 -0.5374875,0 0.96592583 -0.25881905,
  0 0.99903848 0.04384197,0 0.95364993 0.30091828,
  0 0.8660254 0.5,0 0.73742784 0.67542593,
  0 0.5 0.8660254,0 0.25881905 0.96592583] }
}
}
DEF SHAPE_6 Shape {
 appearance USE APP_2
 geometry DEF FACE_6 IndexedFaceSet {
  coord DEF COORD_6 Coordinate { point [
  1.1299213 0 2.2440945,1.1299213 -0.26493288 2.2092154,
  1.1299213 -0.51181102 2.1069551,1.1299213 -0.72381009 1.9442825,
  1.1299213 -0.8864827 1.7322835,1.1299213 -0.98874297 1.4854053,
  1.1299213 -1.023622 1.2204724,1.1299213 -0.98874297 0.95553956,
  1.1299213 -0.8864827 0.70866142,1.1299213 -0.72381009 0.49666235,
  1.1299213 -0.51181102 0.33398974,1.1299213 -0.26493288 0.23172947,
  1.1299213 0 0.19685039,1.1299213 0.26493288 0.23172947,
  1.1299213 0.51181102 0.33398974,1.1299213 0.72381009 0.49666235,
  1.1299213 0.8864827 0.70866142,1.1299213 0.98874297 0.95553956,
  1.1299213 1.023622 1.2204724,1.1299213 0.98874297 1.4854053,
  1.1299213 0.8864827 1.7322835,1.1299213 0.72381009 1.9442825,
  1.1299213 0.51181102 2.1069551,1.1299213 0.26493288 2.2092154,
  1.1299213 0 0.96456693,1.1299213 0.06623322 0.9732867,
  1.1299213 0.12795276 0.99885177,1.1299213 0.18095252 1.0395199,
  1.1299213 0.22162067 1.0925197,1.1299213 0.24718574 1.1542392,
  1.1299213 0.25590551 1.2204724,1.1299213 0.24718574 1.2867057,
  1.1299213 0.22162067 1.3484252,1.1299213 0.18095252 1.401425,
  1.1299213 0.12795276 1.4420931,1.1299213 0.06623322 1.4676582,
  1.1299213 0 1.476378,1.1299213 -0.06623322 1.4676582,
  1.1299213 -0.12795276 1.4420931,1.1299213 -0.18095252 1.401425,
  1.1299213 -0.22162067 1.3484252,1.1299213 -0.24718574 1.2867057,
  1.1299213 -0.25590551 1.2204724,1.1299213 -0.24718574 1.1542392,
  1.1299213 -0.22162067 1.0925197,1.1299213 -0.18095252 1.0395199,
  1.1299213 -0.12795276 0.99885177,1.1299213 -0.06623322 0.9732867] }
 coordIndex [
  26,15,14,-1,26,27,15,-1,28,16,15,-1,28,15,27,-1,25,14,13,-1,25,26,14,-1,29,17,16,-1,29,16,28,-1,
  24,13,12,-1,24,25,13,-1,30,18,17,-1,30,17,29,-1,31,19,18,-1,31,18,30,-1,47,12,11,-1,47,24,12,-1,
  32,20,19,-1,32,19,31,-1,46,11,10,-1,46,47,11,-1,45,46,10,-1,9,45,10,-1,33,21,20,-1,33,20,32,-1,
  34,21,33,-1,22,21,34,-1,22,34,35,-1,8,45,9,-1,8,44,45,-1,23,22,35,-1,23,35,36,-1,7,44,8,-1,
  7,42,43,-1,7,43,44,-1,0,23,36,-1,0,36,37,-1,6,42,7,-1,6,41,42,-1,1,0,37,-1,5,41,6,-1,
  4,41,5,-1,4,39,40,-1,4,40,41,-1,2,1,37,-1,2,37,38,-1,3,39,4,-1,3,38,39,-1,3,2,38,-1]
  normalPerVertex TRUE
  normal DEF NORM_6 Normal { vector [
  -1 0 0,-1 0 0,
  -1 0 0,-1 0 0,
  -1 0 0,-1 0 0,
  -1 0 0,-1 0 0,
  -1 0 0,-1 0 0,
  -1 0 0,-1 0 0,
  -1 0 0,-1 0 0,
  -1 0 0,-1 0 0,
  -1 0 0,-1 0 0,
  -1 0 0,-1 0 0,
  -1 0 0,-1 0 0,
  -1 0 0,-1 0 0,
  -1 0 0,-1 0 0,
  -1 0 0,-1 0 0,
  -1 0 0,-1 0 0,
  -1 0 0,-1 0 0,
  -1 0 0,-1 0 0,
  -1 0 0,-1 0 0,
  -1 0 0,-1 0 0,
  -1 0 0,-1 0 0,
  -1 0 0,-1 0 0,
  -1 0 0,-1 0 0,
  -1 0 0,-1 0 0,
  -1 0 0,-1 0 0] }
}
}
DEF SHAPE_7 Shape {
 appearance USE APP_2
 geometry DEF FACE_7 IndexedFaceSet {
  coord DEF COORD_7 Coordinate { point [
  4.8700787 0 2.2440945,4.8700787 -0.26493288 2.2092154,
  4.8700787 -0.51181102 2.1069551,4.8700787 -0.72381009 1.9442825,
  4.8700787 -0.8864827 1.7322835,4.8700787 -0.98874297 1.4854053,
  4.8700787 -1.023622 1.2204724,4.8700787 -0.98874297 0.95553956,
  4.8700787 -0.8864827 0.70866142,4.8700787 -0.72381009 0.49666235,
  4.8700787 -0.51181102 0.33398974,4.8700787 -0.26493288 0.23172947,
  4.8700787 0 0.19685039,4.8700787 0.26493288 0.23172947,
  4.8700787 0.51181102 0.33398974,4.8700787 0.72381009 0.49666235,
  4.8700787 0.8864827 0.70866142,4.8700787 0.98874297 0.95553956,
  4.8700787 1.023622 1.2204724,4.8700787 0.98874297 1.4854053,
  4.8700787 0.8864827 1.7322835,4.8700787 0.72381009 1.9442825,
  4.8700787 0.51181102 2.1069551,4.8700787 0.26493288 2.2092154,
  4.8700787 0 0.96456693,4.8700787 0.06623322 0.9732867,
  4.8700787 0.12795276 0.99885177,4.8700787 0.18095252 1.0395199,
  4.8700787 0.22162067 1.0925197,4.8700787 0.24718574 1.1542392,
  4.8700787 0.25590551 1.2204724,4.8700787 0.24718574 1.2867057,
  4.8700787 0.22162067 1.3484252,4.8700787 0.18095252 1.401425,
  4.8700787 0.12795276 1.4420931,4.8700787 0.06623322 1.4676582,
  4.8700787 0 1.476378,4.8700787 -0.06623322 1.4676582,
  4.8700787 -0.12795276 1.4420931,4.8700787 -0.18095252 1.401425,
  4.8700787 -0.22162067 1.3484252,4.8700787 -0.24718574 1.2867057,
  4.8700787 -0.25590551 1.2204724,4.8700787 -0.24718574 1.1542392,
  4.8700787 -0.22162067 1.0925197,4.8700787 -0.18095252 1.0395199,
  4.8700787 -0.12795276 0.99885177,4.8700787 -0.06623322 0.9732867] }
 coordIndex [
  26,14,15,-1,26,15,27,-1,28,15,16,-1,28,27,15,-1,25,13,14,-1,25,14,26,-1,29,16,17,-1,29,28,16,-1,
  24,12,13,-1,24,13,25,-1,30,17,18,-1,30,29,17,-1,31,18,19,-1,31,30,18,-1,47,11,12,-1,47,12,24,-1,
  32,19,20,-1,32,31,19,-1,46,10,11,-1,46,11,47,-1,45,10,46,-1,9,10,45,-1,33,20,21,-1,33,32,20,-1,
  34,33,21,-1,22,34,21,-1,22,35,34,-1,8,9,45,-1,8,45,44,-1,23,35,22,-1,23,36,35,-1,7,8,44,-1,
  7,43,42,-1,7,44,43,-1,0,36,23,-1,0,37,36,-1,6,7,42,-1,6,42,41,-1,1,37,0,-1,5,6,41,-1,
  4,5,41,-1,4,40,39,-1,4,41,40,-1,2,37,1,-1,2,38,37,-1,3,4,39,-1,3,39,38,-1,3,38,2,-1]
  normalPerVertex TRUE
  normal DEF NORM_7 Normal { vector [
  1 0 0,1 0 0,
  1 0 0,1 0 0,
  1 0 0,1 0 0,
  1 0 0,1 0 0,
  1 0 0,1 0 0,
  1 0 0,1 0 0,
  1 0 0,1 0 0,
  1 0 0,1 0 0,
  1 0 0,1 0 0,
  1 0 0,1 0 0,
  1 0 0,1 0 0,
  1 0 0,1 0 0,
  1 0 0,1 0 0,
  1 0 0,1 0 0,
  1 0 0,1 0 0,
  1 0 0,1 0 0,
  1 0 0,1 0 0,
  1 0 0,1 0 0,
  1 0 0,1 0 0,
  1 0 0,1 0 0,
  1 0 0,1 0 0,
  1 0 0,1 0 0,
  1 0 0,1 0 0,
  1 0 0,1 0 0] }
}
}
DEF SHAPE_8 Shape {
 appearance DEF APP_3 Appearance {
  material Material {
   ambientIntensity 0.122244
   diffuseColor 0.824 0.81999999 0.78100002
   emissiveColor 0 0 0
   shininess 0.1
   specularColor 0.12 0.12 0.12
   transparency 0
} }
 geometry DEF FACE_8 IndexedFaceSet {
  coord DEF COORD_8 Coordinate { point [
  0.51181102 0 0.96456693,0.51181102 -0.06623322 0.9732867,
  0.51181102 -0.12795276 0.99885177,0.51181102 -0.18095252 1.0395199,
  0.51181102 -0.22162067 1.0925197,0.51181102 -0.24718574 1.1542392,
  0.51181102 -0.25590551 1.2204724,0.51181102 -0.24718574 1.2867057,
  0.51181102 -0.22162067 1.3484252,0.51181102 -0.18095252 1.401425,
  0.51181102 -0.12795276 1.4420931,0.51181102 -0.06623322 1.4676582,
  0.51181102 0 1.476378,0.51181102 0.06623322 1.4676582,
  0.51181102 0.12795276 1.4420931,0.51181102 0.18095252 1.401425,
  0.51181102 0.22162067 1.3484252,0.51181102 0.24718574 1.2867057,
  0.51181102 0.25590551 1.2204724,0.51181102 0.24718574 1.1542392,
  0.51181102 0.22162067 1.0925197,0.51181102 0.18095252 1.0395199,
  0.51181102 0.12795276 0.99885177,0.51181102 0.06623322 0.9732867,
  0.51181102 0 0.96456693,1.1299213 0 0.96456693,
  1.1299213 0 0.96456693,1.1299213 0.06623322 0.9732867,
  1.1299213 0.12795276 0.99885177,1.1299213 0.18095252 1.0395199,
  1.1299213 0.22162067 1.0925197,1.1299213 0.24718574 1.1542392,
  1.1299213 0.25590551 1.2204724,1.1299213 0.24718574 1.2867057,
  1.1299213 0.22162067 1.3484252,1.1299213 0.18095252 1.401425,
  1.1299213 0.12795276 1.4420931,1.1299213 0.06623322 1.4676582,
  1.1299213 0 1.476378,1.1299213 -0.06623322 1.4676582,
  1.1299213 -0.12795276 1.4420931,1.1299213 -0.18095252 1.401425,
  1.1299213 -0.22162067 1.3484252,1.1299213 -0.24718574 1.2867057,
  1.1299213 -0.25590551 1.2204724,1.1299213 -0.24718574 1.1542392,
  1.1299213 -0.22162067 1.0925197,1.1299213 -0.18095252 1.0395199,
  1.1299213 -0.12795276 0.99885177,1.1299213 -0.06623322 0.9732867] }
 coordIndex [
  27,24,23,-1,27,26,24,-1,28,23,22,-1,28,27,23,-1,29,22,21,-1,29,28,22,-1,30,21,20,-1,30,29,21,-1,
  31,20,19,-1,31,30,20,-1,32,19,18,-1,32,31,19,-1,33,18,17,-1,33,32,18,-1,34,17,16,-1,34,33,17,-1,
  35,16,15,-1,35,34,16,-1,36,15,14,-1,36,35,15,-1,37,14,13,-1,37,36,14,-1,38,37,13,-1,38,12,11,-1,
  38,13,12,-1,39,38,11,-1,40,39,11,-1,40,11,10,-1,41,9,8,-1,41,10,9,-1,41,40,10,-1,42,41,8,-1,
  43,8,7,-1,43,42,8,-1,44,7,6,-1,44,43,7,-1,45,5,4,-1,45,6,5,-1,45,44,6,-1,46,45,4,-1,
  47,4,3,-1,47,46,4,-1,48,3,2,-1,48,47,3,-1,49,2,1,-1,49,48,2,-1,25,1,0,-1,25,49,1,-1]
  normalPerVertex TRUE
  normal DEF NORM_8 Normal { vector [
  0 -0.13052619 -0.99144486,0 -0.21622209 -0.9763442,
  0 -0.46155098 -0.88711369,0 -0.67542593 -0.73742784,
  0 -0.8660254 -0.5,0 -0.96592583 -0.25881905,
  0 -0.99903848 -0.04384197,0 -0.9763442 0.21622209,
  0 -0.8660254 0.5,0 -0.70710678 0.70710678,
  0 -0.5374875 0.84327172,0 -0.25881905 0.96592583,
  0 0 1,0 0.21622209 0.9763442,
  0 0.46155098 0.88711369,0 0.67542593 0.73742784,
  0 0.84327172 0.5374875,0 0.95364993 0.30091828,
  0 0.99903848 0.04384197,0 0.9763442 -0.21622209,
  0 0.88711369 -0.46155098,0 0.73742784 -0.67542593,
  0 0.5374875 -0.84327172,0 0.30091828 -0.95364993,
  0 0.13052619 -0.99144486,0 -0.13052619 -0.99144486,
  0 0.13052619 -0.99144486,0 0.21622209 -0.9763442,
  0 0.46155098 -0.88711369,0 0.67542593 -0.73742784,
  0 0.84327172 -0.5374875,0 0.95364993 -0.30091828,
  0 0.99903848 -0.04384197,0 0.9763442 0.21622209,
  0 0.88711369 0.46155098,0 0.73742784 0.67542593,
  0 0.5374875 0.84327172,0 0.30091828 0.95364993,
  0 0 1,0 -0.25881905 0.96592583,
  0 -0.46155098 0.88711369,0 -0.70710678 0.70710678,
  0 -0.8660254 0.5,0 -0.95364993 0.30091828,
  0 -0.99903848 0.04384197,0 -0.96592583 -0.25881905,
  0 -0.8660254 -0.5,0 -0.73742784 -0.67542593,
  0 -0.5374875 -0.84327172,0 -0.30091828 -0.95364993] }
}
}
DEF SHAPE_9 Shape {
 appearance USE APP_3
 geometry DEF FACE_9 IndexedFaceSet {
  coord DEF COORD_9 Coordinate { point [
  4.8700787 0 0.96456693,4.8700787 0.06623322 0.9732867,
  4.8700787 0.12795276 0.99885177,4.8700787 0.18095252 1.0395199,
  4.8700787 0.22162067 1.0925197,4.8700787 0.24718574 1.1542392,
  4.8700787 0.25590551 1.2204724,4.8700787 0.24718574 1.2867057,
  4.8700787 0.22162067 1.3484252,4.8700787 0.18095252 1.401425,
  4.8700787 0.12795276 1.4420931,4.8700787 0.06623322 1.4676582,
  4.8700787 0 1.476378,4.8700787 -0.06623322 1.4676582,
  4.8700787 -0.12795276 1.4420931,4.8700787 -0.18095252 1.401425,
  4.8700787 -0.22162067 1.3484252,4.8700787 -0.24718574 1.2867057,
  4.8700787 -0.25590551 1.2204724,4.8700787 -0.24718574 1.1542392,
  4.8700787 -0.22162067 1.0925197,4.8700787 -0.18095252 1.0395199,
  4.8700787 -0.12795276 0.99885177,4.8700787 -0.06623322 0.9732867,
  4.8700787 0 0.96456693,5.488189 0 0.96456693,
  5.488189 0 0.96456693,5.488189 0.06623322 0.9732867,
  5.488189 0.12795276 0.99885177,5.488189 0.18095252 1.0395199,
  5.488189 0.22162067 1.0925197,5.488189 0.24718574 1.1542392,
  5.488189 0.25590551 1.2204724,5.488189 0.24718574 1.2867057,
  5.488189 0.22162067 1.3484252,5.488189 0.18095252 1.401425,
  5.488189 0.12795276 1.4420931,5.488189 0.06623322 1.4676582,
  5.488189 0 1.476378,5.488189 -0.06623322 1.4676582,
  5.488189 -0.12795276 1.4420931,5.488189 -0.18095252 1.401425,
  5.488189 -0.22162067 1.3484252,5.488189 -0.24718574 1.2867057,
  5.488189 -0.25590551 1.2204724,5.488189 -0.24718574 1.1542392,
  5.488189 -0.22162067 1.0925197,5.488189 -0.18095252 1.0395199,
  5.488189 -0.12795276 0.99885177,5.488189 -0.06623322 0.9732867] }
 coordIndex [
  27,0,1,-1,27,26,0,-1,28,1,2,-1,28,27,1,-1,29,2,3,-1,29,3,4,-1,29,28,2,-1,30,29,4,-1,
  31,4,5,-1,31,5,6,-1,31,30,4,-1,32,6,7,-1,32,31,6,-1,33,32,7,-1,34,7,8,-1,34,33,7,-1,
  35,8,9,-1,35,34,8,-1,36,9,10,-1,36,35,9,-1,37,10,11,-1,37,36,10,-1,38,37,11,-1,38,11,12,-1,
  38,12,13,-1,39,38,13,-1,40,39,13,-1,40,13,14,-1,41,40,14,-1,41,14,15,-1,42,15,16,-1,42,41,15,-1,
  43,16,17,-1,43,42,16,-1,43,17,18,-1,44,43,18,-1,45,18,19,-1,45,44,18,-1,46,19,20,-1,46,45,19,-1,
  47,20,21,-1,47,21,22,-1,47,46,20,-1,48,47,22,-1,49,22,23,-1,49,23,24,-1,49,48,22,-1,25,49,24,-1]
  normalPerVertex TRUE
  normal DEF NORM_9 Normal { vector [
  0 0.13052619 -0.99144486,0 0.30091828 -0.95364993,
  0 0.5374875 -0.84327172,0 0.70710678 -0.70710678,
  0 0.8660254 -0.5,0 0.96592583 -0.25881905,
  0 0.99903848 -0.04384197,0 0.96592583 0.25881905,
  0 0.84327172 0.5374875,0 0.67542593 0.73742784,
  0 0.46155098 0.88711369,0 0.21622209 0.9763442,
  0 0 1,0 -0.25881905 0.96592583,
  0 -0.5374875 0.84327172,0 -0.73742784 0.67542593,
  0 -0.88711369 0.46155098,0 -0.96592583 0.25881905,
  0 -1 0,0 -0.95364993 -0.30091828,
  0 -0.84327172 -0.5374875,0 -0.70710678 -0.70710678,
  0 -0.5 -0.8660254,0 -0.25881905 -0.96592583,
  0 -0.13052619 -0.99144486,0 -0.13052619 -0.99144486,
  0 0.13052619 -0.99144486,0 0.21622209 -0.9763442,
  0 0.46155098 -0.88711369,0 0.70710678 -0.70710678,
  0 0.8660254 -0.5,0 0.96592583 -0.25881905,
  0 0.99903848 0.04384197,0 0.96592583 0.25881905,
  0 0.88711369 0.46155098,0 0.73742784 0.67542593,
  0 0.5374875 0.84327172,0 0.30091828 0.95364993,
  0 0 1,0 -0.25881905 0.96592583,
  0 -0.46155098 0.88711369,0 -0.67542593 0.73742784,
  0 -0.84327172 0.5374875,0 -0.96592583 0.25881905,
  0 -1 0,0 -0.9763442 -0.21622209,
  0 -0.88711369 -0.46155098,0 -0.70710678 -0.70710678,
  0 -0.5 -0.8660254,0 -0.25881905 -0.96592583] }
}
}
DEF SHAPE_10 Shape {
 appearance USE APP_3
 geometry DEF FACE_10 IndexedFaceSet {
  coord DEF COORD_10 Coordinate { point [
  0.25590551 0 0.70866142,0.26462528 0 0.77489464,
  0.29019035 0 0.83661417,0.3308585 0 0.88961394,
  0.38385827 0 0.93028209,0.4455778 0 0.95584716,
  0.51181102 0 0.96456693,0.51181102 -0.06623322 0.9732867,
  0.51181102 -0.12795276 0.99885177,0.51181102 -0.18095252 1.0395199,
  0.51181102 -0.22162067 1.0925197,0.51181102 -0.24718574 1.1542392,
  0.51181102 -0.25590551 1.2204724,0.51181102 -0.24718574 1.2867057,
  0.51181102 -0.22162067 1.3484252,0.51181102 -0.18095252 1.401425,
  0.51181102 -0.12795276 1.4420931,0.51181102 -0.06623322 1.4676582,
  0.51181102 0 1.476378,0.51181102 0.06623322 1.4676582,
  0.51181102 0.12795276 1.4420931,0.51181102 0.18095252 1.401425,
  0.51181102 0.22162067 1.3484252,0.51181102 0.24718574 1.2867057,
  0.51181102 0.25590551 1.2204724,0.51181102 0.24718574 1.1542392,
  0.51181102 0.22162067 1.0925197,0.51181102 0.18095252 1.0395199,
  0.51181102 0.12795276 0.99885177,0.51181102 0.06623322 0.9732867,
  0.51181102 0 0.96456693,0.25590551 0 0.70866142,
  0.26462528 0 0.77489464,0.29019035 0 0.83661417,
  0.3308585 0 0.88961394,0.38385827 0 0.93028209,
  0.4455778 0 0.95584716,0.24718574 0.06623322 0.70866142,
  0.22162067 0.12795276 0.70866142,0.18095252 0.18095252 0.70866142,
  0.12795276 0.22162067 0.70866142,0.06623322 0.24718574 0.70866142,
  0 0.25590551 0.70866142,-0.06623322 0.24718574 0.70866142,
  -0.12795276 0.22162067 0.70866142,-0.18095252 0.18095252 0.70866142,
  -0.22162067 0.12795276 0.70866142,-0.24718574 0.06623322 0.70866142,
  -0.25590551 0 0.70866142,-0.24718574 -0.06623322 0.70866142,
  -0.22162067 -0.12795276 0.70866142,-0.18095252 -0.18095252 0.70866142,
  -0.12795276 -0.22162067 0.70866142,-0.06623322 -0.24718574 0.70866142,
  0 -0.25590551 0.70866142,0.06623322 -0.24718574 0.70866142,
  0.12795276 -0.22162067 0.70866142,0.18095252 -0.18095252 0.70866142,
  0.22162067 -0.12795276 0.70866142,0.24718574 -0.06623322 0.70866142,
  0.25620263 -0.06623322 0.77715148,0.23150867 -0.12795276 0.78376821,
  0.28263881 -0.06623322 0.84097406,0.19222625 -0.18095252 0.7942939,
  0.26049881 -0.12795276 0.85375659,0.14103241 -0.22162067 0.80801125,
  0.32469269 -0.06623322 0.89577975,0.22527916 -0.18095252 0.87409067,
  0.081415916 -0.24718574 0.82398544,0.30661546 -0.12795276 0.91385698,
  0.17938001 -0.22162067 0.90059055,0.017439538 -0.25590551 0.84112786,
  0.37949838 -0.06623322 0.93783363,0.27785873 -0.18095252 0.94261371,
  0.12592933 -0.24718574 0.93145032,-0.04653684 -0.24718574 0.85827028,
  0.36671585 -0.12795276 0.95997363,0.24038224 -0.22162067 0.9800902,
  0.068569675 -0.25590551 0.96456693,0.44332096 -0.06623322 0.96426981,
  -0.10615333 -0.22162067 0.87424447,0.34638177 -0.18095252 0.99519328,
  0.19673994 -0.24718574 1.0237325,0.011210024 -0.24718574 0.99768354,
  0.43670423 -0.12795276 0.98896377,-0.15734718 -0.18095252 0.88796182,
  0.31988189 -0.22162067 1.0410924,0.14990598 -0.25590551 1.0705665,
  -0.042240662 -0.22162067 1.0285433,0.42617854 -0.18095252 1.0282462,
  -0.1966296 -0.12795276 0.89848751,0.28902212 -0.24718574 1.0945431,
  0.10307202 -0.24718574 1.1174004,-0.088139806 -0.18095252 1.0550432,
  0.41246119 -0.22162067 1.07944,-0.22132356 -0.06623322 0.90510424,
  0.25590551 -0.25590551 1.1519028,0.059429717 -0.22162067 1.1610427,
  -0.12335946 -0.12795276 1.0753773,0.396487 -0.24718574 1.1390565,
  -0.22974621 0 0.90736108,0.2227889 -0.24718574 1.2092624,
  0.021953222 -0.18095252 1.1985192,-0.14549946 -0.06623322 1.0881598,
  0.37934458 -0.25590551 1.2030329,-0.22132356 0.06623322 0.90510424,
  0.19192913 -0.22162067 1.2627131,-0.0068035034 -0.12795276 1.2272759,
  -0.153051 0 1.0925197,0.36220216 -0.24718574 1.2670093,
  -0.1966296 0.12795276 0.89848751,0.16542925 -0.18095252 1.3086122,
  -0.024880737 -0.06623322 1.2453532,-0.14549946 0.06623322 1.0881598,
  0.34622797 -0.22162067 1.3266258,-0.15734718 0.18095252 0.88796182,
  0.14509517 -0.12795276 1.3438319,-0.031046545 0 1.251519,
  -0.12335946 0.12795276 1.0753773,0.33251062 -0.18095252 1.3778196,
  -0.10615333 0.22162067 0.87424447,0.13231264 -0.06623322 1.3659719,
  -0.024880737 0.06623322 1.2453532,-0.088139806 0.18095252 1.0550432,
  0.32198493 -0.12795276 1.417102,-0.04653684 0.24718574 0.85827028,
  0.12795276 0 1.3735234,-0.0068035034 0.12795276 1.2272759,
  -0.042240662 0.22162067 1.0285433,0.31536821 -0.06623322 1.441796,
  0.017439538 0.25590551 0.84112786,0.13231264 0.06623322 1.3659719,
  0.021953222 0.18095252 1.1985192,0.011210024 0.24718574 0.99768354,
  0.31311136 0 1.4502186,0.081415916 0.24718574 0.82398544,
  0.14509517 0.12795276 1.3438319,0.059429717 0.22162067 1.1610427,
  0.068569675 0.25590551 0.96456693,0.31536821 0.06623322 1.441796,
  0.14103241 0.22162067 0.80801125,0.16542925 0.18095252 1.3086122,
  0.10307202 0.24718574 1.1174004,0.12592933 0.24718574 0.93145032,
  0.32198493 0.12795276 1.417102,0.19222625 0.18095252 0.7942939,
  0.19192913 0.22162067 1.2627131,0.14990598 0.25590551 1.0705665,
  0.17938001 0.22162067 0.90059055,0.33251062 0.18095252 1.3778196,
  0.23150867 0.12795276 0.78376821,0.2227889 0.24718574 1.2092624,
  0.19673994 0.24718574 1.0237325,0.22527916 0.18095252 0.87409067,
  0.34622797 0.22162067 1.3266258,0.25620263 0.06623322 0.77715148,
  0.25590551 0.25590551 1.1519028,0.24038224 0.22162067 0.9800902,
  0.26049881 0.12795276 0.85375659,0.36220216 0.24718574 1.2670093,
  0.28902212 0.24718574 1.0945431,0.27785873 0.18095252 0.94261371,
  0.28263881 0.06623322 0.84097406,0.37934458 0.25590551 1.2030329,
  0.31988189 0.22162067 1.0410924,0.30661546 0.12795276 0.91385698,
  0.396487 0.24718574 1.1390565,0.34638177 0.18095252 0.99519328,
  0.32469269 0.06623322 0.89577975,0.41246119 0.22162067 1.07944,
  0.36671585 0.12795276 0.95997363,0.42617854 0.18095252 1.0282462,
  0.37949838 0.06623322 0.93783363,0.43670423 0.12795276 0.98896377,
  0.44332096 0.06623322 0.96426981] }
 coordIndex [
  60,0,1,-1,60,59,0,-1,61,59,60,-1,61,58,59,-1,62,1,2,-1,62,60,1,-1,63,58,61,-1,63,57,58,-1,
  64,61,60,-1,64,60,62,-1,65,57,63,-1,65,56,57,-1,66,2,3,-1,66,62,2,-1,67,63,61,-1,67,61,64,-1,
  68,55,56,-1,68,56,65,-1,69,62,66,-1,69,64,62,-1,70,63,67,-1,70,65,63,-1,71,54,55,-1,71,55,68,-1,
  72,3,4,-1,72,66,3,-1,73,67,64,-1,73,64,69,-1,74,68,65,-1,74,65,70,-1,75,54,71,-1,75,53,54,-1,
  76,69,66,-1,76,66,72,-1,77,67,73,-1,77,70,67,-1,78,71,68,-1,78,68,74,-1,79,4,5,-1,79,5,6,-1,
  79,6,7,-1,79,72,4,-1,80,51,52,-1,80,52,53,-1,80,53,75,-1,81,73,69,-1,81,69,76,-1,82,70,77,-1,
  82,74,70,-1,83,75,71,-1,83,71,78,-1,84,7,8,-1,84,72,79,-1,84,76,72,-1,84,79,7,-1,85,51,80,-1,
  86,73,81,-1,86,77,73,-1,87,78,74,-1,87,74,82,-1,87,83,78,-1,88,75,83,-1,88,80,75,-1,89,8,9,-1,
  89,81,76,-1,89,84,8,-1,89,76,84,-1,90,50,51,-1,90,51,85,-1,91,82,77,-1,91,77,86,-1,92,83,87,-1,
  93,85,80,-1,93,80,88,-1,94,81,89,-1,94,9,10,-1,94,86,81,-1,94,89,9,-1,95,50,90,-1,95,49,50,-1,
  96,87,82,-1,96,82,91,-1,97,83,92,-1,97,88,83,-1,98,85,93,-1,98,90,85,-1,99,10,11,-1,99,86,94,-1,
  99,91,86,-1,99,94,10,-1,100,49,95,-1,100,48,49,-1,101,87,96,-1,101,92,87,-1,102,93,88,-1,102,88,97,-1,
  103,95,90,-1,103,90,98,-1,104,11,12,-1,104,91,99,-1,104,101,96,-1,104,99,11,-1,104,96,91,-1,105,48,100,-1,
  105,47,48,-1,106,92,101,-1,106,97,92,-1,107,98,93,-1,107,93,102,-1,108,100,95,-1,108,95,103,-1,109,12,13,-1,
  109,101,104,-1,109,104,12,-1,110,46,47,-1,110,47,105,-1,111,102,97,-1,111,97,106,-1,112,103,98,-1,112,108,103,-1,
  112,98,107,-1,113,105,100,-1,113,100,108,-1,114,106,101,-1,114,13,14,-1,114,109,13,-1,114,101,109,-1,115,45,46,-1,
  115,46,110,-1,116,107,102,-1,116,102,111,-1,117,108,112,-1,118,110,105,-1,118,105,113,-1,119,14,15,-1,119,106,114,-1,
  119,111,106,-1,119,114,14,-1,120,44,45,-1,120,45,115,-1,121,107,116,-1,121,112,107,-1,122,113,108,-1,122,108,117,-1,
  123,115,110,-1,123,110,118,-1,124,15,16,-1,124,119,15,-1,124,116,111,-1,124,111,119,-1,125,43,44,-1,125,44,120,-1,
  126,117,112,-1,126,112,121,-1,127,113,122,-1,127,118,113,-1,128,115,123,-1,128,120,115,-1,129,116,124,-1,129,16,17,-1,
  129,17,18,-1,129,126,121,-1,129,124,16,-1,129,121,116,-1,130,43,125,-1,130,41,42,-1,130,42,43,-1,131,117,126,-1,
  131,127,122,-1,131,122,117,-1,132,118,127,-1,132,123,118,-1,133,120,128,-1,133,125,120,-1,134,126,129,-1,134,131,126,-1,
  134,129,18,-1,135,41,130,-1,136,127,131,-1,137,123,132,-1,137,128,123,-1,138,130,125,-1,138,125,133,-1,139,18,19,-1,
  139,19,20,-1,139,134,18,-1,139,131,134,-1,140,41,135,-1,140,40,41,-1,141,132,127,-1,141,127,136,-1,142,128,137,-1,
  142,133,128,-1,143,135,130,-1,143,130,138,-1,144,139,20,-1,144,136,131,-1,144,131,139,-1,144,141,136,-1,145,39,40,-1,
  145,40,140,-1,146,132,141,-1,146,137,132,-1,147,138,133,-1,147,133,142,-1,148,140,135,-1,148,135,143,-1,149,20,21,-1,
  149,141,144,-1,149,144,20,-1,149,146,141,-1,150,38,39,-1,150,39,145,-1,151,142,137,-1,151,137,146,-1,152,143,138,-1,
  152,138,147,-1,153,140,148,-1,153,145,140,-1,154,21,22,-1,154,149,21,-1,154,146,149,-1,155,32,31,-1,155,33,32,-1,
  155,31,37,-1,155,37,38,-1,155,38,150,-1,156,147,142,-1,156,142,151,-1,157,148,143,-1,157,143,152,-1,158,150,145,-1,
  158,145,153,-1,159,22,23,-1,159,154,22,-1,159,151,146,-1,159,146,154,-1,160,147,156,-1,160,152,147,-1,161,148,157,-1,
  161,153,148,-1,162,155,150,-1,162,33,155,-1,162,150,158,-1,163,156,151,-1,163,23,24,-1,163,24,25,-1,163,151,159,-1,
  163,159,23,-1,164,161,157,-1,164,152,160,-1,164,157,152,-1,165,153,161,-1,165,158,153,-1,166,25,26,-1,166,160,156,-1,
  166,163,25,-1,166,156,163,-1,167,161,164,-1,168,33,162,-1,168,162,158,-1,168,158,165,-1,168,34,33,-1,169,164,160,-1,
  169,166,26,-1,169,26,27,-1,169,167,164,-1,169,160,166,-1,170,165,161,-1,170,161,167,-1,171,169,27,-1,171,167,169,-1,
  172,165,170,-1,172,35,34,-1,172,168,165,-1,172,34,168,-1,173,27,28,-1,173,28,29,-1,173,171,27,-1,173,170,167,-1,
  173,167,171,-1,174,172,170,-1,174,29,30,-1,174,36,35,-1,174,30,36,-1,174,35,172,-1,174,173,29,-1,174,170,173,-1]
  normalPerVertex TRUE
  normal DEF NORM_10 Normal { vector [
  0.9831056 -0.12942831 -0.12942831,0.94521355 -0.13039723 -0.29927898,
  0.83554708 -0.13039723 -0.53372056,0.66893946 -0.13039723 -0.73178997,
  0.45674472 -0.13039723 -0.87998911,0.25660481 -0.13052619 -0.9576622,
  0.12942831 -0.12942831 -0.9831056,0.12446622 -0.30116287 -0.94541477,
  0.11006852 -0.53749382 -0.83605342,0.088145197 -0.73753713 -0.66952924,
  0.060134384 -0.88755207 -0.456766,0.027923571 -0.97684882 -0.21210058,
  -0.0062481163 -0.99885364 0.047459155,-0.039962446 -0.95197872 0.30354492,
  -0.070844233 -0.83988865 0.53811538,-0.096777161 -0.67102069 0.73509552,
  -0.11606212 -0.45754509 0.88157931,-0.12615063 -0.25675137 0.95820914,
  -0.13052619 0 0.99144486,-0.12615063 0.25675137 0.95820914,
  -0.11347289 0.49419769 0.86191215,-0.088791754 0.73297085 0.67444033,
  -0.060990298 0.8841174 0.46326731,-0.028901131 0.9751785 0.21952588,
  0 1 0,0.027923571 0.97684882 -0.21210058,
  0.060134384 0.88755207 -0.456766,0.091839253 0.71058849 -0.69758838,
  0.1132805 0.49678152 -0.86045084,0.12446622 0.30116287 -0.94541477,
  0.12942831 0.12942831 -0.9831056,0.9831056 0.12942831 -0.12942831,
  0.9576622 0.13052619 -0.25660481,0.85861644 0.13052619 -0.49572243,
  0.66893946 0.13039723 -0.73178997,0.45674472 0.13039723 -0.87998911,
  0.25660481 0.13052619 -0.9576622,0.95820914 0.25675137 -0.12615063,
  0.87992289 0.46077746 -0.11584405,0.73147889 0.67502944 -0.096301023,
  0.53260411 0.84345494 -0.070118661,0.24956686 0.96780001 -0.032856101,
  0 1 0,-0.21952588 0.9751785 0.028901131,
  -0.46326731 0.8841174 0.060990298,-0.67444033 0.73297085 0.088791754,
  -0.83899194 0.53281529 0.11045538,-0.94651342 0.29763144 0.12461086,
  -0.99052196 0.043137836 0.13040469,-0.96844764 -0.21413383 0.12749855,
  -0.88157931 -0.45754509 0.11606212,-0.70717556 -0.70088148 0.093101429,
  -0.49892023 -0.86415519 0.065684095,-0.30354492 -0.95197872 0.039962446,
  -0.047459155 -0.99885364 0.0062481163,0.21210058 -0.97684882 -0.027923571,
  0.456766 -0.88755207 -0.060134384,0.66952924 -0.73753713 -0.088145197,
  0.83605342 -0.53749382 -0.11006852,0.94541477 -0.30116287 -0.12446622,
  0.93199701 -0.26153495 -0.25096024,0.83375498 -0.50429314 -0.22481339,
  0.83528669 -0.26153495 -0.48362756,0.67872368 -0.71145858 -0.18210121,
  0.74715948 -0.50429314 -0.43294473,0.47794647 -0.86927191 -0.12622806,
  0.68165297 -0.26153495 -0.68333645,0.60846547 -0.71145858 -0.35156288,
  0.24515215 -0.9675271 -0.06157698,0.6096463 -0.50429314 -0.6115716,
  0.42899061 -0.86927191 -0.24562859,-0.0039900731 -0.99996719 0.0070502074,
  0.48156572 -0.26153495 -0.8364771,0.49674134 -0.71145858 -0.49706612,
  0.2208615 -0.9675271 -0.12292884,-0.25276227 -0.96463324 0.074792722,
  0.43058673 -0.50429314 -0.74852087,0.35079976 -0.86927191 -0.34828994,
  0.021922288 -0.99971844 -0.0090805091,0.25264191 -0.21717188 -0.94287244,
  -0.50415685 -0.85401869 0.12836643,0.35116511 -0.71145858 -0.60869512,
  0.1815195 -0.9675271 -0.1759033,-0.2093977 -0.96910515 0.13033732,
  0.22928448 -0.46390071 -0.85570133,-0.69569218 -0.68719633 0.20922138,
  0.24870247 -0.86927191 -0.42721591,-0.016624724 -0.99966934 0.01961692,
  -0.43248032 -0.86402605 0.25772031,0.19020469 -0.67818146 -0.70985357,
  -0.83627795 -0.49827183 0.22883266,0.12980725 -0.9675271 -0.21689025,
  -0.19462233 -0.95809306 0.21019002,-0.61109777 -0.7049862 0.35993606,
  0.13818821 -0.8455361 -0.51572544,-0.93262531 -0.25785721 0.25242759,
  0.014445004 -0.99971844 -0.018825096,-0.35104098 -0.86402605 0.36087284,
  -0.74855622 -0.49827183 0.43748003,0.07683586 -0.9549176 -0.28675533,
  -0.96592583 0 0.25881905,-0.11617507 -0.96910515 0.21757428,
  -0.49711681 -0.7049862 0.50583528,-0.84219373 -0.28338871 0.4586944,
  0.00028194433 -0.99992724 -0.012059707,-0.93389101 0.25785721 0.24770395,
  -0.24567879 -0.86402605 0.43943249,-0.60982162 -0.49827183 0.61631387,
  -0.85638405 -0.018678316 0.51600143,-0.057971206 -0.97181994 0.2284849,
  -0.83865427 0.49827183 0.21996408,-0.34925816 -0.7049862 0.61726266,
  -0.69841009 -0.23951179 0.67443121,-0.83795894 0.25785721 0.48097242,
  -0.12012603 -0.88576638 0.44831646,-0.68662461 0.7049862 0.17759815,
  -0.42952868 -0.49827183 0.75314693,-0.68818956 0.026072962 0.72506229,
  -0.75314693 0.49827183 0.42952868,-0.1752502 -0.73587741 0.65404267,
  -0.48804554 0.86402605 0.12357399,-0.50001397 -0.28338871 0.81833787,
  -0.70616648 0.23298807 0.66861458,-0.61726266 0.7049862 0.34925816,
  -0.21848398 -0.53609561 0.81539331,-0.25629491 0.96463324 0.06160874,
  -0.49952651 -0.043509369 0.86520529,-0.60961043 0.48155506 0.62966646,
  -0.43943249 0.86402605 0.24567879,-0.25009987 -0.25737468 0.93338541,
  0.010584985 0.99992724 -0.0057856824,-0.48315584 0.25737468 0.83685047,
  -0.50583528 0.7049862 0.49711681,-0.23161636 0.96463324 0.12584348,
  -0.28382759 0.026072962 0.95852079,0.26935198 0.95958768 -0.081492286,
  -0.4330127 0.5 0.75,-0.36087284 0.86402605 0.35104098,
  -0.0078066572 0.99996719 -0.0021638417,-0.20920796 0.25762969 0.94332337,
  0.47702781 0.86927191 -0.12965653,-0.36928114 0.67418526 0.63961369,
  -0.19115353 0.96463324 0.18150219,0.21689025 0.9675271 -0.12980725,
  -0.26079708 0.49792009 0.82707948,0.67884255 0.71145858 -0.18165756,
  -0.25447785 0.85401869 0.45375445,-0.0081006952 0.99996719 -6.9599006e-05,
  0.42721591 0.86927191 -0.24870247,-0.17759815 0.7049862 0.68662461,
  0.83445969 0.50429314 -0.22218339,-0.13766391 0.96463324 0.22479183,
  0.1759033 0.9675271 -0.1815195,0.60869512 0.71145858 -0.35116511,
  -0.11899716 0.85154078 0.51060549,0.94159765 0.24359659 -0.23249637,
  -0.0078426843 0.99996719 0.0020293867,0.34332905 0.88038795 -0.32717307,
  0.74852087 0.50429314 -0.43058673,-0.078626013 0.95273979 0.29343628,
  0.12292884 0.9675271 -0.2208615,0.47751661 0.72546191 -0.4956641,
  0.84273377 0.28596648 -0.45609535,-0.0086763885 0.99966934 0.024205893,
  0.26560563 0.869075 -0.41732757,0.6115716 0.50429314 -0.6096463,
  0.06157698 0.9675271 -0.24515215,0.3245027 0.71112054 -0.62370312,
  0.71236618 0.26129162 -0.65135329,0.1400856 0.86056024 -0.48970613,
  0.43294473 0.50429314 -0.74715948,0.1830127 0.70710678 -0.6830127,
  0.51951026 0.26129162 -0.8135329,0.20578822 0.52146573 -0.82808496,
  0.26945106 0.24359659 -0.93169567] }
}
}
DEF SHAPE_11 Shape {
 appearance USE APP_3
 geometry DEF FACE_11 IndexedFaceSet {
  coord DEF COORD_11 Coordinate { point [
  5.488189 0 0.96456693,5.5544222 0 0.95584716,
  5.6161417 0 0.93028209,5.6691415 0 0.88961394,
  5.7098097 0 0.83661417,5.7353747 0 0.77489464,
  5.7440945 0 0.70866142,5.7528143 -0.06623322 0.70866142,
  5.7783793 -0.12795276 0.70866142,5.8190475 -0.18095252 0.70866142,
  5.8720472 -0.22162067 0.70866142,5.9337668 -0.24718574 0.70866142,
  6 -0.25590551 0.70866142,6.0662332 -0.24718574 0.70866142,
  6.1279528 -0.22162067 0.70866142,6.1809525 -0.18095252 0.70866142,
  6.2216207 -0.12795276 0.70866142,6.2471857 -0.06623322 0.70866142,
  6.2559055 0 0.70866142,6.2471857 0.06623322 0.70866142,
  6.2216207 0.12795276 0.70866142,6.1809525 0.18095252 0.70866142,
  6.1279528 0.22162067 0.70866142,6.0662332 0.24718574 0.70866142,
  6 0.25590551 0.70866142,5.9337668 0.24718574 0.70866142,
  5.8720472 0.22162067 0.70866142,5.8190475 0.18095252 0.70866142,
  5.7783793 0.12795276 0.70866142,5.7528143 0.06623322 0.70866142,
  5.7440945 0 0.70866142,5.488189 0 0.96456693,
  5.5544222 0 0.95584716,5.6161417 0 0.93028209,
  5.6691415 0 0.88961394,5.7098097 0 0.83661417,
  5.7353747 0 0.77489464,5.488189 0.06623322 0.9732867,
  5.488189 0.12795276 0.99885177,5.488189 0.18095252 1.0395199,
  5.488189 0.22162067 1.0925197,5.488189 0.24718574 1.1542392,
  5.488189 0.25590551 1.2204724,5.488189 0.24718574 1.2867057,
  5.488189 0.22162067 1.3484252,5.488189 0.18095252 1.401425,
  5.488189 0.12795276 1.4420931,5.488189 0.06623322 1.4676582,
  5.488189 0 1.476378,5.488189 -0.06623322 1.4676582,
  5.488189 -0.12795276 1.4420931,5.488189 -0.18095252 1.401425,
  5.488189 -0.22162067 1.3484252,5.488189 -0.24718574 1.2867057,
  5.488189 -0.25590551 1.2204724,5.488189 -0.24718574 1.1542392,
  5.488189 -0.22162067 1.0925197,5.488189 -0.18095252 1.0395199,
  5.488189 -0.12795276 0.99885177,5.488189 -0.06623322 0.9732867,
  5.556679 -0.06623322 0.96426981,5.5632958 -0.12795276 0.98896377,
  5.6205016 -0.06623322 0.93783363,5.5738215 -0.18095252 1.0282462,
  5.6332842 -0.12795276 0.95997363,5.5875388 -0.22162067 1.07944,
  5.6753073 -0.06623322 0.89577975,5.6536182 -0.18095252 0.99519328,
  5.603513 -0.24718574 1.1390565,5.6933845 -0.12795276 0.91385698,
  5.6801181 -0.22162067 1.0410924,5.6206554 -0.25590551 1.2030329,
  5.7173612 -0.06623322 0.84097406,5.7221413 -0.18095252 0.94261371,
  5.7109779 -0.24718574 1.0945431,5.6377978 -0.24718574 1.2670093,
  5.7395012 -0.12795276 0.85375659,5.7596178 -0.22162067 0.9800902,
  5.7440945 -0.25590551 1.1519028,5.7437974 -0.06623322 0.77715148,
  5.653772 -0.22162067 1.3266258,5.7747208 -0.18095252 0.87409067,
  5.8032601 -0.24718574 1.0237325,5.7772111 -0.24718574 1.2092624,
  5.7684913 -0.12795276 0.78376821,5.6674894 -0.18095252 1.3778196,
  5.82062 -0.22162067 0.90059055,5.850094 -0.25590551 1.0705665,
  5.8080709 -0.22162067 1.2627131,5.8077737 -0.18095252 0.7942939,
  5.6780151 -0.12795276 1.417102,5.8740707 -0.24718574 0.93145032,
  5.896928 -0.24718574 1.1174004,5.8345707 -0.18095252 1.3086122,
  5.8589676 -0.22162067 0.80801125,5.6846318 -0.06623322 1.441796,
  5.9314303 -0.25590551 0.96456693,5.9405703 -0.22162067 1.1610427,
  5.8549048 -0.12795276 1.3438319,5.9185841 -0.24718574 0.82398544,
  5.6868886 0 1.4502186,5.98879 -0.24718574 0.99768354,
  5.9780468 -0.18095252 1.1985192,5.8676874 -0.06623322 1.3659719,
  5.9825605 -0.25590551 0.84112786,5.6846318 0.06623322 1.441796,
  6.0422407 -0.22162067 1.0285433,6.0068035 -0.12795276 1.2272759,
  5.8720472 0 1.3735234,6.0465368 -0.24718574 0.85827028,
  5.6780151 0.12795276 1.417102,6.0881398 -0.18095252 1.0550432,
  6.0248807 -0.06623322 1.2453532,5.8676874 0.06623322 1.3659719,
  6.1061533 -0.22162067 0.87424447,5.6674894 0.18095252 1.3778196,
  6.1233595 -0.12795276 1.0753773,6.0310465 0 1.251519,
  5.8549048 0.12795276 1.3438319,6.1573472 -0.18095252 0.88796182,
  5.653772 0.22162067 1.3266258,6.1454995 -0.06623322 1.0881598,
  6.0248807 0.06623322 1.2453532,5.8345707 0.18095252 1.3086122,
  6.1966296 -0.12795276 0.89848751,5.6377978 0.24718574 1.2670093,
  6.153051 0 1.0925197,6.0068035 0.12795276 1.2272759,
  5.8080709 0.22162067 1.2627131,6.2213236 -0.06623322 0.90510424,
  5.6206554 0.25590551 1.2030329,6.1454995 0.06623322 1.0881598,
  5.9780468 0.18095252 1.1985192,5.7772111 0.24718574 1.2092624,
  6.2297462 0 0.90736108,5.603513 0.24718574 1.1390565,
  6.1233595 0.12795276 1.0753773,5.9405703 0.22162067 1.1610427,
  5.7440945 0.25590551 1.1519028,6.2213236 0.06623322 0.90510424,
  5.5875388 0.22162067 1.07944,6.0881398 0.18095252 1.0550432,
  5.896928 0.24718574 1.1174004,5.7109779 0.24718574 1.0945431,
  6.1966296 0.12795276 0.89848751,5.5738215 0.18095252 1.0282462,
  6.0422407 0.22162067 1.0285433,5.850094 0.25590551 1.0705665,
  5.6801181 0.22162067 1.0410924,6.1573472 0.18095252 0.88796182,
  5.5632958 0.12795276 0.98896377,5.98879 0.24718574 0.99768354,
  5.8032601 0.24718574 1.0237325,5.6536182 0.18095252 0.99519328,
  6.1061533 0.22162067 0.87424447,5.556679 0.06623322 0.96426981,
  5.9314303 0.25590551 0.96456693,5.7596178 0.22162067 0.9800902,
  5.6332842 0.12795276 0.95997363,6.0465368 0.24718574 0.85827028,
  5.8740707 0.24718574 0.93145032,5.7221413 0.18095252 0.94261371,
  5.6205016 0.06623322 0.93783363,5.9825605 0.25590551 0.84112786,
  5.82062 0.22162067 0.90059055,5.6933845 0.12795276 0.91385698,
  5.9185841 0.24718574 0.82398544,5.7747208 0.18095252 0.87409067,
  5.6753073 0.06623322 0.89577975,5.8589676 0.22162067 0.80801125,
  5.7395012 0.12795276 0.85375659,5.8077737 0.18095252 0.7942939,
  5.7173612 0.06623322 0.84097406,5.7684913 0.12795276 0.78376821,
  5.7437974 0.06623322 0.77715148] }
 coordIndex [
  32,31,37,-1,60,0,1,-1,60,59,0,-1,61,59,60,-1,61,58,59,-1,62,1,2,-1,62,60,1,-1,63,58,61,-1,
  63,57,58,-1,64,61,60,-1,64,60,62,-1,65,57,63,-1,65,56,57,-1,66,2,3,-1,66,62,2,-1,67,63,61,-1,
  67,61,64,-1,68,55,56,-1,68,56,65,-1,69,62,66,-1,69,64,62,-1,70,63,67,-1,70,65,63,-1,71,54,55,-1,
  71,55,68,-1,72,3,4,-1,72,66,3,-1,73,67,64,-1,73,64,69,-1,74,68,65,-1,74,65,70,-1,75,54,71,-1,
  75,53,54,-1,76,69,66,-1,76,66,72,-1,77,67,73,-1,77,70,67,-1,78,71,68,-1,78,68,74,-1,79,4,5,-1,
  79,5,6,-1,79,6,7,-1,79,72,4,-1,80,51,52,-1,80,52,53,-1,80,53,75,-1,81,73,69,-1,81,69,76,-1,
  82,70,77,-1,82,74,70,-1,83,75,71,-1,83,71,78,-1,84,7,8,-1,84,72,79,-1,84,76,72,-1,84,79,7,-1,
  85,51,80,-1,86,73,81,-1,86,77,73,-1,87,78,74,-1,87,74,82,-1,88,75,83,-1,88,80,75,-1,89,8,9,-1,
  89,81,76,-1,89,84,8,-1,89,86,81,-1,89,76,84,-1,90,50,51,-1,90,51,85,-1,91,82,77,-1,91,77,86,-1,
  92,83,78,-1,92,78,87,-1,93,85,80,-1,93,80,88,-1,94,9,10,-1,94,86,89,-1,94,89,9,-1,95,50,90,-1,
  95,49,50,-1,96,87,82,-1,96,82,91,-1,97,83,92,-1,97,88,83,-1,98,85,93,-1,98,90,85,-1,99,10,11,-1,
  99,86,94,-1,99,91,86,-1,99,94,10,-1,100,49,95,-1,100,47,48,-1,100,48,49,-1,101,87,96,-1,101,92,87,-1,
  102,98,93,-1,102,88,97,-1,102,93,88,-1,103,95,90,-1,103,90,98,-1,104,11,12,-1,104,91,99,-1,104,99,11,-1,
  104,96,91,-1,105,47,100,-1,106,92,101,-1,106,97,92,-1,107,98,102,-1,108,100,95,-1,108,95,103,-1,109,12,13,-1,
  109,101,96,-1,109,96,104,-1,109,104,12,-1,110,47,105,-1,110,46,47,-1,111,102,97,-1,111,97,106,-1,112,103,98,-1,
  112,98,107,-1,113,105,100,-1,113,100,108,-1,114,109,13,-1,114,13,14,-1,114,14,15,-1,114,106,101,-1,114,101,109,-1,
  115,45,46,-1,115,46,110,-1,116,107,102,-1,116,102,111,-1,117,103,112,-1,117,108,103,-1,118,110,105,-1,118,105,113,-1,
  119,111,106,-1,119,114,15,-1,119,106,114,-1,119,116,111,-1,120,44,45,-1,120,45,115,-1,121,112,107,-1,121,107,116,-1,
  122,113,108,-1,122,108,117,-1,123,110,118,-1,123,115,110,-1,123,120,115,-1,124,15,16,-1,124,16,17,-1,124,119,15,-1,
  124,116,119,-1,125,44,120,-1,125,43,44,-1,126,117,112,-1,126,112,121,-1,127,113,122,-1,127,118,113,-1,128,120,123,-1,
  128,125,120,-1,129,121,116,-1,129,124,17,-1,129,126,121,-1,129,116,124,-1,130,43,125,-1,130,42,43,-1,131,122,117,-1,
  131,117,126,-1,132,123,118,-1,132,118,127,-1,133,125,128,-1,134,17,18,-1,134,126,129,-1,134,129,17,-1,135,42,130,-1,
  135,41,42,-1,136,127,122,-1,136,122,131,-1,137,128,123,-1,137,123,132,-1,138,125,133,-1,138,130,125,-1,139,18,19,-1,
  139,134,18,-1,139,131,126,-1,139,126,134,-1,140,40,41,-1,140,41,135,-1,141,127,136,-1,141,132,127,-1,142,128,137,-1,
  142,133,128,-1,143,135,130,-1,143,130,138,-1,144,139,19,-1,144,19,20,-1,144,136,131,-1,144,131,139,-1,144,141,136,-1,
  145,38,39,-1,145,39,40,-1,145,40,140,-1,146,137,132,-1,146,132,141,-1,147,138,133,-1,147,133,142,-1,147,143,138,-1,
  148,135,143,-1,148,140,135,-1,149,20,21,-1,149,144,20,-1,149,141,144,-1,149,146,141,-1,150,38,145,-1,151,142,137,-1,
  151,137,146,-1,152,143,147,-1,153,145,140,-1,153,140,148,-1,154,21,22,-1,154,149,21,-1,154,146,149,-1,154,151,146,-1,
  155,37,38,-1,155,32,37,-1,155,38,150,-1,156,142,151,-1,156,147,142,-1,157,148,143,-1,157,143,152,-1,157,153,148,-1,
  158,150,145,-1,158,145,153,-1,159,22,23,-1,159,154,22,-1,159,151,154,-1,160,147,156,-1,160,152,147,-1,161,153,157,-1,
  162,155,150,-1,162,33,32,-1,162,34,33,-1,162,32,155,-1,162,150,158,-1,163,151,159,-1,163,23,24,-1,163,24,25,-1,
  163,156,151,-1,163,159,23,-1,164,152,160,-1,164,157,152,-1,165,158,153,-1,165,153,161,-1,166,164,160,-1,166,163,25,-1,
  166,156,163,-1,166,25,26,-1,166,160,156,-1,167,161,157,-1,167,157,164,-1,168,34,162,-1,168,162,158,-1,168,158,165,-1,
  169,167,164,-1,169,166,26,-1,169,164,166,-1,170,165,161,-1,170,161,167,-1,171,26,27,-1,171,169,26,-1,171,167,169,-1,
  172,168,165,-1,172,34,168,-1,172,35,34,-1,172,165,170,-1,173,171,27,-1,173,27,28,-1,173,167,171,-1,173,170,167,-1,
  174,28,29,-1,174,29,30,-1,174,36,35,-1,174,30,36,-1,174,35,172,-1,174,173,28,-1,174,172,170,-1,174,170,173,-1]
  normalPerVertex TRUE
  normal DEF NORM_11 Normal { vector [
  -0.12942831 -0.12942831 -0.9831056,-0.29927898 -0.13039723 -0.94521355,
  -0.53372056 -0.13039723 -0.83554708,-0.73178997 -0.13039723 -0.66893946,
  -0.87998911 -0.13039723 -0.45674472,-0.9576622 -0.13052619 -0.25660481,
  -0.9831056 -0.12942831 -0.12942831,-0.94541477 -0.30116287 -0.12446622,
  -0.83605342 -0.53749382 -0.11006852,-0.66952924 -0.73753713 -0.088145197,
  -0.456766 -0.88755207 -0.060134384,-0.21210058 -0.97684882 -0.027923571,
  0.047459155 -0.99885364 0.0062481163,0.30354492 -0.95197872 0.039962446,
  0.49892023 -0.86415519 0.065684095,0.70717556 -0.70088148 0.093101429,
  0.86045084 -0.49678152 0.1132805,0.95858582 -0.25531691 0.12620022,
  0.99052196 0.043137836 0.13040469,0.94651342 0.29763144 0.12461086,
  0.83899194 0.53281529 0.11045538,0.67444033 0.73297085 0.088791754,
  0.46326731 0.8841174 0.060990298,0.21952588 0.9751785 0.028901131,
  0 1 0,-0.21210058 0.97684882 -0.027923571,
  -0.49048027 0.86905664 -0.064572953,-0.73147889 0.67502944 -0.096301023,
  -0.87992289 0.46077746 -0.11584405,-0.95820914 0.25675137 -0.12615063,
  -0.9831056 0.12942831 -0.12942831,-0.12942831 0.12942831 -0.9831056,
  -0.25660481 0.13052619 -0.9576622,-0.49572243 0.13052619 -0.85861644,
  -0.70105738 0.13052619 -0.70105738,-0.87998911 0.13039723 -0.45674472,
  -0.9576622 0.13052619 -0.25660481,-0.12746219 0.2154005 -0.96817148,
  -0.11279862 0.50317623 -0.85679061,-0.092691599 0.70406259 -0.70406259,
  -0.070118661 0.84345494 -0.53260411,-0.039053987 0.9541891 -0.29664448,
  -0.0052522935 0.99919007 -0.03989513,0.028901131 0.9751785 0.21952588,
  0.060990298 0.8841174 0.46326731,0.088791754 0.73297085 0.67444033,
  0.11045538 0.53281529 0.83899194,0.12620022 0.25531691 0.95858582,
  0.13052619 0 0.99144486,0.12749855 -0.21413383 0.96844764,
  0.11606212 -0.45754509 0.88157931,0.093101429 -0.70088148 0.70717556,
  0.065684095 -0.86415519 0.49892023,0.039962446 -0.95197872 0.30354492,
  0.0062481163 -0.99885364 0.047459155,-0.027923571 -0.97684882 -0.21210058,
  -0.060134384 -0.88755207 -0.456766,-0.088145197 -0.73753713 -0.66952924,
  -0.11006852 -0.53749382 -0.83605342,-0.12446622 -0.30116287 -0.94541477,
  -0.25096024 -0.26153495 -0.93199701,-0.22481339 -0.50429314 -0.83375498,
  -0.48362756 -0.26153495 -0.83528669,-0.18210121 -0.71145858 -0.67872368,
  -0.43294473 -0.50429314 -0.74715948,-0.12622806 -0.86927191 -0.47794647,
  -0.68333645 -0.26153495 -0.68165297,-0.35156288 -0.71145858 -0.60846547,
  -0.06157698 -0.9675271 -0.24515215,-0.6115716 -0.50429314 -0.6096463,
  -0.24562859 -0.86927191 -0.42899061,0.0070502074 -0.99996719 0.0039900731,
  -0.8364771 -0.26153495 -0.48156572,-0.49706612 -0.71145858 -0.49674134,
  -0.12292884 -0.9675271 -0.2208615,0.074792722 -0.96463324 0.25276227,
  -0.74852087 -0.50429314 -0.43058673,-0.34828994 -0.86927191 -0.35079976,
  0.0078426843 -0.99996719 0.0020293867,-0.94287244 -0.21717188 -0.25264191,
  0.12836643 -0.85401869 0.50415685,-0.61711457 -0.6900481 -0.37815768,
  -0.1759033 -0.9675271 -0.1815195,0.13766391 -0.96463324 0.22479183,
  -0.85570133 -0.46390071 -0.22928448,0.20922138 -0.68719633 0.69569218,
  -0.44533 -0.86056024 -0.24721904,0.0081006952 -0.99996719 -6.9599006e-05,
  0.25772031 -0.86402605 0.43248032,-0.68711956 -0.69900069 -0.19815333,
  0.22883266 -0.49827183 0.83627795,-0.21689025 -0.9675271 -0.12980725,
  0.19115353 -0.96463324 0.18150219,0.33155255 -0.72426401 0.60457799,
  -0.50600614 -0.8540354 -0.12075316,0.25242759 -0.25785721 0.93262531,
  0.0078066572 -0.99996719 -0.0021638417,0.36087284 -0.86402605 0.35104098,
  0.44469798 -0.5139124 0.73357873,-0.28675533 -0.9549176 -0.07683586,
  0.24068686 0.018678316 0.97042308,0.23161636 -0.96463324 0.12584348,
  0.5035111 -0.69111025 0.51850091,0.48520752 -0.25785721 0.8355138,
  -0.038536268 -0.99920385 -0.010325762,0.27117498 0.28338871 0.91986682,
  0.43943249 -0.86402605 0.24567879,0.63933241 -0.47624 0.60369656,
  0.5 0 0.8660254,0.21213433 -0.97558603 0.056841224,
  0.21996408 0.49827183 0.83865427,0.58942193 -0.72426401 0.35780363,
  0.68492136 -0.25785721 0.68146341,0.48097242 0.25785721 0.83795894,
  0.47459141 -0.87279056 0.11401596,0.16665506 0.68719633 0.70709779,
  0.75190911 -0.5139124 0.41294883,0.70710678 0 0.70710678,
  0.42952868 0.49827183 0.75314693,0.67665918 -0.7046584 0.21351557,
  0.13962533 0.84200427 0.52108883,0.81833787 -0.28338871 0.50001397,
  0.68146341 0.25785721 0.68492136,0.33417181 0.7175587 0.61109633,
  0.84667038 -0.49792009 0.18768285,0.075210067 0.9592578 0.27233786,
  0.87506237 -0.018678316 0.48364963,0.60982162 0.49827183 0.61631387,
  0.23206568 0.88576638 0.40194955,0.92154598 -0.25762969 0.29048228,
  -0.0041106221 0.99996719 0.0069806084,0.8355138 0.25785721 0.48520752,
  0.49711681 0.7049862 0.50583528,0.12057139 0.97181994 0.20255505,
  0.97201715 -0.026072962 0.23345849,-0.069248847 0.9675271 -0.24309648,
  0.7485975 0.47624 0.46129952,0.35104098 0.86402605 0.36087284,
  0.01118404 0.99957285 0.027000662,0.94314582 0.21589581 0.25271516,
  -0.12965653 0.86927191 -0.47702781,0.63961369 0.67418526 0.36928114,
  0.18150219 0.96463324 0.19115353,-0.121908 0.97240284 -0.198925,
  0.84277135 0.48155506 0.24050193,-0.17195397 0.69900069 -0.69413966,
  0.46719547 0.84200427 0.26973543,-0.01030304 0.99992724 -0.0062740243,
  -0.22716482 0.88038795 -0.41630902,0.68662461 0.7049862 0.17759815,
  -0.2491676 0.47856605 -0.84195608,0.2457535 0.9592578 0.1393904,
  -0.20525038 0.95958768 -0.19251952,-0.35518436 0.72546191 -0.58953294,
  0.48804554 0.86402605 0.12357399,-0.22243872 0.28596648 -0.93206448,
  0.0020293867 0.99996719 0.0078426843,-0.35405514 0.86056024 -0.36617075,
  -0.43058673 0.50429314 -0.74852087,0.27934106 0.95809306 0.063452872,
  -0.19755428 0.97310075 -0.11852105,-0.52499327 0.6900481 -0.49821249,
  -0.46827766 0.24359659 -0.849339,0.024205893 0.99966934 0.0086763885,
  -0.39628812 0.8891612 -0.22879705,-0.6096463 0.50429314 -0.6115716,
  -0.25949964 0.9630156 -0.072531976,-0.60236515 0.72546191 -0.33295832,
  -0.65866982 0.28596648 -0.69597215,-0.49859075 0.8540354 -0.14842777,
  -0.74715948 0.50429314 -0.43294473,-0.6670972 0.72759838 -0.15994351,
  -0.8135329 0.26129162 -0.51951026,-0.81250235 0.5407796 -0.21770935,
  -0.93195514 0.26287113 -0.24971663] }
}
}
DEF SHAPE_12 Shape {
 appearance USE APP_3
 geometry DEF FACE_12 IndexedFaceSet {
  coord DEF COORD_12 Coordinate { point [
  0.25590551 0 -0.98425197,0.25590551 0 0.70866142,
  0.25590551 0 0.70866142,0.24718574 0.06623322 0.70866142,
  0.22162067 0.12795276 0.70866142,0.18095252 0.18095252 0.70866142,
  0.12795276 0.22162067 0.70866142,0.06623322 0.24718574 0.70866142,
  0 0.25590551 0.70866142,-0.06623322 0.24718574 0.70866142,
  -0.12795276 0.22162067 0.70866142,-0.18095252 0.18095252 0.70866142,
  -0.22162067 0.12795276 0.70866142,-0.24718574 0.06623322 0.70866142,
  -0.25590551 0 0.70866142,-0.24718574 -0.06623322 0.70866142,
  -0.22162067 -0.12795276 0.70866142,-0.18095252 -0.18095252 0.70866142,
  -0.12795276 -0.22162067 0.70866142,-0.06623322 -0.24718574 0.70866142,
  0 -0.25590551 0.70866142,0.06623322 -0.24718574 0.70866142,
  0.12795276 -0.22162067 0.70866142,0.18095252 -0.18095252 0.70866142,
  0.22162067 -0.12795276 0.70866142,0.24718574 -0.06623322 0.70866142,
  0.25590551 0 -0.98425197,0.24718574 0.06623322 -0.98425197,
  0.22162067 0.12795276 -0.98425197,0.18095252 0.18095252 -0.98425197,
  0.12795276 0.22162067 -0.98425197,0.06623322 0.24718574 -0.98425197,
  0 0.25590551 -0.98425197,-0.06623322 0.24718574 -0.98425197,
  -0.12795276 0.22162067 -0.98425197,-0.18095252 0.18095252 -0.98425197,
  -0.22162067 0.12795276 -0.98425197,-0.24718574 0.06623322 -0.98425197,
  -0.25590551 0 -0.98425197,-0.24718574 -0.06623322 -0.98425197,
  -0.22162067 -0.12795276 -0.98425197,-0.18095252 -0.18095252 -0.98425197,
  -0.12795276 -0.22162067 -0.98425197,-0.06623322 -0.24718574 -0.98425197,
  0 -0.25590551 -0.98425197,0.06623322 -0.24718574 -0.98425197,
  0.12795276 -0.22162067 -0.98425197,0.18095252 -0.18095252 -0.98425197,
  0.22162067 -0.12795276 -0.98425197,0.24718574 -0.06623322 -0.98425197] }
 coordIndex [
  3,2,26,-1,3,26,27,-1,4,27,28,-1,4,3,27,-1,5,28,29,-1,5,4,28,-1,6,29,30,-1,6,5,29,-1,
  7,30,31,-1,7,31,32,-1,7,6,30,-1,8,32,33,-1,8,7,32,-1,9,8,33,-1,10,33,34,-1,10,9,33,-1,
  11,34,35,-1,11,35,36,-1,11,10,34,-1,12,11,36,-1,13,36,37,-1,13,12,36,-1,14,13,37,-1,14,37,38,-1,
  15,14,38,-1,15,38,39,-1,16,15,39,-1,16,39,40,-1,17,16,40,-1,17,40,41,-1,17,41,42,-1,18,17,42,-1,
  18,42,43,-1,19,18,43,-1,20,19,43,-1,20,43,44,-1,21,20,44,-1,21,44,45,-1,22,21,45,-1,22,45,46,-1,
  23,22,46,-1,23,46,47,-1,23,47,48,-1,24,23,48,-1,25,24,48,-1,25,48,49,-1,25,49,0,-1,1,25,0,-1]
  normalPerVertex TRUE
  normal DEF NORM_12 Normal { vector [
  0.99144486 -0.13052619 0,0.99144486 -0.13052619 0,
  0.99144486 0.13052619 0,0.9763442 0.21622209 0,
  0.88711369 0.46155098 0,0.73742784 0.67542593 0,
  0.5374875 0.84327172 0,0.25881905 0.96592583 0,
  -0.04384197 0.99903848 0,-0.25881905 0.96592583 0,
  -0.46155098 0.88711369 0,-0.70710678 0.70710678 0,
  -0.8660254 0.5 0,-0.95364993 0.30091828 0,
  -0.99903848 0.04384197 0,-0.9763442 -0.21622209 0,
  -0.88711369 -0.46155098 0,-0.70710678 -0.70710678 0,
  -0.46155098 -0.88711369 0,-0.25881905 -0.96592583 0,
  -0.04384197 -0.99903848 0,0.21622209 -0.9763442 0,
  0.46155098 -0.88711369 0,0.70710678 -0.70710678 0,
  0.8660254 -0.5 0,0.96592583 -0.25881905 0,
  0.99144486 0.13052619 0,0.95364993 0.30091828 0,
  0.84327172 0.5374875 0,0.67542593 0.73742784 0,
  0.46155098 0.88711369 0,0.25881905 0.96592583 0,
  0.04384197 0.99903848 0,-0.25881905 0.96592583 0,
  -0.5374875 0.84327172 0,-0.70710678 0.70710678 0,
  -0.8660254 0.5 0,-0.9763442 0.21622209 0,
  -0.99903848 -0.04384197 0,-0.95364993 -0.30091828 0,
  -0.84327172 -0.5374875 0,-0.70710678 -0.70710678 0,
  -0.5374875 -0.84327172 0,-0.25881905 -0.96592583 0,
  0.04384197 -0.99903848 0,0.30091828 -0.95364993 0,
  0.5374875 -0.84327172 0,0.70710678 -0.70710678 0,
  0.8660254 -0.5 0,0.96592583 -0.25881905 0] }
}
}
DEF SHAPE_13 Shape {
 appearance USE APP_3
 geometry DEF FACE_13 IndexedFaceSet {
  coord DEF COORD_13 Coordinate { point [
  5.7440945 0 0.70866142,5.7440945 0 -0.98425197,
  5.7440945 0 -0.98425197,5.7528143 0.06623322 -0.98425197,
  5.7783793 0.12795276 -0.98425197,5.8190475 0.18095252 -0.98425197,
  5.8720472 0.22162067 -0.98425197,5.9337668 0.24718574 -0.98425197,
  6 0.25590551 -0.98425197,6.0662332 0.24718574 -0.98425197,
  6.1279528 0.22162067 -0.98425197,6.1809525 0.18095252 -0.98425197,
  6.2216207 0.12795276 -0.98425197,6.2471857 0.06623322 -0.98425197,
  6.2559055 0 -0.98425197,6.2471857 -0.06623322 -0.98425197,
  6.2216207 -0.12795276 -0.98425197,6.1809525 -0.18095252 -0.98425197,
  6.1279528 -0.22162067 -0.98425197,6.0662332 -0.24718574 -0.98425197,
  6 -0.25590551 -0.98425197,5.9337668 -0.24718574 -0.98425197,
  5.8720472 -0.22162067 -0.98425197,5.8190475 -0.18095252 -0.98425197,
  5.7783793 -0.12795276 -0.98425197,5.7528143 -0.06623322 -0.98425197,
  5.7440945 0 0.70866142,5.7528143 -0.06623322 0.70866142,
  5.7783793 -0.12795276 0.70866142,5.8190475 -0.18095252 0.70866142,
  5.8720472 -0.22162067 0.70866142,5.9337668 -0.24718574 0.70866142,
  6 -0.25590551 0.70866142,6.0662332 -0.24718574 0.70866142,
  6.1279528 -0.22162067 0.70866142,6.1809525 -0.18095252 0.70866142,
  6.2216207 -0.12795276 0.70866142,6.2471857 -0.06623322 0.70866142,
  6.2559055 0 0.70866142,6.2471857 0.06623322 0.70866142,
  6.2216207 0.12795276 0.70866142,6.1809525 0.18095252 0.70866142,
  6.1279528 0.22162067 0.70866142,6.0662332 0.24718574 0.70866142,
  6 0.25590551 0.70866142,5.9337668 0.24718574 0.70866142,
  5.8720472 0.22162067 0.70866142,5.8190475 0.18095252 0.70866142,
  5.7783793 0.12795276 0.70866142,5.7528143 0.06623322 0.70866142] }
 coordIndex [
  3,2,26,-1,3,26,49,-1,4,49,48,-1,4,3,49,-1,5,48,47,-1,5,4,48,-1,6,47,46,-1,6,5,47,-1,
  7,46,45,-1,7,6,46,-1,8,45,44,-1,8,7,45,-1,9,44,43,-1,9,8,44,-1,10,43,42,-1,10,9,43,-1,
  11,42,41,-1,11,10,42,-1,12,41,40,-1,12,11,41,-1,13,40,39,-1,13,12,40,-1,14,13,39,-1,14,39,38,-1,
  15,14,38,-1,15,38,37,-1,16,15,37,-1,16,37,36,-1,17,16,36,-1,17,35,34,-1,17,36,35,-1,18,17,34,-1,
  18,34,33,-1,19,18,33,-1,20,19,33,-1,20,33,32,-1,21,20,32,-1,21,32,31,-1,22,21,31,-1,22,31,30,-1,
  23,29,28,-1,23,30,29,-1,23,22,30,-1,24,23,28,-1,25,27,0,-1,25,28,27,-1,25,24,28,-1,1,25,0,-1]
  normalPerVertex TRUE
  normal DEF NORM_13 Normal { vector [
  -0.99144486 -0.13052619 0,-0.99144486 -0.13052619 0,
  -0.99144486 0.13052619 0,-0.9763442 0.21622209 0,
  -0.88711369 0.46155098 0,-0.73742784 0.67542593 0,
  -0.5374875 0.84327172 0,-0.30091828 0.95364993 0,
  -0.04384197 0.99903848 0,0.21622209 0.9763442 0,
  0.46155098 0.88711369 0,0.67542593 0.73742784 0,
  0.84327172 0.5374875 0,0.95364993 0.30091828 0,
  0.99903848 0.04384197 0,0.9763442 -0.21622209 0,
  0.88711369 -0.46155098 0,0.70710678 -0.70710678 0,
  0.46155098 -0.88711369 0,0.25881905 -0.96592583 0,
  0.04384197 -0.99903848 0,-0.21622209 -0.9763442 0,
  -0.46155098 -0.88711369 0,-0.70710678 -0.70710678 0,
  -0.8660254 -0.5 0,-0.96592583 -0.25881905 0,
  -0.99144486 0.13052619 0,-0.96592583 -0.25881905 0,
  -0.8660254 -0.5 0,-0.70710678 -0.70710678 0,
  -0.5374875 -0.84327172 0,-0.30091828 -0.95364993 0,
  -0.04384197 -0.99903848 0,0.25881905 -0.96592583 0,
  0.5374875 -0.84327172 0,0.70710678 -0.70710678 0,
  0.84327172 -0.5374875 0,0.95364993 -0.30091828 0,
  0.99903848 -0.04384197 0,0.9763442 0.21622209 0,
  0.88711369 0.46155098 0,0.73742784 0.67542593 0,
  0.5374875 0.84327172 0,0.30091828 0.95364993 0,
  0.04384197 0.99903848 0,-0.21622209 0.9763442 0,
  -0.46155098 0.88711369 0,-0.67542593 0.73742784 0,
  -0.84327172 0.5374875 0,-0.95364993 0.30091828 0] }
}
}
DEF SHAPE_14 Shape {
 appearance USE APP_3
 geometry DEF FACE_14 IndexedFaceSet {
  coord DEF COORD_14 Coordinate { point [
  0.25590551 0 -0.98425197,0.24718574 0.06623322 -0.98425197,
  0.22162067 0.12795276 -0.98425197,0.18095252 0.18095252 -0.98425197,
  0.12795276 0.22162067 -0.98425197,0.06623322 0.24718574 -0.98425197,
  0 0.25590551 -0.98425197,-0.06623322 0.24718574 -0.98425197,
  -0.12795276 0.22162067 -0.98425197,-0.18095252 0.18095252 -0.98425197,
  -0.22162067 0.12795276 -0.98425197,-0.24718574 0.06623322 -0.98425197,
  -0.25590551 0 -0.98425197,-0.24718574 -0.06623322 -0.98425197,
  -0.22162067 -0.12795276 -0.98425197,-0.18095252 -0.18095252 -0.98425197,
  -0.12795276 -0.22162067 -0.98425197,-0.06623322 -0.24718574 -0.98425197,
  0 -0.25590551 -0.98425197,0.06623322 -0.24718574 -0.98425197,
  0.12795276 -0.22162067 -0.98425197,0.18095252 -0.18095252 -0.98425197,
  0.22162067 -0.12795276 -0.98425197,0.24718574 -0.06623322 -0.98425197] }
 coordIndex [
  15,17,16,-1,15,18,17,-1,13,15,14,-1,12,15,13,-1,9,1,0,-1,9,2,1,-1,9,3,2,-1,9,4,3,-1,
  9,5,4,-1,9,6,5,-1,9,7,6,-1,9,8,7,-1,9,11,10,-1,9,12,11,-1,9,19,18,-1,9,20,19,-1,
  9,21,20,-1,9,22,21,-1,9,23,22,-1,9,0,23,-1,9,18,15,-1,9,15,12,-1]
  normalPerVertex TRUE
  normal DEF NORM_14 Normal { vector [
  0 0 -1,0 0 -1,
  0 0 -1,0 0 -1,
  0 0 -1,0 0 -1,
  0 0 -1,0 0 -1,
  0 0 -1,0 0 -1,
  0 0 -1,0 0 -1,
  0 0 -1,0 0 -1,
  0 0 -1,0 0 -1,
  0 0 -1,0 0 -1,
  0 0 -1,0 0 -1,
  0 0 -1,0 0 -1,
  0 0 -1,0 0 -1] }
}
}
DEF SHAPE_15 Shape {
 appearance USE APP_3
 geometry DEF FACE_15 IndexedFaceSet {
  coord DEF COORD_15 Coordinate { point [
  5.7440945 0 -0.98425197,5.7528143 0.06623322 -0.98425197,
  5.7783793 0.12795276 -0.98425197,5.8190475 0.18095252 -0.98425197,
  5.8720472 0.22162067 -0.98425197,5.9337668 0.24718574 -0.98425197,
  6 0.25590551 -0.98425197,6.0662332 0.24718574 -0.98425197,
  6.1279528 0.22162067 -0.98425197,6.1809525 0.18095252 -0.98425197,
  6.2216207 0.12795276 -0.98425197,6.2471857 0.06623322 -0.98425197,
  6.2559055 0 -0.98425197,6.2471857 -0.06623322 -0.98425197,
  6.2216207 -0.12795276 -0.98425197,6.1809525 -0.18095252 -0.98425197,
  6.1279528 -0.22162067 -0.98425197,6.0662332 -0.24718574 -0.98425197,
  6 -0.25590551 -0.98425197,5.9337668 -0.24718574 -0.98425197,
  5.8720472 -0.22162067 -0.98425197,5.8190475 -0.18095252 -0.98425197,
  5.7783793 -0.12795276 -0.98425197,5.7528143 -0.06623322 -0.98425197] }
 coordIndex [
  3,1,2,-1,14,15,16,-1,14,16,17,-1,12,13,14,-1,9,0,1,-1,9,3,4,-1,9,4,5,-1,9,5,6,-1,
  9,6,7,-1,9,7,8,-1,9,10,11,-1,9,11,12,-1,9,17,18,-1,9,18,19,-1,9,19,20,-1,9,20,21,-1,
  9,21,22,-1,9,22,23,-1,9,23,0,-1,9,1,3,-1,9,12,14,-1,9,14,17,-1]
  normalPerVertex TRUE
  normal DEF NORM_15 Normal { vector [
  0 0 -1,0 0 -1,
  0 0 -1,0 0 -1,
  0 0 -1,0 0 -1,
  0 0 -1,0 0 -1,
  0 0 -1,0 0 -1,
  0 0 -1,0 0 -1,
  0 0 -1,0 0 -1,
  0 0 -1,0 0 -1,
  0 0 -1,0 0 -1,
  0 0 -1,0 0 -1,
  0 0 -1,0 0 -1,
  0 0 -1,0 0 -1] }
}
}
] }
] }
] }
