%TF.GenerationSoftware,KiCad,Pcbnew,9.0.6*%
%TF.CreationDate,2026-01-20T22:08:00+00:00*%
%TF.ProjectId,ZX Interposer,5a582049-6e74-4657-9270-6f7365722e6b,1.0*%
%TF.SameCoordinates,Original*%
%TF.FileFunction,Paste,Top*%
%TF.FilePolarity,Positive*%
%FSLAX46Y46*%
G04 Gerber Fmt 4.6, Leading zero omitted, Abs format (unit mm)*
G04 Created by KiCad (PCBNEW 9.0.6) date 2026-01-20 22:08:00*
%MOMM*%
%LPD*%
G01*
G04 APERTURE LIST*
%ADD10R,7.620000X1.524000*%
G04 APERTURE END LIST*
D10*
%TO.C,SK1*%
X81500000Y-68961000D03*
X81500000Y-71501000D03*
X81500000Y-74041000D03*
X81500000Y-76581000D03*
X81500000Y-81661000D03*
X81500000Y-84201000D03*
X81500000Y-86741000D03*
X81500000Y-89281000D03*
X81500000Y-91821000D03*
X81500000Y-94361000D03*
X81500000Y-96901000D03*
X81500000Y-99441000D03*
X81500000Y-101981000D03*
X81500000Y-104521000D03*
X81500000Y-107061000D03*
X81500000Y-109601000D03*
X81500000Y-112141000D03*
X81500000Y-114681000D03*
X81500000Y-117221000D03*
X81500000Y-119761000D03*
X81500000Y-122301000D03*
X81500000Y-124841000D03*
X81500000Y-127381000D03*
X81500000Y-129921000D03*
X81500000Y-132461000D03*
X81500000Y-135001000D03*
X81500000Y-137541000D03*
%TD*%
%TO.C,SK2*%
X172650000Y-68961000D03*
X172650000Y-71501000D03*
X172650000Y-74041000D03*
X172650000Y-76581000D03*
X172650000Y-81661000D03*
X172650000Y-84201000D03*
X172650000Y-86741000D03*
X172650000Y-89281000D03*
X172650000Y-91821000D03*
X172650000Y-94361000D03*
X172650000Y-96901000D03*
X172650000Y-99441000D03*
X172650000Y-101981000D03*
X172650000Y-104521000D03*
X172650000Y-107061000D03*
X172650000Y-109601000D03*
X172650000Y-112141000D03*
X172650000Y-114681000D03*
X172650000Y-117221000D03*
X172650000Y-119761000D03*
X172650000Y-122301000D03*
X172650000Y-124841000D03*
X172650000Y-127381000D03*
X172650000Y-129921000D03*
X172650000Y-132461000D03*
X172650000Y-135001000D03*
X172650000Y-137541000D03*
%TD*%
M02*
