M48
METRIC
T1C0.300
T2C1.000
T3C1.020
T4C1.600
%
G90
G05
T1
X86.5Y-80.4
X86.6Y-72.9
X87.8Y-84.6
X89.1Y-85.7
X89.4Y-120.1
X90.3Y-91.821
X90.3Y-94.0
X91.0Y-87.2
X91.4Y-96.101
X92.1Y-139.8
X93.3Y-88.056
X93.6Y-74.6
X94.5Y-70.801
X98.5Y-105.1
X98.9Y-78.8
X103.493Y-77.907
X107.51Y-48.99
X108.4Y-112.141
X110.8Y-65.8
X111.0Y-108.544
X113.7Y-106.822
X116.1Y-92.7
X117.4Y-131.1
X118.6Y-95.3
X118.8Y-113.9
X121.3Y-97.701
X122.6Y-129.921
X125.9Y-96.901
X126.4Y-126.4
X127.5Y-127.7
X127.8Y-140.0
X128.8Y-102.1
X129.0Y-124.1
X131.2Y-104.2
X131.4Y-122.2
X134.0Y-117.8
X136.4Y-118.7
X136.4Y-132.461
X138.7Y-107.7
X138.9Y-133.6
X141.6Y-106.0
X141.6Y-135.001
X143.9Y-114.8
X144.1Y-136.1
X146.7Y-113.1
X158.3Y-89.8
X159.6Y-98.501
X160.2Y-100.7
X160.3Y-82.6
X160.3Y-99.8
X161.4Y-69.8
X162.6Y-72.2
X163.0Y-120.5
X163.2Y-139.8
X163.8Y-68.961
X165.4Y-48.8
X165.4Y-78.7
X166.1Y-86.4
X166.5Y-115.9
X166.8Y-110.5
X167.2Y-128.9
X167.7Y-67.9
T2
X84.836Y-47.35
X84.836Y-51.85
X91.336Y-47.35
X91.336Y-51.85
T3
X95.79Y-90.0
X95.79Y-100.0
X95.79Y-110.0
X95.79Y-120.0
X98.33Y-90.0
X98.33Y-100.0
X98.33Y-110.0
X98.33Y-120.0
X100.87Y-90.0
X100.87Y-100.0
X100.87Y-110.0
X100.87Y-120.0
X103.41Y-90.0
X103.41Y-100.0
X103.41Y-110.0
X103.41Y-120.0
X105.95Y-90.0
X105.95Y-100.0
X105.95Y-110.0
X105.95Y-120.0
X107.95Y-53.73
X107.95Y-56.27
X107.95Y-73.73
X107.95Y-76.27
X108.49Y-90.0
X108.49Y-100.0
X108.49Y-110.0
X108.49Y-120.0
X110.49Y-53.73
X110.49Y-56.27
X110.49Y-73.73
X110.49Y-76.27
X111.03Y-90.0
X111.03Y-100.0
X111.03Y-110.0
X111.03Y-120.0
X113.03Y-53.73
X113.03Y-56.27
X113.03Y-73.73
X113.03Y-76.27
X113.57Y-90.0
X113.57Y-100.0
X113.57Y-110.0
X113.57Y-120.0
X115.57Y-53.73
X115.57Y-56.27
X115.57Y-73.73
X115.57Y-76.27
X116.11Y-90.0
X116.11Y-100.0
X116.11Y-110.0
X116.11Y-120.0
X118.11Y-53.73
X118.11Y-56.27
X118.11Y-73.73
X118.11Y-76.27
X118.65Y-90.0
X118.65Y-100.0
X118.65Y-110.0
X118.65Y-120.0
X120.65Y-53.73
X120.65Y-56.27
X120.65Y-73.73
X120.65Y-76.27
X121.19Y-90.0
X121.19Y-100.0
X121.19Y-110.0
X121.19Y-120.0
X123.19Y-53.73
X123.19Y-56.27
X123.19Y-73.73
X123.19Y-76.27
X123.73Y-90.0
X123.73Y-100.0
X123.73Y-110.0
X123.73Y-120.0
X125.73Y-53.73
X125.73Y-56.27
X125.73Y-73.73
X125.73Y-76.27
X126.27Y-90.0
X126.27Y-100.0
X126.27Y-110.0
X126.27Y-120.0
X128.27Y-53.73
X128.27Y-56.27
X128.27Y-73.73
X128.27Y-76.27
X128.81Y-90.0
X128.81Y-100.0
X128.81Y-110.0
X128.81Y-120.0
X130.81Y-53.73
X130.81Y-56.27
X130.81Y-73.73
X130.81Y-76.27
X131.35Y-90.0
X131.35Y-100.0
X131.35Y-110.0
X131.35Y-120.0
X133.35Y-53.73
X133.35Y-56.27
X133.35Y-73.73
X133.35Y-76.27
X133.89Y-90.0
X133.89Y-100.0
X133.89Y-110.0
X133.89Y-120.0
X135.89Y-53.73
X135.89Y-56.27
X135.89Y-73.73
X135.89Y-76.27
X136.43Y-90.0
X136.43Y-100.0
X136.43Y-110.0
X136.43Y-120.0
X138.43Y-53.73
X138.43Y-56.27
X138.43Y-73.73
X138.43Y-76.27
X138.97Y-90.0
X138.97Y-100.0
X138.97Y-110.0
X138.97Y-120.0
X140.97Y-53.73
X140.97Y-56.27
X140.97Y-73.73
X140.97Y-76.27
X141.51Y-90.0
X141.51Y-100.0
X141.51Y-110.0
X141.51Y-120.0
X143.51Y-53.73
X143.51Y-56.27
X143.51Y-73.73
X143.51Y-76.27
X144.05Y-90.0
X144.05Y-100.0
X144.05Y-110.0
X144.05Y-120.0
X146.05Y-53.73
X146.05Y-56.27
X146.05Y-73.73
X146.05Y-76.27
X146.59Y-90.0
X146.59Y-100.0
X146.59Y-110.0
X146.59Y-120.0
X149.13Y-90.0
X149.13Y-100.0
X149.13Y-110.0
X149.13Y-120.0
X151.67Y-90.0
X151.67Y-100.0
X151.67Y-110.0
X151.67Y-120.0
X154.21Y-90.0
X154.21Y-100.0
X154.21Y-110.0
X154.21Y-120.0
T4
X97.882Y-62.2
X113.122Y-62.2
M30
