%TF.GenerationSoftware,KiCad,Pcbnew,9.0.6*%
%TF.CreationDate,2026-01-20T22:08:00+00:00*%
%TF.ProjectId,ZX Interposer,5a582049-6e74-4657-9270-6f7365722e6b,1.0*%
%TF.SameCoordinates,Original*%
%TF.FileFunction,Copper,L4,Bot*%
%TF.FilePolarity,Positive*%
%FSLAX46Y46*%
G04 Gerber Fmt 4.6, Leading zero omitted, Abs format (unit mm)*
G04 Created by KiCad (PCBNEW 9.0.6) date 2026-01-20 22:08:00*
%MOMM*%
%LPD*%
G01*
G04 APERTURE LIST*
G04 Aperture macros list*
%AMRoundRect*
0 Rectangle with rounded corners*
0 $1 Rounding radius*
0 $2 $3 $4 $5 $6 $7 $8 $9 X,Y pos of 4 corners*
0 Add a 4 corners polygon primitive as box body*
4,1,4,$2,$3,$4,$5,$6,$7,$8,$9,$2,$3,0*
0 Add four circle primitives for the rounded corners*
1,1,$1+$1,$2,$3*
1,1,$1+$1,$4,$5*
1,1,$1+$1,$6,$7*
1,1,$1+$1,$8,$9*
0 Add four rect primitives between the rounded corners*
20,1,$1+$1,$2,$3,$4,$5,0*
20,1,$1+$1,$4,$5,$6,$7,0*
20,1,$1+$1,$6,$7,$8,$9,0*
20,1,$1+$1,$8,$9,$2,$3,0*%
G04 Aperture macros list end*
%TA.AperFunction,Conductor*%
%ADD10C,0.000000*%
%TD*%
%TA.AperFunction,Conductor*%
%ADD11C,1.000000*%
%TD*%
%TA.AperFunction,NonConductor*%
%ADD12C,0.300000*%
%TD*%
%TA.AperFunction,Conductor*%
%ADD13C,1.600000*%
%TD*%
%TA.AperFunction,SMDPad,CuDef*%
%ADD14R,7.620000X1.524000*%
%TD*%
%TA.AperFunction,ComponentPad*%
%ADD15R,1.530000X1.530000*%
%TD*%
%TA.AperFunction,ComponentPad*%
%ADD16C,1.530000*%
%TD*%
%TA.AperFunction,ComponentPad*%
%ADD17R,1.370000X1.370000*%
%TD*%
%TA.AperFunction,ComponentPad*%
%ADD18C,1.370000*%
%TD*%
%TA.AperFunction,ComponentPad*%
%ADD19O,2.055000X1.500000*%
%TD*%
%TA.AperFunction,ComponentPad*%
%ADD20RoundRect,0.250000X1.350000X1.350000X-1.350000X1.350000X-1.350000X-1.350000X1.350000X-1.350000X0*%
%TD*%
%TA.AperFunction,ComponentPad*%
%ADD21C,3.200000*%
%TD*%
%TA.AperFunction,ViaPad*%
%ADD22C,0.600000*%
%TD*%
%TA.AperFunction,Conductor*%
%ADD23C,2.000000*%
%TD*%
%TA.AperFunction,Conductor*%
%ADD24C,0.600000*%
%TD*%
%TA.AperFunction,Conductor*%
%ADD25C,0.200000*%
%TD*%
G04 APERTURE END LIST*
D10*
%TA.AperFunction,Conductor*%
%TO.N,CLOCK*%
G36*
X85000000Y-87741000D02*
G01*
X77380000Y-87741000D01*
X77380000Y-85741000D01*
X85000000Y-85741000D01*
X85000000Y-87741000D01*
G37*
%TD.AperFunction*%
%TA.AperFunction,Conductor*%
%TO.N,A3*%
G36*
X176460000Y-97901000D02*
G01*
X168840000Y-97901000D01*
X168840000Y-95901000D01*
X176460000Y-95901000D01*
X176460000Y-97901000D01*
G37*
%TD.AperFunction*%
%TA.AperFunction,Conductor*%
%TO.N,{slash}ROMCS*%
G36*
X176460000Y-130921000D02*
G01*
X168840000Y-130921000D01*
X168840000Y-128921000D01*
X176460000Y-128921000D01*
X176460000Y-130921000D01*
G37*
%TD.AperFunction*%
%TA.AperFunction,Conductor*%
%TO.N,{slash}BUSACK*%
G36*
X85000000Y-133461000D02*
G01*
X77380000Y-133461000D01*
X77380000Y-131461000D01*
X85000000Y-131461000D01*
X85000000Y-133461000D01*
G37*
%TD.AperFunction*%
%TA.AperFunction,Conductor*%
%TO.N,A2*%
G36*
X85000000Y-95361000D02*
G01*
X77380000Y-95361000D01*
X77380000Y-93361000D01*
X85000000Y-93361000D01*
X85000000Y-95361000D01*
G37*
%TD.AperFunction*%
%TA.AperFunction,Conductor*%
%TO.N,A5*%
G36*
X176460000Y-125841000D02*
G01*
X168840000Y-125841000D01*
X168840000Y-123841000D01*
X176460000Y-123841000D01*
X176460000Y-125841000D01*
G37*
%TD.AperFunction*%
%TO.N,RESET*%
D11*
X92096490Y-47610000D02*
G75*
G02*
X91096490Y-47610000I-500000J0D01*
G01*
X91096490Y-47610000D02*
G75*
G02*
X92096490Y-47610000I500000J0D01*
G01*
D10*
%TA.AperFunction,Conductor*%
%TO.N,Y-{slash}DRD*%
G36*
X85000000Y-108061000D02*
G01*
X77380000Y-108061000D01*
X77380000Y-106061000D01*
X85000000Y-106061000D01*
X85000000Y-108061000D01*
G37*
%TD.AperFunction*%
%TA.AperFunction,Conductor*%
%TO.N,A9*%
G36*
X85000000Y-136001000D02*
G01*
X77380000Y-136001000D01*
X77380000Y-134001000D01*
X85000000Y-134001000D01*
X85000000Y-136001000D01*
G37*
%TD.AperFunction*%
%TA.AperFunction,Conductor*%
%TO.N,{slash}ROMCS*%
G36*
X85000000Y-130921000D02*
G01*
X77380000Y-130921000D01*
X77380000Y-128921000D01*
X85000000Y-128921000D01*
X85000000Y-130921000D01*
G37*
%TD.AperFunction*%
%TA.AperFunction,Conductor*%
%TO.N,RESET*%
G36*
X85000000Y-118221000D02*
G01*
X77380000Y-118221000D01*
X77380000Y-116221000D01*
X85000000Y-116221000D01*
X85000000Y-118221000D01*
G37*
%TD.AperFunction*%
%TA.AperFunction,Conductor*%
%TO.N,Y-{slash}DRD*%
G36*
X176460000Y-108061000D02*
G01*
X168840000Y-108061000D01*
X168840000Y-106061000D01*
X176460000Y-106061000D01*
X176460000Y-108061000D01*
G37*
%TD.AperFunction*%
%TA.AperFunction,Conductor*%
%TO.N,A12*%
G36*
X85000000Y-72501000D02*
G01*
X77380000Y-72501000D01*
X77380000Y-70501000D01*
X85000000Y-70501000D01*
X85000000Y-72501000D01*
G37*
%TD.AperFunction*%
%TA.AperFunction,Conductor*%
%TO.N,A0*%
G36*
X176460000Y-90281000D02*
G01*
X168840000Y-90281000D01*
X168840000Y-88281000D01*
X176460000Y-88281000D01*
X176460000Y-90281000D01*
G37*
%TD.AperFunction*%
%TA.AperFunction,Conductor*%
%TO.N,A2*%
G36*
X176460000Y-95361000D02*
G01*
X168840000Y-95361000D01*
X168840000Y-93361000D01*
X176460000Y-93361000D01*
X176460000Y-95361000D01*
G37*
%TD.AperFunction*%
%TA.AperFunction,Conductor*%
%TO.N,POWER5V*%
G36*
X111521790Y-60600000D02*
G01*
X114721790Y-60600000D01*
X114721790Y-63800000D01*
X111521790Y-63800000D01*
X111521790Y-60600000D01*
G37*
%TD.AperFunction*%
%TA.AperFunction,Conductor*%
%TO.N,A3*%
G36*
X85000000Y-97901000D02*
G01*
X77380000Y-97901000D01*
X77380000Y-95901000D01*
X85000000Y-95901000D01*
X85000000Y-97901000D01*
G37*
%TD.AperFunction*%
%TA.AperFunction,Conductor*%
%TO.N,GND*%
G36*
X176460000Y-85201000D02*
G01*
X168840000Y-85201000D01*
X168840000Y-83201000D01*
X176460000Y-83201000D01*
X176460000Y-85201000D01*
G37*
%TD.AperFunction*%
%TA.AperFunction,Conductor*%
%TO.N,V-{slash}DWR*%
G36*
X85000000Y-110601000D02*
G01*
X77380000Y-110601000D01*
X77380000Y-108601000D01*
X85000000Y-108601000D01*
X85000000Y-110601000D01*
G37*
%TD.AperFunction*%
%TA.AperFunction,Conductor*%
%TO.N,U-{slash}MTR*%
G36*
X85000000Y-113141000D02*
G01*
X77380000Y-113141000D01*
X77380000Y-111141000D01*
X85000000Y-111141000D01*
X85000000Y-113141000D01*
G37*
%TD.AperFunction*%
D12*
X109160790Y-64849000D02*
G75*
G02*
X108860790Y-64849000I-150000J0D01*
G01*
X108860790Y-64849000D02*
G75*
G02*
X109160790Y-64849000I150000J0D01*
G01*
D10*
%TA.AperFunction,Conductor*%
%TO.N,A4*%
G36*
X85000000Y-128381000D02*
G01*
X77380000Y-128381000D01*
X77380000Y-126381000D01*
X85000000Y-126381000D01*
X85000000Y-128381000D01*
G37*
%TD.AperFunction*%
%TO.N,RESET*%
D11*
X85596490Y-47610000D02*
G75*
G02*
X84596490Y-47610000I-500000J0D01*
G01*
X84596490Y-47610000D02*
G75*
G02*
X85596490Y-47610000I500000J0D01*
G01*
D10*
%TA.AperFunction,Conductor*%
%TO.N,{slash}IORQGE*%
G36*
X85000000Y-100441000D02*
G01*
X77380000Y-100441000D01*
X77380000Y-98441000D01*
X85000000Y-98441000D01*
X85000000Y-100441000D01*
G37*
%TD.AperFunction*%
%TA.AperFunction,Conductor*%
%TO.N,A6*%
G36*
X176460000Y-123301000D02*
G01*
X168840000Y-123301000D01*
X168840000Y-121301000D01*
X176460000Y-121301000D01*
X176460000Y-123301000D01*
G37*
%TD.AperFunction*%
%TA.AperFunction,Conductor*%
%TO.N,GND*%
G36*
X85000000Y-102981000D02*
G01*
X77380000Y-102981000D01*
X77380000Y-100981000D01*
X85000000Y-100981000D01*
X85000000Y-102981000D01*
G37*
%TD.AperFunction*%
%TA.AperFunction,Conductor*%
%TO.N,V-{slash}DWR*%
G36*
X176460000Y-110601000D02*
G01*
X168840000Y-110601000D01*
X168840000Y-108601000D01*
X176460000Y-108601000D01*
X176460000Y-110601000D01*
G37*
%TD.AperFunction*%
%TA.AperFunction,Conductor*%
%TO.N,POWER_+9V*%
G36*
X176460000Y-77581000D02*
G01*
X168840000Y-77581000D01*
X168840000Y-75581000D01*
X176460000Y-75581000D01*
X176460000Y-77581000D01*
G37*
%TD.AperFunction*%
%TO.N,GND*%
D11*
X85596490Y-52110000D02*
G75*
G02*
X84596490Y-52110000I-500000J0D01*
G01*
X84596490Y-52110000D02*
G75*
G02*
X85596490Y-52110000I500000J0D01*
G01*
D10*
%TA.AperFunction,Conductor*%
%TO.N,U-{slash}MTR*%
G36*
X176460000Y-113141000D02*
G01*
X168840000Y-113141000D01*
X168840000Y-111141000D01*
X176460000Y-111141000D01*
X176460000Y-113141000D01*
G37*
%TD.AperFunction*%
%TA.AperFunction,Conductor*%
%TO.N,{slash}BUSRQ*%
G36*
X176460000Y-115681000D02*
G01*
X168840000Y-115681000D01*
X168840000Y-113681000D01*
X176460000Y-113681000D01*
X176460000Y-115681000D01*
G37*
%TD.AperFunction*%
%TA.AperFunction,Conductor*%
%TO.N,VIDEO-OE2*%
G36*
X85000000Y-105521000D02*
G01*
X77380000Y-105521000D01*
X77380000Y-103521000D01*
X85000000Y-103521000D01*
X85000000Y-105521000D01*
G37*
%TD.AperFunction*%
%TA.AperFunction,Conductor*%
%TO.N,A4*%
G36*
X176460000Y-128381000D02*
G01*
X168840000Y-128381000D01*
X168840000Y-126381000D01*
X176460000Y-126381000D01*
X176460000Y-128381000D01*
G37*
%TD.AperFunction*%
%TA.AperFunction,Conductor*%
%TO.N,GND*%
G36*
X85000000Y-82661000D02*
G01*
X77380000Y-82661000D01*
X77380000Y-80661000D01*
X85000000Y-80661000D01*
X85000000Y-82661000D01*
G37*
%TD.AperFunction*%
%TA.AperFunction,Conductor*%
%TO.N,A5*%
G36*
X85000000Y-125841000D02*
G01*
X77380000Y-125841000D01*
X77380000Y-123841000D01*
X85000000Y-123841000D01*
X85000000Y-125841000D01*
G37*
%TD.AperFunction*%
%TA.AperFunction,Conductor*%
%TO.N,A0*%
G36*
X85000000Y-90281000D02*
G01*
X77380000Y-90281000D01*
X77380000Y-88281000D01*
X85000000Y-88281000D01*
X85000000Y-90281000D01*
G37*
%TD.AperFunction*%
%TA.AperFunction,Conductor*%
%TO.N,A11*%
G36*
X176460000Y-138541000D02*
G01*
X168840000Y-138541000D01*
X168840000Y-136541000D01*
X176460000Y-136541000D01*
X176460000Y-138541000D01*
G37*
%TD.AperFunction*%
%TA.AperFunction,Conductor*%
%TO.N,A12*%
G36*
X176460000Y-72501000D02*
G01*
X168840000Y-72501000D01*
X168840000Y-70501000D01*
X176460000Y-70501000D01*
X176460000Y-72501000D01*
G37*
%TD.AperFunction*%
%TA.AperFunction,Conductor*%
%TO.N,A11*%
G36*
X85000000Y-138541000D02*
G01*
X77380000Y-138541000D01*
X77380000Y-136541000D01*
X85000000Y-136541000D01*
X85000000Y-138541000D01*
G37*
%TD.AperFunction*%
%TA.AperFunction,Conductor*%
%TO.N,RESET*%
G36*
X176460000Y-118221000D02*
G01*
X168840000Y-118221000D01*
X168840000Y-116221000D01*
X176460000Y-116221000D01*
X176460000Y-118221000D01*
G37*
%TD.AperFunction*%
%TA.AperFunction,Conductor*%
%TO.N,A7*%
G36*
X85000000Y-120761000D02*
G01*
X77380000Y-120761000D01*
X77380000Y-118761000D01*
X85000000Y-118761000D01*
X85000000Y-120761000D01*
G37*
%TD.AperFunction*%
%TO.N,GND*%
D11*
X92096490Y-52110000D02*
G75*
G02*
X91096490Y-52110000I-500000J0D01*
G01*
X91096490Y-52110000D02*
G75*
G02*
X92096490Y-52110000I500000J0D01*
G01*
D10*
%TA.AperFunction,Conductor*%
%TO.N,{slash}BUSACK*%
G36*
X176460000Y-133461000D02*
G01*
X168840000Y-133461000D01*
X168840000Y-131461000D01*
X176460000Y-131461000D01*
X176460000Y-133461000D01*
G37*
%TD.AperFunction*%
%TA.AperFunction,Conductor*%
%TO.N,A9*%
G36*
X176460000Y-136001000D02*
G01*
X168840000Y-136001000D01*
X168840000Y-134001000D01*
X176460000Y-134001000D01*
X176460000Y-136001000D01*
G37*
%TD.AperFunction*%
%TA.AperFunction,Conductor*%
%TO.N,POWER_+9V*%
G36*
X85000000Y-77581000D02*
G01*
X77380000Y-77581000D01*
X77380000Y-75581000D01*
X85000000Y-75581000D01*
X85000000Y-77581000D01*
G37*
%TD.AperFunction*%
%TA.AperFunction,Conductor*%
%TO.N,GND*%
G36*
X85000000Y-85201000D02*
G01*
X77380000Y-85201000D01*
X77380000Y-83201000D01*
X85000000Y-83201000D01*
X85000000Y-85201000D01*
G37*
%TD.AperFunction*%
%TA.AperFunction,Conductor*%
%TO.N,A14*%
G36*
X176460000Y-69961000D02*
G01*
X168840000Y-69961000D01*
X168840000Y-67961000D01*
X176460000Y-67961000D01*
X176460000Y-69961000D01*
G37*
%TD.AperFunction*%
%TA.AperFunction,Conductor*%
%TO.N,POWER5_VIN*%
G36*
X85000000Y-75041000D02*
G01*
X77380000Y-75041000D01*
X77380000Y-73041000D01*
X85000000Y-73041000D01*
X85000000Y-75041000D01*
G37*
%TD.AperFunction*%
%TA.AperFunction,Conductor*%
%TO.N,GND*%
G36*
X176460000Y-102981000D02*
G01*
X168840000Y-102981000D01*
X168840000Y-100981000D01*
X176460000Y-100981000D01*
X176460000Y-102981000D01*
G37*
%TD.AperFunction*%
%TA.AperFunction,Conductor*%
%TO.N,{slash}BUSRQ*%
G36*
X85000000Y-115681000D02*
G01*
X77380000Y-115681000D01*
X77380000Y-113681000D01*
X85000000Y-113681000D01*
X85000000Y-115681000D01*
G37*
%TD.AperFunction*%
%TA.AperFunction,Conductor*%
%TO.N,VIDEO-OE2*%
G36*
X176460000Y-105521000D02*
G01*
X168840000Y-105521000D01*
X168840000Y-103521000D01*
X176460000Y-103521000D01*
X176460000Y-105521000D01*
G37*
%TD.AperFunction*%
%TA.AperFunction,Conductor*%
%TO.N,A6*%
G36*
X85000000Y-123301000D02*
G01*
X77380000Y-123301000D01*
X77380000Y-121301000D01*
X85000000Y-121301000D01*
X85000000Y-123301000D01*
G37*
%TD.AperFunction*%
%TA.AperFunction,Conductor*%
%TO.N,A7*%
G36*
X176460000Y-120761000D02*
G01*
X168840000Y-120761000D01*
X168840000Y-118761000D01*
X176460000Y-118761000D01*
X176460000Y-120761000D01*
G37*
%TD.AperFunction*%
%TA.AperFunction,Conductor*%
%TO.N,CLOCK*%
G36*
X176460000Y-87741000D02*
G01*
X168840000Y-87741000D01*
X168840000Y-85741000D01*
X176460000Y-85741000D01*
X176460000Y-87741000D01*
G37*
%TD.AperFunction*%
%TA.AperFunction,Conductor*%
%TO.N,A14*%
G36*
X85000000Y-69961000D02*
G01*
X77380000Y-69961000D01*
X77380000Y-67961000D01*
X85000000Y-67961000D01*
X85000000Y-69961000D01*
G37*
%TD.AperFunction*%
%TA.AperFunction,Conductor*%
%TO.N,GND*%
G36*
X176460000Y-82661000D02*
G01*
X168840000Y-82661000D01*
X168840000Y-80661000D01*
X176460000Y-80661000D01*
X176460000Y-82661000D01*
G37*
%TD.AperFunction*%
%TO.N,POWER5_VIN*%
D13*
X98681790Y-62200000D02*
G75*
G02*
X97081790Y-62200000I-800000J0D01*
G01*
X97081790Y-62200000D02*
G75*
G02*
X98681790Y-62200000I800000J0D01*
G01*
D10*
%TA.AperFunction,Conductor*%
%TO.N,A1*%
G36*
X176460000Y-92821000D02*
G01*
X168840000Y-92821000D01*
X168840000Y-90821000D01*
X176460000Y-90821000D01*
X176460000Y-92821000D01*
G37*
%TD.AperFunction*%
%TA.AperFunction,Conductor*%
%TO.N,POWER5_VIN*%
G36*
X176460000Y-75041000D02*
G01*
X168840000Y-75041000D01*
X168840000Y-73041000D01*
X176460000Y-73041000D01*
X176460000Y-75041000D01*
G37*
%TD.AperFunction*%
%TA.AperFunction,Conductor*%
%TO.N,A1*%
G36*
X85000000Y-92821000D02*
G01*
X77380000Y-92821000D01*
X77380000Y-90821000D01*
X85000000Y-90821000D01*
X85000000Y-92821000D01*
G37*
%TD.AperFunction*%
%TA.AperFunction,Conductor*%
%TO.N,{slash}IORQGE*%
G36*
X176460000Y-100441000D02*
G01*
X168840000Y-100441000D01*
X168840000Y-98441000D01*
X176460000Y-98441000D01*
X176460000Y-100441000D01*
G37*
%TD.AperFunction*%
%TD*%
D14*
%TO.P,SK1,B1,A14*%
%TO.N,A14*%
X81500000Y-68961000D03*
%TO.P,SK1,B2,A12*%
%TO.N,A12*%
X81500000Y-71501000D03*
%TO.P,SK1,B3,+5v*%
%TO.N,POWER5_VIN*%
X81500000Y-74041000D03*
%TO.P,SK1,B4,+9V*%
%TO.N,POWER_+9V*%
X81500000Y-76581000D03*
%TO.P,SK1,B6,GND*%
%TO.N,GND*%
X81500000Y-81661000D03*
%TO.P,SK1,B7,GND*%
X81500000Y-84201000D03*
%TO.P,SK1,B8,CLK*%
%TO.N,CLOCK*%
X81500000Y-86741000D03*
%TO.P,SK1,B9,A0*%
%TO.N,A0*%
X81500000Y-89281000D03*
%TO.P,SK1,B10,A1*%
%TO.N,A1*%
X81500000Y-91821000D03*
%TO.P,SK1,B11,A2*%
%TO.N,A2*%
X81500000Y-94361000D03*
%TO.P,SK1,B12,A3*%
%TO.N,A3*%
X81500000Y-96901000D03*
%TO.P,SK1,B13,~{IORQGE}*%
%TO.N,{slash}IORQGE*%
X81500000Y-99441000D03*
%TO.P,SK1,B14,GND*%
%TO.N,GND*%
X81500000Y-101981000D03*
%TO.P,SK1,B15,VIDEO*%
%TO.N,VIDEO-OE2*%
X81500000Y-104521000D03*
%TO.P,SK1,B16,Y*%
%TO.N,Y-{slash}DRD*%
X81500000Y-107061000D03*
%TO.P,SK1,B17,V*%
%TO.N,V-{slash}DWR*%
X81500000Y-109601000D03*
%TO.P,SK1,B18,U*%
%TO.N,U-{slash}MTR*%
X81500000Y-112141000D03*
%TO.P,SK1,B19,~{BUSRQ}*%
%TO.N,{slash}BUSRQ*%
X81500000Y-114681000D03*
%TO.P,SK1,B20,~{RESET}*%
%TO.N,RESET*%
X81500000Y-117221000D03*
%TO.P,SK1,B21,A7*%
%TO.N,A7*%
X81500000Y-119761000D03*
%TO.P,SK1,B22,A6*%
%TO.N,A6*%
X81500000Y-122301000D03*
%TO.P,SK1,B23,A5*%
%TO.N,A5*%
X81500000Y-124841000D03*
%TO.P,SK1,B24,A4*%
%TO.N,A4*%
X81500000Y-127381000D03*
%TO.P,SK1,B25,~{ROMCS}*%
%TO.N,{slash}ROMCS*%
X81500000Y-129921000D03*
%TO.P,SK1,B26,~{BUSACK}*%
%TO.N,{slash}BUSACK*%
X81500000Y-132461000D03*
%TO.P,SK1,B27,A9*%
%TO.N,A9*%
X81500000Y-135001000D03*
%TO.P,SK1,B28,A11*%
%TO.N,A11*%
X81500000Y-137541000D03*
%TD*%
D15*
%TO.P,J1,01,01*%
%TO.N,GND*%
X107950000Y-53730000D03*
D16*
%TO.P,J1,02,02*%
X107950000Y-56270000D03*
%TO.P,J1,03,03*%
%TO.N,unconnected-(J1-Pad03)*%
X110490000Y-53730000D03*
%TO.P,J1,04,04*%
%TO.N,unconnected-(J1-Pad04)*%
X110490000Y-56270000D03*
%TO.P,J1,05,05*%
%TO.N,POWER5V*%
X113030000Y-53730000D03*
%TO.P,J1,06,06*%
X113030000Y-56270000D03*
%TO.P,J1,07,07*%
%TO.N,unconnected-(J1-Pad07)*%
X115570000Y-53730000D03*
%TO.P,J1,08,08*%
%TO.N,unconnected-(J1-Pad08)*%
X115570000Y-56270000D03*
%TO.P,J1,09,09*%
%TO.N,DIN12*%
X118110000Y-53730000D03*
%TO.P,J1,10,10*%
%TO.N,DIN13*%
X118110000Y-56270000D03*
%TO.P,J1,11,11*%
%TO.N,DIN11*%
X120650000Y-53730000D03*
%TO.P,J1,12,12*%
%TO.N,DIN14*%
X120650000Y-56270000D03*
%TO.P,J1,13,13*%
%TO.N,DIN10*%
X123190000Y-53730000D03*
%TO.P,J1,14,14*%
%TO.N,DIN15*%
X123190000Y-56270000D03*
%TO.P,J1,15,15*%
%TO.N,DIN9*%
X125730000Y-53730000D03*
%TO.P,J1,16,16*%
%TO.N,DIN16*%
X125730000Y-56270000D03*
%TO.P,J1,17,17*%
%TO.N,DIN8*%
X128270000Y-53730000D03*
%TO.P,J1,18,18*%
%TO.N,DIN17*%
X128270000Y-56270000D03*
%TO.P,J1,19,19*%
%TO.N,DIN7*%
X130810000Y-53730000D03*
%TO.P,J1,20,20*%
%TO.N,DIN18*%
X130810000Y-56270000D03*
%TO.P,J1,21,21*%
%TO.N,DIN6*%
X133350000Y-53730000D03*
%TO.P,J1,22,22*%
%TO.N,DIN19*%
X133350000Y-56270000D03*
%TO.P,J1,23,23*%
%TO.N,DIN5*%
X135890000Y-53730000D03*
%TO.P,J1,24,24*%
%TO.N,DIN20*%
X135890000Y-56270000D03*
%TO.P,J1,25,25*%
%TO.N,DIN4*%
X138430000Y-53730000D03*
%TO.P,J1,26,26*%
%TO.N,DIN21*%
X138430000Y-56270000D03*
%TO.P,J1,27,27*%
%TO.N,DIN3*%
X140970000Y-53730000D03*
%TO.P,J1,28,28*%
%TO.N,DIN22*%
X140970000Y-56270000D03*
%TO.P,J1,29,29*%
%TO.N,DIN2*%
X143510000Y-53730000D03*
%TO.P,J1,30,30*%
%TO.N,DIN23*%
X143510000Y-56270000D03*
%TO.P,J1,31,31*%
%TO.N,DIN1*%
X146050000Y-53730000D03*
%TO.P,J1,32,32*%
%TO.N,DIN24*%
X146050000Y-56270000D03*
%TD*%
D15*
%TO.P,J2,01,01*%
%TO.N,GND*%
X107950000Y-73730000D03*
D16*
%TO.P,J2,02,02*%
X107950000Y-76270000D03*
%TO.P,J2,03,03*%
%TO.N,unconnected-(J2-Pad03)*%
X110490000Y-73730000D03*
%TO.P,J2,04,04*%
%TO.N,unconnected-(J2-Pad04)*%
X110490000Y-76270000D03*
%TO.P,J2,05,05*%
%TO.N,POWER5V*%
X113030000Y-73730000D03*
%TO.P,J2,06,06*%
X113030000Y-76270000D03*
%TO.P,J2,07,07*%
%TO.N,unconnected-(J2-Pad07)*%
X115570000Y-73730000D03*
%TO.P,J2,08,08*%
%TO.N,unconnected-(J2-Pad08)*%
X115570000Y-76270000D03*
%TO.P,J2,09,09*%
%TO.N,DIN36*%
X118110000Y-73730000D03*
%TO.P,J2,10,10*%
%TO.N,DIN37*%
X118110000Y-76270000D03*
%TO.P,J2,11,11*%
%TO.N,DIN35*%
X120650000Y-73730000D03*
%TO.P,J2,12,12*%
%TO.N,DIN38*%
X120650000Y-76270000D03*
%TO.P,J2,13,13*%
%TO.N,DIN34*%
X123190000Y-73730000D03*
%TO.P,J2,14,14*%
%TO.N,DIN39*%
X123190000Y-76270000D03*
%TO.P,J2,15,15*%
%TO.N,DIN33*%
X125730000Y-73730000D03*
%TO.P,J2,16,16*%
%TO.N,DIN40*%
X125730000Y-76270000D03*
%TO.P,J2,17,17*%
%TO.N,DIN32*%
X128270000Y-73730000D03*
%TO.P,J2,18,18*%
%TO.N,DIN41*%
X128270000Y-76270000D03*
%TO.P,J2,19,19*%
%TO.N,DIN31*%
X130810000Y-73730000D03*
%TO.P,J2,20,20*%
%TO.N,DIN42*%
X130810000Y-76270000D03*
%TO.P,J2,21,21*%
%TO.N,DIN30*%
X133350000Y-73730000D03*
%TO.P,J2,22,22*%
%TO.N,DIN43*%
X133350000Y-76270000D03*
%TO.P,J2,23,23*%
%TO.N,DIN29*%
X135890000Y-73730000D03*
%TO.P,J2,24,24*%
%TO.N,DIN44*%
X135890000Y-76270000D03*
%TO.P,J2,25,25*%
%TO.N,DIN28*%
X138430000Y-73730000D03*
%TO.P,J2,26,26*%
%TO.N,DIN45*%
X138430000Y-76270000D03*
%TO.P,J2,27,27*%
%TO.N,DIN27*%
X140970000Y-73730000D03*
%TO.P,J2,28,28*%
%TO.N,DIN46*%
X140970000Y-76270000D03*
%TO.P,J2,29,29*%
%TO.N,DIN26*%
X143510000Y-73730000D03*
%TO.P,J2,30,30*%
%TO.N,DIN47*%
X143510000Y-76270000D03*
%TO.P,J2,31,31*%
%TO.N,DIN25*%
X146050000Y-73730000D03*
%TO.P,J2,32,32*%
%TO.N,DIN48*%
X146050000Y-76270000D03*
%TD*%
D17*
%TO.P,J4,01,01*%
%TO.N,RESET*%
X154210000Y-110000000D03*
D18*
%TO.P,J4,02,02*%
%TO.N,CLOCK*%
X151670000Y-110000000D03*
%TO.P,J4,03,03*%
%TO.N,{slash}ROMCS*%
X149130000Y-110000000D03*
%TO.P,J4,04,04*%
%TO.N,{slash}RD*%
X146590000Y-110000000D03*
%TO.P,J4,05,05*%
%TO.N,{slash}WR*%
X144050000Y-110000000D03*
%TO.P,J4,06,06*%
%TO.N,{slash}MREQ*%
X141510000Y-110000000D03*
%TO.P,J4,07,07*%
%TO.N,{slash}IORQ*%
X138970000Y-110000000D03*
%TO.P,J4,08,08*%
%TO.N,{slash}WAIT*%
X136430000Y-110000000D03*
%TO.P,J4,09,09*%
%TO.N,{slash}IORQGE*%
X133890000Y-110000000D03*
%TO.P,J4,10,10*%
%TO.N,{slash}HALT*%
X131350000Y-110000000D03*
%TO.P,J4,11,11*%
%TO.N,{slash}NMI*%
X128810000Y-110000000D03*
%TO.P,J4,12,12*%
%TO.N,{slash}M1*%
X126270000Y-110000000D03*
%TO.P,J4,13,13*%
%TO.N,{slash}INT*%
X123730000Y-110000000D03*
%TO.P,J4,14,14*%
%TO.N,{slash}RFRSH*%
X121190000Y-110000000D03*
%TO.P,J4,15,15*%
%TO.N,{slash}BUSRQ*%
X118650000Y-110000000D03*
%TO.P,J4,16,16*%
%TO.N,{slash}BUSACK*%
X116110000Y-110000000D03*
%TO.P,J4,17,17*%
%TO.N,Y-{slash}DRD*%
X113570000Y-110000000D03*
%TO.P,J4,18,18*%
%TO.N,V-{slash}DWR*%
X111030000Y-110000000D03*
%TO.P,J4,19,19*%
%TO.N,U-{slash}MTR*%
X108490000Y-110000000D03*
%TO.P,J4,20,20*%
%TO.N,NCA4-OE1*%
X105950000Y-110000000D03*
%TO.P,J4,21,21*%
%TO.N,VIDEO-OE2*%
X103410000Y-110000000D03*
%TO.P,J4,22,22*%
%TO.N,unconnected-(J4-Pad22)*%
X100870000Y-110000000D03*
%TO.P,J4,23,23*%
%TO.N,unconnected-(J4-Pad23)*%
X98330000Y-110000000D03*
%TO.P,J4,24,24*%
%TO.N,unconnected-(J4-Pad24)*%
X95790000Y-110000000D03*
%TD*%
D17*
%TO.P,J6,01,01*%
%TO.N,DIN25*%
X154210000Y-100000000D03*
D18*
%TO.P,J6,02,02*%
%TO.N,DIN48*%
X151670000Y-100000000D03*
%TO.P,J6,03,03*%
%TO.N,DIN26*%
X149130000Y-100000000D03*
%TO.P,J6,04,04*%
%TO.N,DIN47*%
X146590000Y-100000000D03*
%TO.P,J6,05,05*%
%TO.N,DIN27*%
X144050000Y-100000000D03*
%TO.P,J6,06,06*%
%TO.N,DIN46*%
X141510000Y-100000000D03*
%TO.P,J6,07,07*%
%TO.N,DIN28*%
X138970000Y-100000000D03*
%TO.P,J6,08,08*%
%TO.N,DIN45*%
X136430000Y-100000000D03*
%TO.P,J6,09,09*%
%TO.N,DIN29*%
X133890000Y-100000000D03*
%TO.P,J6,10,10*%
%TO.N,DIN44*%
X131350000Y-100000000D03*
%TO.P,J6,11,11*%
%TO.N,DIN30*%
X128810000Y-100000000D03*
%TO.P,J6,12,12*%
%TO.N,DIN43*%
X126270000Y-100000000D03*
%TO.P,J6,13,13*%
%TO.N,DIN31*%
X123730000Y-100000000D03*
%TO.P,J6,14,14*%
%TO.N,DIN42*%
X121190000Y-100000000D03*
%TO.P,J6,15,15*%
%TO.N,DIN32*%
X118650000Y-100000000D03*
%TO.P,J6,16,16*%
%TO.N,DIN41*%
X116110000Y-100000000D03*
%TO.P,J6,17,17*%
%TO.N,DIN33*%
X113570000Y-100000000D03*
%TO.P,J6,18,18*%
%TO.N,DIN40*%
X111030000Y-100000000D03*
%TO.P,J6,19,19*%
%TO.N,DIN34*%
X108490000Y-100000000D03*
%TO.P,J6,20,20*%
%TO.N,DIN39*%
X105950000Y-100000000D03*
%TO.P,J6,21,21*%
%TO.N,DIN35*%
X103410000Y-100000000D03*
%TO.P,J6,22,22*%
%TO.N,DIN38*%
X100870000Y-100000000D03*
%TO.P,J6,23,23*%
%TO.N,DIN36*%
X98330000Y-100000000D03*
%TO.P,J6,24,24*%
%TO.N,DIN37*%
X95790000Y-100000000D03*
%TD*%
D17*
%TO.P,J3,01,01*%
%TO.N,A15*%
X154210000Y-120000000D03*
D18*
%TO.P,J3,02,02*%
%TO.N,A14*%
X151670000Y-120000000D03*
%TO.P,J3,03,03*%
%TO.N,A13*%
X149130000Y-120000000D03*
%TO.P,J3,04,04*%
%TO.N,A12*%
X146590000Y-120000000D03*
%TO.P,J3,05,05*%
%TO.N,A11*%
X144050000Y-120000000D03*
%TO.P,J3,06,06*%
%TO.N,A10*%
X141510000Y-120000000D03*
%TO.P,J3,07,07*%
%TO.N,A9*%
X138970000Y-120000000D03*
%TO.P,J3,08,08*%
%TO.N,A8*%
X136430000Y-120000000D03*
%TO.P,J3,09,09*%
%TO.N,A7*%
X133890000Y-120000000D03*
%TO.P,J3,10,10*%
%TO.N,A6*%
X131350000Y-120000000D03*
%TO.P,J3,11,11*%
%TO.N,A5*%
X128810000Y-120000000D03*
%TO.P,J3,12,12*%
%TO.N,A4*%
X126270000Y-120000000D03*
%TO.P,J3,13,13*%
%TO.N,A3*%
X123730000Y-120000000D03*
%TO.P,J3,14,14*%
%TO.N,A2*%
X121190000Y-120000000D03*
%TO.P,J3,15,15*%
%TO.N,A1*%
X118650000Y-120000000D03*
%TO.P,J3,16,16*%
%TO.N,A0*%
X116110000Y-120000000D03*
%TO.P,J3,17,17*%
%TO.N,D7*%
X113570000Y-120000000D03*
%TO.P,J3,18,18*%
%TO.N,D6*%
X111030000Y-120000000D03*
%TO.P,J3,19,19*%
%TO.N,D5*%
X108490000Y-120000000D03*
%TO.P,J3,20,20*%
%TO.N,D4*%
X105950000Y-120000000D03*
%TO.P,J3,21,21*%
%TO.N,D3*%
X103410000Y-120000000D03*
%TO.P,J3,22,22*%
%TO.N,D2*%
X100870000Y-120000000D03*
%TO.P,J3,23,23*%
%TO.N,D1*%
X98330000Y-120000000D03*
%TO.P,J3,24,24*%
%TO.N,D0*%
X95790000Y-120000000D03*
%TD*%
D19*
%TO.P,S1,1,1*%
%TO.N,RESET*%
X84836490Y-47350000D03*
%TO.P,S1,2,2*%
X91336490Y-47350000D03*
%TO.P,S1,3,3*%
%TO.N,GND*%
X84836490Y-51850000D03*
%TO.P,S1,4,4*%
X91336490Y-51850000D03*
%TD*%
D20*
%TO.P,D1,1,K*%
%TO.N,POWER5V*%
X113121790Y-62200000D03*
D21*
%TO.P,D1,2,A*%
%TO.N,POWER5_VIN*%
X97881790Y-62200000D03*
%TD*%
D14*
%TO.P,SK2,B1,A14*%
%TO.N,A14*%
X172650000Y-68961000D03*
%TO.P,SK2,B2,A12*%
%TO.N,A12*%
X172650000Y-71501000D03*
%TO.P,SK2,B3,+5v*%
%TO.N,POWER5_VIN*%
X172650000Y-74041000D03*
%TO.P,SK2,B4,+9V*%
%TO.N,POWER_+9V*%
X172650000Y-76581000D03*
%TO.P,SK2,B6,GND*%
%TO.N,GND*%
X172650000Y-81661000D03*
%TO.P,SK2,B7,GND*%
X172650000Y-84201000D03*
%TO.P,SK2,B8,CLK*%
%TO.N,CLOCK*%
X172650000Y-86741000D03*
%TO.P,SK2,B9,A0*%
%TO.N,A0*%
X172650000Y-89281000D03*
%TO.P,SK2,B10,A1*%
%TO.N,A1*%
X172650000Y-91821000D03*
%TO.P,SK2,B11,A2*%
%TO.N,A2*%
X172650000Y-94361000D03*
%TO.P,SK2,B12,A3*%
%TO.N,A3*%
X172650000Y-96901000D03*
%TO.P,SK2,B13,~{IORQGE}*%
%TO.N,{slash}IORQGE*%
X172650000Y-99441000D03*
%TO.P,SK2,B14,GND*%
%TO.N,GND*%
X172650000Y-101981000D03*
%TO.P,SK2,B15,VIDEO*%
%TO.N,VIDEO-OE2*%
X172650000Y-104521000D03*
%TO.P,SK2,B16,Y*%
%TO.N,Y-{slash}DRD*%
X172650000Y-107061000D03*
%TO.P,SK2,B17,V*%
%TO.N,V-{slash}DWR*%
X172650000Y-109601000D03*
%TO.P,SK2,B18,U*%
%TO.N,U-{slash}MTR*%
X172650000Y-112141000D03*
%TO.P,SK2,B19,~{BUSRQ}*%
%TO.N,{slash}BUSRQ*%
X172650000Y-114681000D03*
%TO.P,SK2,B20,~{RESET}*%
%TO.N,RESET*%
X172650000Y-117221000D03*
%TO.P,SK2,B21,A7*%
%TO.N,A7*%
X172650000Y-119761000D03*
%TO.P,SK2,B22,A6*%
%TO.N,A6*%
X172650000Y-122301000D03*
%TO.P,SK2,B23,A5*%
%TO.N,A5*%
X172650000Y-124841000D03*
%TO.P,SK2,B24,A4*%
%TO.N,A4*%
X172650000Y-127381000D03*
%TO.P,SK2,B25,~{ROMCS}*%
%TO.N,{slash}ROMCS*%
X172650000Y-129921000D03*
%TO.P,SK2,B26,~{BUSACK}*%
%TO.N,{slash}BUSACK*%
X172650000Y-132461000D03*
%TO.P,SK2,B27,A9*%
%TO.N,A9*%
X172650000Y-135001000D03*
%TO.P,SK2,B28,A11*%
%TO.N,A11*%
X172650000Y-137541000D03*
%TD*%
D17*
%TO.P,J5,01,01*%
%TO.N,DIN1*%
X154210000Y-90000000D03*
D18*
%TO.P,J5,02,02*%
%TO.N,DIN24*%
X151670000Y-90000000D03*
%TO.P,J5,03,03*%
%TO.N,DIN2*%
X149130000Y-90000000D03*
%TO.P,J5,04,04*%
%TO.N,DIN23*%
X146590000Y-90000000D03*
%TO.P,J5,05,05*%
%TO.N,DIN3*%
X144050000Y-90000000D03*
%TO.P,J5,06,06*%
%TO.N,DIN22*%
X141510000Y-90000000D03*
%TO.P,J5,07,07*%
%TO.N,DIN4*%
X138970000Y-90000000D03*
%TO.P,J5,08,08*%
%TO.N,DIN21*%
X136430000Y-90000000D03*
%TO.P,J5,09,09*%
%TO.N,DIN5*%
X133890000Y-90000000D03*
%TO.P,J5,10,10*%
%TO.N,DIN20*%
X131350000Y-90000000D03*
%TO.P,J5,11,11*%
%TO.N,DIN6*%
X128810000Y-90000000D03*
%TO.P,J5,12,12*%
%TO.N,DIN19*%
X126270000Y-90000000D03*
%TO.P,J5,13,13*%
%TO.N,DIN7*%
X123730000Y-90000000D03*
%TO.P,J5,14,14*%
%TO.N,DIN18*%
X121190000Y-90000000D03*
%TO.P,J5,15,15*%
%TO.N,DIN8*%
X118650000Y-90000000D03*
%TO.P,J5,16,16*%
%TO.N,DIN17*%
X116110000Y-90000000D03*
%TO.P,J5,17,17*%
%TO.N,DIN9*%
X113570000Y-90000000D03*
%TO.P,J5,18,18*%
%TO.N,DIN16*%
X111030000Y-90000000D03*
%TO.P,J5,19,19*%
%TO.N,DIN10*%
X108490000Y-90000000D03*
%TO.P,J5,20,20*%
%TO.N,DIN15*%
X105950000Y-90000000D03*
%TO.P,J5,21,21*%
%TO.N,DIN11*%
X103410000Y-90000000D03*
%TO.P,J5,22,22*%
%TO.N,DIN14*%
X100870000Y-90000000D03*
%TO.P,J5,23,23*%
%TO.N,DIN12*%
X98330000Y-90000000D03*
%TO.P,J5,24,24*%
%TO.N,DIN13*%
X95790000Y-90000000D03*
%TD*%
D22*
%TO.N,POWER5_VIN*%
X86600000Y-72900000D03*
X94500000Y-70801000D03*
%TO.N,GND*%
X158300000Y-89800000D03*
X98900000Y-78800000D03*
X166800000Y-110500000D03*
X160300000Y-99800000D03*
X165400000Y-48800000D03*
X92100000Y-139800000D03*
X127800000Y-140000000D03*
X163000000Y-120500000D03*
X160300000Y-82600000D03*
X107509790Y-48990210D03*
X89400000Y-120100000D03*
X110800000Y-65800000D03*
X160200000Y-100700000D03*
X163200000Y-139800000D03*
X165400000Y-78700000D03*
%TO.N,D6*%
X91000000Y-87200000D03*
%TO.N,{slash}RD*%
X146700000Y-113100000D03*
%TO.N,A10*%
X141600000Y-135001000D03*
%TO.N,A4*%
X126400000Y-126400000D03*
%TO.N,D5*%
X90300000Y-91821000D03*
%TO.N,{slash}INT*%
X121300000Y-97701000D03*
%TO.N,A3*%
X125900000Y-96901000D03*
%TO.N,A5*%
X129000000Y-124100000D03*
%TO.N,{slash}HALT*%
X131200000Y-104200000D03*
%TO.N,Y-{slash}DRD*%
X113700000Y-106822000D03*
%TO.N,{slash}NMI*%
X128800000Y-102100000D03*
%TO.N,A13*%
X162600000Y-72200000D03*
%TO.N,RESET*%
X166500000Y-115900000D03*
%TO.N,{slash}ROMCS*%
X167200000Y-128900000D03*
%TO.N,D4*%
X91400000Y-96101000D03*
%TO.N,A8*%
X136400000Y-132461000D03*
%TO.N,{slash}BUSRQ*%
X118800000Y-113900000D03*
%TO.N,A1*%
X116100000Y-92700000D03*
%TO.N,{slash}M1*%
X127500000Y-127700000D03*
%TO.N,{slash}IORQGE*%
X159600000Y-98501000D03*
%TO.N,{slash}BUSACK*%
X117400000Y-131100000D03*
%TO.N,D3*%
X90300000Y-94000000D03*
%TO.N,V-{slash}DWR*%
X111000000Y-108544000D03*
%TO.N,{slash}MREQ*%
X141600000Y-106000000D03*
%TO.N,D7*%
X93600000Y-74600000D03*
%TO.N,A11*%
X144100000Y-136100000D03*
%TO.N,A15*%
X167700000Y-67900000D03*
%TO.N,D0*%
X86500000Y-80400000D03*
%TO.N,{slash}RFRSH*%
X122600000Y-129921000D03*
%TO.N,D2*%
X89100000Y-85700000D03*
%TO.N,A14*%
X163800000Y-68961000D03*
%TO.N,{slash}WAIT*%
X136400000Y-118700000D03*
%TO.N,{slash}WR*%
X143900000Y-114800000D03*
%TO.N,A0*%
X93300000Y-88056000D03*
%TO.N,A2*%
X118600000Y-95300000D03*
%TO.N,A9*%
X138900000Y-133600000D03*
%TO.N,D1*%
X87800000Y-84600000D03*
%TO.N,CLOCK*%
X166100000Y-86400000D03*
%TO.N,U-{slash}MTR*%
X108400000Y-112141000D03*
%TO.N,A12*%
X161400000Y-69800000D03*
%TO.N,{slash}IORQ*%
X138700000Y-107700000D03*
%TO.N,A6*%
X131400000Y-122200000D03*
%TO.N,NCA4-OE1*%
X103493000Y-77907000D03*
%TO.N,VIDEO-OE2*%
X98500000Y-105100000D03*
%TO.N,A7*%
X134000000Y-117800000D03*
%TD*%
D11*
%TO.N,POWER5_VIN*%
X168541000Y-74041000D02*
X172650000Y-74041000D01*
X165301000Y-70801000D02*
X168541000Y-74041000D01*
X94500000Y-70801000D02*
X165301000Y-70801000D01*
X93999000Y-70801000D02*
X94500000Y-70801000D01*
X85459000Y-74041000D02*
X86600000Y-72900000D01*
X81500000Y-74041000D02*
X85459000Y-74041000D01*
D23*
%TO.N,GND*%
X165400000Y-81622000D02*
X165739000Y-81961000D01*
D24*
X171631000Y-103000000D02*
X172650000Y-101981000D01*
D23*
X93216490Y-53730000D02*
X91596490Y-52110000D01*
X81500000Y-84201000D02*
X83201000Y-82500000D01*
X101700000Y-82500000D02*
X101710000Y-82510000D01*
X101720000Y-82500000D02*
X107950000Y-76270000D01*
X83201000Y-82500000D02*
X101700000Y-82500000D01*
X167979000Y-84201000D02*
X172650000Y-84201000D01*
X172650000Y-81661000D02*
X166039000Y-81661000D01*
X107700000Y-48800000D02*
X165400000Y-48800000D01*
D25*
X166039000Y-81661000D02*
X165739000Y-81961000D01*
D23*
X91596490Y-52110000D02*
X85096490Y-52110000D01*
X81500000Y-81661000D02*
X82339000Y-82500000D01*
X165400000Y-78700000D02*
X165400000Y-81622000D01*
D24*
X81500000Y-101981000D02*
X84719000Y-101981000D01*
X84719000Y-101981000D02*
X86100000Y-100600000D01*
X172650000Y-101981000D02*
X168881000Y-101981000D01*
D23*
X165739000Y-81961000D02*
X167979000Y-84201000D01*
X107509790Y-48990210D02*
X107700000Y-48800000D01*
D24*
X81190000Y-101981000D02*
X82209000Y-103000000D01*
D23*
X82339000Y-82500000D02*
X101720000Y-82500000D01*
X107950000Y-76270000D02*
X107509790Y-75829790D01*
D24*
X168881000Y-101981000D02*
X166900000Y-100000000D01*
D23*
X107950000Y-53730000D02*
X93216490Y-53730000D01*
D24*
X82209000Y-103000000D02*
X171631000Y-103000000D01*
%TO.N,POWER_+9V*%
X146574395Y-72464000D02*
X147210395Y-73100000D01*
X168481000Y-76581000D02*
X172650000Y-76581000D01*
X147210395Y-73100000D02*
X165000000Y-73100000D01*
X102567000Y-76581000D02*
X106684000Y-72464000D01*
X81190000Y-76581000D02*
X102567000Y-76581000D01*
X106684000Y-72464000D02*
X146574395Y-72464000D01*
X165000000Y-73100000D02*
X168481000Y-76581000D01*
%TO.N,A4*%
X82481000Y-126400000D02*
X126400000Y-126400000D01*
X171669000Y-126400000D02*
X172650000Y-127381000D01*
X126400000Y-126400000D02*
X171669000Y-126400000D01*
X81500000Y-127381000D02*
X82481000Y-126400000D01*
%TO.N,A3*%
X91933786Y-96700000D02*
X125699000Y-96700000D01*
X81500000Y-96901000D02*
X91732786Y-96901000D01*
X125900000Y-96901000D02*
X172650000Y-96901000D01*
X125699000Y-96700000D02*
X125900000Y-96901000D01*
X91732786Y-96901000D02*
X91933786Y-96700000D01*
%TO.N,A5*%
X81500000Y-124841000D02*
X82241000Y-124100000D01*
X129000000Y-124100000D02*
X171909000Y-124100000D01*
X171909000Y-124100000D02*
X172650000Y-124841000D01*
X82241000Y-124100000D02*
X129000000Y-124100000D01*
%TO.N,Y-{slash}DRD*%
X81500000Y-107061000D02*
X81761000Y-106800000D01*
X172389000Y-106800000D02*
X172650000Y-107061000D01*
X81761000Y-106800000D02*
X172389000Y-106800000D01*
%TO.N,RESET*%
X168339000Y-115900000D02*
X169660000Y-117221000D01*
X166500000Y-115900000D02*
X168339000Y-115900000D01*
X169660000Y-117221000D02*
X172650000Y-117221000D01*
X85811000Y-115900000D02*
X166500000Y-115900000D01*
X84490000Y-117221000D02*
X85811000Y-115900000D01*
X81500000Y-117221000D02*
X84490000Y-117221000D01*
%TO.N,{slash}ROMCS*%
X171629000Y-128900000D02*
X172650000Y-129921000D01*
X82521000Y-128900000D02*
X167200000Y-128900000D01*
X167200000Y-128900000D02*
X171629000Y-128900000D01*
X81500000Y-129921000D02*
X82521000Y-128900000D01*
%TO.N,{slash}BUSRQ*%
X118800000Y-113900000D02*
X171869000Y-113900000D01*
X81971000Y-113900000D02*
X118800000Y-113900000D01*
X81190000Y-114681000D02*
X81971000Y-113900000D01*
X171869000Y-113900000D02*
X172650000Y-114681000D01*
%TO.N,A1*%
X82379000Y-92700000D02*
X116100000Y-92700000D01*
X116100000Y-92700000D02*
X171771000Y-92700000D01*
X171771000Y-92700000D02*
X172650000Y-91821000D01*
X81500000Y-91821000D02*
X82379000Y-92700000D01*
%TO.N,{slash}IORQGE*%
X81500000Y-99441000D02*
X81541000Y-99400000D01*
X88800000Y-99400000D02*
X89600000Y-98600000D01*
X168240000Y-99441000D02*
X172650000Y-99441000D01*
X81541000Y-99400000D02*
X88800000Y-99400000D01*
X167399000Y-98600000D02*
X168240000Y-99441000D01*
X89600000Y-98600000D02*
X167399000Y-98600000D01*
%TO.N,{slash}BUSACK*%
X85489000Y-131422000D02*
X85811000Y-131100000D01*
X168632478Y-131422000D02*
X171611000Y-131422000D01*
X168310478Y-131100000D02*
X168632478Y-131422000D01*
X171611000Y-131422000D02*
X172650000Y-132461000D01*
X117400000Y-131100000D02*
X168310478Y-131100000D01*
X81500000Y-132461000D02*
X82539000Y-131422000D01*
X82539000Y-131422000D02*
X85489000Y-131422000D01*
X85811000Y-131100000D02*
X117400000Y-131100000D01*
%TO.N,V-{slash}DWR*%
X168240000Y-109601000D02*
X172650000Y-109601000D01*
X111000000Y-108544000D02*
X167183000Y-108544000D01*
X91412000Y-108500000D02*
X91456000Y-108544000D01*
X167183000Y-108544000D02*
X168240000Y-109601000D01*
X84399000Y-109601000D02*
X85500000Y-108500000D01*
X81500000Y-109601000D02*
X84399000Y-109601000D01*
X85500000Y-108500000D02*
X91412000Y-108500000D01*
X91456000Y-108544000D02*
X111000000Y-108544000D01*
%TO.N,A11*%
X85811000Y-136100000D02*
X144100000Y-136100000D01*
X171611000Y-136502000D02*
X172650000Y-137541000D01*
X168230478Y-136100000D02*
X168632478Y-136502000D01*
X85409000Y-136502000D02*
X85811000Y-136100000D01*
X82229000Y-136502000D02*
X85409000Y-136502000D01*
X81190000Y-137541000D02*
X82229000Y-136502000D01*
X168632478Y-136502000D02*
X171611000Y-136502000D01*
X144100000Y-136100000D02*
X168230478Y-136100000D01*
%TO.N,A14*%
X163800000Y-68961000D02*
X172650000Y-68961000D01*
X81500000Y-68961000D02*
X163800000Y-68961000D01*
%TO.N,A0*%
X81500000Y-89281000D02*
X81781000Y-89000000D01*
X168240000Y-89281000D02*
X172650000Y-89281000D01*
X89344000Y-88056000D02*
X93300000Y-88056000D01*
X88400000Y-89000000D02*
X89344000Y-88056000D01*
X93300000Y-88056000D02*
X167015000Y-88056000D01*
X167015000Y-88056000D02*
X168240000Y-89281000D01*
X81781000Y-89000000D02*
X88400000Y-89000000D01*
%TO.N,A2*%
X118600000Y-95300000D02*
X171711000Y-95300000D01*
X82439000Y-95300000D02*
X118600000Y-95300000D01*
X171711000Y-95300000D02*
X172650000Y-94361000D01*
X81500000Y-94361000D02*
X82439000Y-95300000D01*
%TO.N,A9*%
X85573000Y-133962000D02*
X85935000Y-133600000D01*
X82229000Y-133962000D02*
X85573000Y-133962000D01*
X168270478Y-133600000D02*
X168632478Y-133962000D01*
X138900000Y-133600000D02*
X168270478Y-133600000D01*
X171611000Y-133962000D02*
X172650000Y-135001000D01*
X81190000Y-135001000D02*
X82229000Y-133962000D01*
X168632478Y-133962000D02*
X171611000Y-133962000D01*
X85935000Y-133600000D02*
X138900000Y-133600000D01*
%TO.N,CLOCK*%
X81500000Y-86741000D02*
X81741000Y-86500000D01*
X81741000Y-86500000D02*
X90567214Y-86500000D01*
X90567214Y-86500000D02*
X90667214Y-86400000D01*
X90667214Y-86400000D02*
X172309000Y-86400000D01*
X172309000Y-86400000D02*
X172650000Y-86741000D01*
%TO.N,U-{slash}MTR*%
X81500000Y-112141000D02*
X108400000Y-112141000D01*
X108400000Y-112141000D02*
X172650000Y-112141000D01*
%TO.N,A12*%
X161400000Y-69800000D02*
X167000000Y-69800000D01*
X86235000Y-69800000D02*
X161400000Y-69800000D01*
X82539000Y-70462000D02*
X85573000Y-70462000D01*
X167000000Y-69800000D02*
X168701000Y-71501000D01*
X85573000Y-70462000D02*
X86235000Y-69800000D01*
X81500000Y-71501000D02*
X82539000Y-70462000D01*
X168701000Y-71501000D02*
X172650000Y-71501000D01*
%TO.N,A6*%
X81500000Y-122301000D02*
X172650000Y-122301000D01*
%TO.N,VIDEO-OE2*%
X81500000Y-104521000D02*
X82079000Y-105100000D01*
X98510000Y-105100000D02*
X172071000Y-105100000D01*
X172071000Y-105100000D02*
X172650000Y-104521000D01*
X82079000Y-105100000D02*
X98510000Y-105100000D01*
%TO.N,A7*%
X134000000Y-117800000D02*
X86509000Y-117800000D01*
X166279000Y-117800000D02*
X168240000Y-119761000D01*
X134000000Y-117800000D02*
X166279000Y-117800000D01*
X86509000Y-117800000D02*
X84548000Y-119761000D01*
X84548000Y-119761000D02*
X81500000Y-119761000D01*
X168240000Y-119761000D02*
X172650000Y-119761000D01*
%TD*%
%TA.AperFunction,Conductor*%
%TO.N,GND*%
G36*
X167914577Y-136920185D02*
G01*
X167935219Y-136936819D01*
X168010689Y-137012289D01*
X168122187Y-137123787D01*
X168122190Y-137123790D01*
X168253294Y-137211391D01*
X168253295Y-137211391D01*
X168253299Y-137211394D01*
X168257949Y-137213320D01*
X168312353Y-137257158D01*
X168334421Y-137323451D01*
X168334500Y-137327882D01*
X168334500Y-138541002D01*
X168339644Y-138612940D01*
X168368338Y-138710660D01*
X168378948Y-138746794D01*
X168380182Y-138750994D01*
X168457967Y-138872030D01*
X168457971Y-138872034D01*
X168547627Y-138949722D01*
X168566706Y-138966254D01*
X168607174Y-138984735D01*
X168697580Y-139026023D01*
X168697583Y-139026023D01*
X168697584Y-139026024D01*
X168840000Y-139046500D01*
X168840003Y-139046500D01*
X176460000Y-139046500D01*
X176531940Y-139041355D01*
X176590565Y-139024141D01*
X176660434Y-139024141D01*
X176719212Y-139061914D01*
X176748238Y-139125470D01*
X176749500Y-139143118D01*
X176749500Y-142625500D01*
X176729815Y-142692539D01*
X176677011Y-142738294D01*
X176625500Y-142749500D01*
X77374500Y-142749500D01*
X77307461Y-142729815D01*
X77261706Y-142677011D01*
X77250500Y-142625500D01*
X77250500Y-139881902D01*
X99999500Y-139881902D01*
X99999500Y-140118097D01*
X100036446Y-140351368D01*
X100109433Y-140575996D01*
X100216657Y-140786433D01*
X100355483Y-140977510D01*
X100522490Y-141144517D01*
X100713567Y-141283343D01*
X100812991Y-141334002D01*
X100924003Y-141390566D01*
X100924005Y-141390566D01*
X100924008Y-141390568D01*
X101044412Y-141429689D01*
X101148631Y-141463553D01*
X101381903Y-141500500D01*
X101381908Y-141500500D01*
X101618097Y-141500500D01*
X101851368Y-141463553D01*
X102075992Y-141390568D01*
X102286433Y-141283343D01*
X102477510Y-141144517D01*
X102644517Y-140977510D01*
X102783343Y-140786433D01*
X102890568Y-140575992D01*
X102963553Y-140351368D01*
X103000500Y-140118097D01*
X103000500Y-139881902D01*
X149999500Y-139881902D01*
X149999500Y-140118097D01*
X150036446Y-140351368D01*
X150109433Y-140575996D01*
X150216657Y-140786433D01*
X150355483Y-140977510D01*
X150522490Y-141144517D01*
X150713567Y-141283343D01*
X150812991Y-141334002D01*
X150924003Y-141390566D01*
X150924005Y-141390566D01*
X150924008Y-141390568D01*
X151044412Y-141429689D01*
X151148631Y-141463553D01*
X151381903Y-141500500D01*
X151381908Y-141500500D01*
X151618097Y-141500500D01*
X151851368Y-141463553D01*
X152075992Y-141390568D01*
X152286433Y-141283343D01*
X152477510Y-141144517D01*
X152644517Y-140977510D01*
X152783343Y-140786433D01*
X152890568Y-140575992D01*
X152963553Y-140351368D01*
X153000500Y-140118097D01*
X153000500Y-139881902D01*
X152963553Y-139648631D01*
X152890566Y-139424003D01*
X152783342Y-139213566D01*
X152644517Y-139022490D01*
X152477510Y-138855483D01*
X152286433Y-138716657D01*
X152075996Y-138609433D01*
X151851368Y-138536446D01*
X151618097Y-138499500D01*
X151618092Y-138499500D01*
X151381908Y-138499500D01*
X151381903Y-138499500D01*
X151148631Y-138536446D01*
X150924003Y-138609433D01*
X150713566Y-138716657D01*
X150672084Y-138746796D01*
X150522490Y-138855483D01*
X150522488Y-138855485D01*
X150522487Y-138855485D01*
X150355485Y-139022487D01*
X150355485Y-139022488D01*
X150355483Y-139022490D01*
X150329953Y-139057629D01*
X150216657Y-139213566D01*
X150109433Y-139424003D01*
X150036446Y-139648631D01*
X149999500Y-139881902D01*
X103000500Y-139881902D01*
X102963553Y-139648631D01*
X102890566Y-139424003D01*
X102783342Y-139213566D01*
X102644517Y-139022490D01*
X102477510Y-138855483D01*
X102286433Y-138716657D01*
X102075996Y-138609433D01*
X101851368Y-138536446D01*
X101618097Y-138499500D01*
X101618092Y-138499500D01*
X101381908Y-138499500D01*
X101381903Y-138499500D01*
X101148631Y-138536446D01*
X100924003Y-138609433D01*
X100713566Y-138716657D01*
X100672084Y-138746796D01*
X100522490Y-138855483D01*
X100522488Y-138855485D01*
X100522487Y-138855485D01*
X100355485Y-139022487D01*
X100355485Y-139022488D01*
X100355483Y-139022490D01*
X100329953Y-139057629D01*
X100216657Y-139213566D01*
X100109433Y-139424003D01*
X100036446Y-139648631D01*
X99999500Y-139881902D01*
X77250500Y-139881902D01*
X77250500Y-139170423D01*
X77270185Y-139103384D01*
X77322989Y-139057629D01*
X77375571Y-139048151D01*
X77375571Y-139046500D01*
X85000000Y-139046500D01*
X85071940Y-139041355D01*
X85209992Y-139000819D01*
X85331032Y-138923031D01*
X85425254Y-138814294D01*
X85425255Y-138814291D01*
X85430264Y-138808511D01*
X85480642Y-138773533D01*
X85552331Y-138746796D01*
X85667546Y-138660546D01*
X85753796Y-138545331D01*
X85804091Y-138410483D01*
X85810500Y-138350873D01*
X85810499Y-137262758D01*
X85830184Y-137195720D01*
X85865606Y-137159658D01*
X85919289Y-137123789D01*
X86106259Y-136936819D01*
X86167582Y-136903334D01*
X86193940Y-136900500D01*
X144021158Y-136900500D01*
X167847538Y-136900500D01*
X167914577Y-136920185D01*
G37*
%TD.AperFunction*%
%TA.AperFunction,Conductor*%
G36*
X95544992Y-118620185D02*
G01*
X95590747Y-118672989D01*
X95600691Y-118742147D01*
X95571666Y-118805703D01*
X95516271Y-118842431D01*
X95334928Y-118901352D01*
X95334925Y-118901354D01*
X95168661Y-118986069D01*
X95082531Y-119048646D01*
X95017698Y-119095751D01*
X95017696Y-119095753D01*
X95017695Y-119095753D01*
X94885753Y-119227695D01*
X94885753Y-119227696D01*
X94885751Y-119227698D01*
X94857103Y-119267129D01*
X94776069Y-119378661D01*
X94691354Y-119544925D01*
X94691352Y-119544928D01*
X94633691Y-119722390D01*
X94633691Y-119722393D01*
X94604500Y-119906699D01*
X94604500Y-120093300D01*
X94633691Y-120277606D01*
X94633691Y-120277609D01*
X94691352Y-120455071D01*
X94691354Y-120455074D01*
X94776069Y-120621338D01*
X94885751Y-120772302D01*
X95017698Y-120904249D01*
X95168662Y-121013931D01*
X95334926Y-121098646D01*
X95334928Y-121098647D01*
X95512391Y-121156308D01*
X95512392Y-121156308D01*
X95512395Y-121156309D01*
X95696699Y-121185500D01*
X95696700Y-121185500D01*
X95883300Y-121185500D01*
X95883301Y-121185500D01*
X96067605Y-121156309D01*
X96067608Y-121156308D01*
X96067609Y-121156308D01*
X96245071Y-121098647D01*
X96245071Y-121098646D01*
X96245074Y-121098646D01*
X96411338Y-121013931D01*
X96562302Y-120904249D01*
X96694249Y-120772302D01*
X96803931Y-120621338D01*
X96888646Y-120455074D01*
X96902569Y-120412224D01*
X96942069Y-120290656D01*
X96981506Y-120232980D01*
X97045865Y-120205782D01*
X97114711Y-120217697D01*
X97166187Y-120264941D01*
X97177931Y-120290656D01*
X97231352Y-120455071D01*
X97231354Y-120455074D01*
X97316069Y-120621338D01*
X97425751Y-120772302D01*
X97557698Y-120904249D01*
X97708662Y-121013931D01*
X97874926Y-121098646D01*
X97874928Y-121098647D01*
X98052391Y-121156308D01*
X98052392Y-121156308D01*
X98052395Y-121156309D01*
X98236699Y-121185500D01*
X98236700Y-121185500D01*
X98423300Y-121185500D01*
X98423301Y-121185500D01*
X98607605Y-121156309D01*
X98607608Y-121156308D01*
X98607609Y-121156308D01*
X98785071Y-121098647D01*
X98785071Y-121098646D01*
X98785074Y-121098646D01*
X98951338Y-121013931D01*
X99102302Y-120904249D01*
X99234249Y-120772302D01*
X99343931Y-120621338D01*
X99428646Y-120455074D01*
X99442569Y-120412224D01*
X99482069Y-120290656D01*
X99521506Y-120232980D01*
X99585865Y-120205782D01*
X99654711Y-120217697D01*
X99706187Y-120264941D01*
X99717931Y-120290656D01*
X99771352Y-120455071D01*
X99771354Y-120455074D01*
X99856069Y-120621338D01*
X99965751Y-120772302D01*
X100097698Y-120904249D01*
X100248662Y-121013931D01*
X100414926Y-121098646D01*
X100414928Y-121098647D01*
X100592391Y-121156308D01*
X100592392Y-121156308D01*
X100592395Y-121156309D01*
X100776699Y-121185500D01*
X100776700Y-121185500D01*
X100963300Y-121185500D01*
X100963301Y-121185500D01*
X101147605Y-121156309D01*
X101147608Y-121156308D01*
X101147609Y-121156308D01*
X101325071Y-121098647D01*
X101325071Y-121098646D01*
X101325074Y-121098646D01*
X101491338Y-121013931D01*
X101642302Y-120904249D01*
X101774249Y-120772302D01*
X101883931Y-120621338D01*
X101968646Y-120455074D01*
X101982569Y-120412224D01*
X102022069Y-120290656D01*
X102061506Y-120232980D01*
X102125865Y-120205782D01*
X102194711Y-120217697D01*
X102246187Y-120264941D01*
X102257931Y-120290656D01*
X102311352Y-120455071D01*
X102311354Y-120455074D01*
X102396069Y-120621338D01*
X102505751Y-120772302D01*
X102637698Y-120904249D01*
X102788662Y-121013931D01*
X102954926Y-121098646D01*
X102954928Y-121098647D01*
X103132391Y-121156308D01*
X103132392Y-121156308D01*
X103132395Y-121156309D01*
X103316699Y-121185500D01*
X103316700Y-121185500D01*
X103503300Y-121185500D01*
X103503301Y-121185500D01*
X103687605Y-121156309D01*
X103687608Y-121156308D01*
X103687609Y-121156308D01*
X103865071Y-121098647D01*
X103865071Y-121098646D01*
X103865074Y-121098646D01*
X104031338Y-121013931D01*
X104182302Y-120904249D01*
X104314249Y-120772302D01*
X104423931Y-120621338D01*
X104508646Y-120455074D01*
X104522569Y-120412224D01*
X104562069Y-120290656D01*
X104601506Y-120232980D01*
X104665865Y-120205782D01*
X104734711Y-120217697D01*
X104786187Y-120264941D01*
X104797931Y-120290656D01*
X104851352Y-120455071D01*
X104851354Y-120455074D01*
X104936069Y-120621338D01*
X105045751Y-120772302D01*
X105177698Y-120904249D01*
X105328662Y-121013931D01*
X105494926Y-121098646D01*
X105494928Y-121098647D01*
X105672391Y-121156308D01*
X105672392Y-121156308D01*
X105672395Y-121156309D01*
X105856699Y-121185500D01*
X105856700Y-121185500D01*
X106043300Y-121185500D01*
X106043301Y-121185500D01*
X106227605Y-121156309D01*
X106227608Y-121156308D01*
X106227609Y-121156308D01*
X106405071Y-121098647D01*
X106405071Y-121098646D01*
X106405074Y-121098646D01*
X106571338Y-121013931D01*
X106722302Y-120904249D01*
X106854249Y-120772302D01*
X106963931Y-120621338D01*
X107048646Y-120455074D01*
X107062569Y-120412224D01*
X107102069Y-120290656D01*
X107141506Y-120232980D01*
X107205865Y-120205782D01*
X107274711Y-120217697D01*
X107326187Y-120264941D01*
X107337931Y-120290656D01*
X107391352Y-120455071D01*
X107391354Y-120455074D01*
X107476069Y-120621338D01*
X107585751Y-120772302D01*
X107717698Y-120904249D01*
X107868662Y-121013931D01*
X108034926Y-121098646D01*
X108034928Y-121098647D01*
X108212391Y-121156308D01*
X108212392Y-121156308D01*
X108212395Y-121156309D01*
X108396699Y-121185500D01*
X108396700Y-121185500D01*
X108583300Y-121185500D01*
X108583301Y-121185500D01*
X108767605Y-121156309D01*
X108767608Y-121156308D01*
X108767609Y-121156308D01*
X108945071Y-121098647D01*
X108945071Y-121098646D01*
X108945074Y-121098646D01*
X109111338Y-121013931D01*
X109262302Y-120904249D01*
X109394249Y-120772302D01*
X109503931Y-120621338D01*
X109588646Y-120455074D01*
X109602569Y-120412224D01*
X109642069Y-120290656D01*
X109681506Y-120232980D01*
X109745865Y-120205782D01*
X109814711Y-120217697D01*
X109866187Y-120264941D01*
X109877931Y-120290656D01*
X109931352Y-120455071D01*
X109931354Y-120455074D01*
X110016069Y-120621338D01*
X110125751Y-120772302D01*
X110257698Y-120904249D01*
X110408662Y-121013931D01*
X110574926Y-121098646D01*
X110574928Y-121098647D01*
X110752391Y-121156308D01*
X110752392Y-121156308D01*
X110752395Y-121156309D01*
X110936699Y-121185500D01*
X110936700Y-121185500D01*
X111123300Y-121185500D01*
X111123301Y-121185500D01*
X111307605Y-121156309D01*
X111307608Y-121156308D01*
X111307609Y-121156308D01*
X111485071Y-121098647D01*
X111485071Y-121098646D01*
X111485074Y-121098646D01*
X111651338Y-121013931D01*
X111802302Y-120904249D01*
X111934249Y-120772302D01*
X112043931Y-120621338D01*
X112128646Y-120455074D01*
X112142569Y-120412224D01*
X112182069Y-120290656D01*
X112221506Y-120232980D01*
X112285865Y-120205782D01*
X112354711Y-120217697D01*
X112406187Y-120264941D01*
X112417931Y-120290656D01*
X112471352Y-120455071D01*
X112471354Y-120455074D01*
X112556069Y-120621338D01*
X112665751Y-120772302D01*
X112797698Y-120904249D01*
X112948662Y-121013931D01*
X113114926Y-121098646D01*
X113114928Y-121098647D01*
X113292391Y-121156308D01*
X113292392Y-121156308D01*
X113292395Y-121156309D01*
X113476699Y-121185500D01*
X113476700Y-121185500D01*
X113663300Y-121185500D01*
X113663301Y-121185500D01*
X113847605Y-121156309D01*
X113847608Y-121156308D01*
X113847609Y-121156308D01*
X114025071Y-121098647D01*
X114025071Y-121098646D01*
X114025074Y-121098646D01*
X114191338Y-121013931D01*
X114342302Y-120904249D01*
X114474249Y-120772302D01*
X114583931Y-120621338D01*
X114668646Y-120455074D01*
X114682569Y-120412224D01*
X114722069Y-120290656D01*
X114761506Y-120232980D01*
X114825865Y-120205782D01*
X114894711Y-120217697D01*
X114946187Y-120264941D01*
X114957931Y-120290656D01*
X115011352Y-120455071D01*
X115011354Y-120455074D01*
X115096069Y-120621338D01*
X115205751Y-120772302D01*
X115337698Y-120904249D01*
X115488662Y-121013931D01*
X115654926Y-121098646D01*
X115654928Y-121098647D01*
X115832391Y-121156308D01*
X115832392Y-121156308D01*
X115832395Y-121156309D01*
X116016699Y-121185500D01*
X116016700Y-121185500D01*
X116203300Y-121185500D01*
X116203301Y-121185500D01*
X116387605Y-121156309D01*
X116387608Y-121156308D01*
X116387609Y-121156308D01*
X116565071Y-121098647D01*
X116565071Y-121098646D01*
X116565074Y-121098646D01*
X116731338Y-121013931D01*
X116882302Y-120904249D01*
X117014249Y-120772302D01*
X117123931Y-120621338D01*
X117208646Y-120455074D01*
X117222569Y-120412224D01*
X117262069Y-120290656D01*
X117301506Y-120232980D01*
X117365865Y-120205782D01*
X117434711Y-120217697D01*
X117486187Y-120264941D01*
X117497931Y-120290656D01*
X117551352Y-120455071D01*
X117551354Y-120455074D01*
X117636069Y-120621338D01*
X117745751Y-120772302D01*
X117877698Y-120904249D01*
X118028662Y-121013931D01*
X118194926Y-121098646D01*
X118194928Y-121098647D01*
X118372391Y-121156308D01*
X118372392Y-121156308D01*
X118372395Y-121156309D01*
X118556699Y-121185500D01*
X118556700Y-121185500D01*
X118743300Y-121185500D01*
X118743301Y-121185500D01*
X118927605Y-121156309D01*
X118927608Y-121156308D01*
X118927609Y-121156308D01*
X119105071Y-121098647D01*
X119105071Y-121098646D01*
X119105074Y-121098646D01*
X119271338Y-121013931D01*
X119422302Y-120904249D01*
X119554249Y-120772302D01*
X119663931Y-120621338D01*
X119748646Y-120455074D01*
X119762569Y-120412224D01*
X119802069Y-120290656D01*
X119841506Y-120232980D01*
X119905865Y-120205782D01*
X119974711Y-120217697D01*
X120026187Y-120264941D01*
X120037931Y-120290656D01*
X120091352Y-120455071D01*
X120091354Y-120455074D01*
X120176069Y-120621338D01*
X120285751Y-120772302D01*
X120417698Y-120904249D01*
X120568662Y-121013931D01*
X120734926Y-121098646D01*
X120734928Y-121098647D01*
X120912391Y-121156308D01*
X120912392Y-121156308D01*
X120912395Y-121156309D01*
X121096699Y-121185500D01*
X121096700Y-121185500D01*
X121283300Y-121185500D01*
X121283301Y-121185500D01*
X121467605Y-121156309D01*
X121467608Y-121156308D01*
X121467609Y-121156308D01*
X121645071Y-121098647D01*
X121645071Y-121098646D01*
X121645074Y-121098646D01*
X121811338Y-121013931D01*
X121962302Y-120904249D01*
X122094249Y-120772302D01*
X122203931Y-120621338D01*
X122288646Y-120455074D01*
X122302569Y-120412224D01*
X122342069Y-120290656D01*
X122381506Y-120232980D01*
X122445865Y-120205782D01*
X122514711Y-120217697D01*
X122566187Y-120264941D01*
X122577931Y-120290656D01*
X122631352Y-120455071D01*
X122631354Y-120455074D01*
X122716069Y-120621338D01*
X122825751Y-120772302D01*
X122957698Y-120904249D01*
X123108662Y-121013931D01*
X123274926Y-121098646D01*
X123274928Y-121098647D01*
X123452391Y-121156308D01*
X123452392Y-121156308D01*
X123452395Y-121156309D01*
X123636699Y-121185500D01*
X123636700Y-121185500D01*
X123823300Y-121185500D01*
X123823301Y-121185500D01*
X124007605Y-121156309D01*
X124007608Y-121156308D01*
X124007609Y-121156308D01*
X124185071Y-121098647D01*
X124185071Y-121098646D01*
X124185074Y-121098646D01*
X124351338Y-121013931D01*
X124502302Y-120904249D01*
X124634249Y-120772302D01*
X124743931Y-120621338D01*
X124828646Y-120455074D01*
X124842569Y-120412224D01*
X124882069Y-120290656D01*
X124921506Y-120232980D01*
X124985865Y-120205782D01*
X125054711Y-120217697D01*
X125106187Y-120264941D01*
X125117931Y-120290656D01*
X125171352Y-120455071D01*
X125171354Y-120455074D01*
X125256069Y-120621338D01*
X125365751Y-120772302D01*
X125497698Y-120904249D01*
X125648662Y-121013931D01*
X125814926Y-121098646D01*
X125814928Y-121098647D01*
X125992391Y-121156308D01*
X125992392Y-121156308D01*
X125992395Y-121156309D01*
X126176699Y-121185500D01*
X126176700Y-121185500D01*
X126363300Y-121185500D01*
X126363301Y-121185500D01*
X126547605Y-121156309D01*
X126547608Y-121156308D01*
X126547609Y-121156308D01*
X126725071Y-121098647D01*
X126725071Y-121098646D01*
X126725074Y-121098646D01*
X126891338Y-121013931D01*
X127042302Y-120904249D01*
X127174249Y-120772302D01*
X127283931Y-120621338D01*
X127368646Y-120455074D01*
X127382569Y-120412224D01*
X127422069Y-120290656D01*
X127461506Y-120232980D01*
X127525865Y-120205782D01*
X127594711Y-120217697D01*
X127646187Y-120264941D01*
X127657931Y-120290656D01*
X127711352Y-120455071D01*
X127711354Y-120455074D01*
X127796069Y-120621338D01*
X127905751Y-120772302D01*
X128037698Y-120904249D01*
X128188662Y-121013931D01*
X128354926Y-121098646D01*
X128354928Y-121098647D01*
X128532391Y-121156308D01*
X128532392Y-121156308D01*
X128532395Y-121156309D01*
X128716699Y-121185500D01*
X128716700Y-121185500D01*
X128903300Y-121185500D01*
X128903301Y-121185500D01*
X129087605Y-121156309D01*
X129087608Y-121156308D01*
X129087609Y-121156308D01*
X129265071Y-121098647D01*
X129265071Y-121098646D01*
X129265074Y-121098646D01*
X129431338Y-121013931D01*
X129582302Y-120904249D01*
X129714249Y-120772302D01*
X129823931Y-120621338D01*
X129908646Y-120455074D01*
X129922569Y-120412224D01*
X129962069Y-120290656D01*
X130001506Y-120232980D01*
X130065865Y-120205782D01*
X130134711Y-120217697D01*
X130186187Y-120264941D01*
X130197931Y-120290656D01*
X130251352Y-120455071D01*
X130251354Y-120455074D01*
X130336069Y-120621338D01*
X130445751Y-120772302D01*
X130577698Y-120904249D01*
X130728662Y-121013931D01*
X130894926Y-121098646D01*
X130894928Y-121098647D01*
X131072391Y-121156308D01*
X131072392Y-121156308D01*
X131072395Y-121156309D01*
X131205700Y-121177422D01*
X131268833Y-121207351D01*
X131305765Y-121266662D01*
X131304767Y-121336525D01*
X131266158Y-121394758D01*
X131228087Y-121416642D01*
X131219463Y-121419728D01*
X131166503Y-121430263D01*
X131020821Y-121490606D01*
X131020114Y-121491078D01*
X131014055Y-121493247D01*
X131006530Y-121493684D01*
X130972269Y-121500500D01*
X85915915Y-121500500D01*
X85848876Y-121480815D01*
X85803121Y-121428011D01*
X85799733Y-121419833D01*
X85753797Y-121296671D01*
X85753793Y-121296664D01*
X85702123Y-121227643D01*
X85667546Y-121181454D01*
X85599166Y-121130265D01*
X85557297Y-121074333D01*
X85552313Y-121004641D01*
X85585798Y-120943318D01*
X85599161Y-120931738D01*
X85667546Y-120880546D01*
X85753796Y-120765331D01*
X85804091Y-120630483D01*
X85810500Y-120570873D01*
X85810499Y-119681938D01*
X85830183Y-119614900D01*
X85846813Y-119594263D01*
X86804259Y-118636819D01*
X86865582Y-118603334D01*
X86891940Y-118600500D01*
X95477953Y-118600500D01*
X95544992Y-118620185D01*
G37*
%TD.AperFunction*%
%TA.AperFunction,Conductor*%
G36*
X165963099Y-118620185D02*
G01*
X165983741Y-118636819D01*
X167618211Y-120271289D01*
X167674270Y-120327348D01*
X167729712Y-120382790D01*
X167860814Y-120470390D01*
X167860827Y-120470397D01*
X168006498Y-120530735D01*
X168006503Y-120530737D01*
X168161153Y-120561499D01*
X168161156Y-120561500D01*
X168161158Y-120561500D01*
X168210500Y-120561500D01*
X168277539Y-120581185D01*
X168323294Y-120633989D01*
X168334500Y-120685500D01*
X168334500Y-120761002D01*
X168339644Y-120832940D01*
X168380182Y-120970994D01*
X168383867Y-120979063D01*
X168382102Y-120979868D01*
X168398606Y-121036065D01*
X168387401Y-121087582D01*
X168354976Y-121158583D01*
X168354975Y-121158585D01*
X168334500Y-121300999D01*
X168334500Y-121376500D01*
X168314815Y-121443539D01*
X168262011Y-121489294D01*
X168210500Y-121500500D01*
X131827731Y-121500500D01*
X131780279Y-121491061D01*
X131633501Y-121430264D01*
X131633491Y-121430261D01*
X131545178Y-121412694D01*
X131483267Y-121380308D01*
X131448693Y-121319592D01*
X131452434Y-121249823D01*
X131493301Y-121193151D01*
X131549968Y-121168605D01*
X131627605Y-121156309D01*
X131627610Y-121156307D01*
X131627612Y-121156307D01*
X131805071Y-121098647D01*
X131805071Y-121098646D01*
X131805074Y-121098646D01*
X131971338Y-121013931D01*
X132122302Y-120904249D01*
X132254249Y-120772302D01*
X132363931Y-120621338D01*
X132448646Y-120455074D01*
X132462569Y-120412224D01*
X132502069Y-120290656D01*
X132541506Y-120232980D01*
X132605865Y-120205782D01*
X132674711Y-120217697D01*
X132726187Y-120264941D01*
X132737931Y-120290656D01*
X132791352Y-120455071D01*
X132791354Y-120455074D01*
X132876069Y-120621338D01*
X132985751Y-120772302D01*
X133117698Y-120904249D01*
X133268662Y-121013931D01*
X133434926Y-121098646D01*
X133434928Y-121098647D01*
X133612391Y-121156308D01*
X133612392Y-121156308D01*
X133612395Y-121156309D01*
X133796699Y-121185500D01*
X133796700Y-121185500D01*
X133983300Y-121185500D01*
X133983301Y-121185500D01*
X134167605Y-121156309D01*
X134167608Y-121156308D01*
X134167609Y-121156308D01*
X134345071Y-121098647D01*
X134345071Y-121098646D01*
X134345074Y-121098646D01*
X134511338Y-121013931D01*
X134662302Y-120904249D01*
X134794249Y-120772302D01*
X134903931Y-120621338D01*
X134988646Y-120455074D01*
X135002569Y-120412224D01*
X135042069Y-120290656D01*
X135081506Y-120232980D01*
X135145865Y-120205782D01*
X135214711Y-120217697D01*
X135266187Y-120264941D01*
X135277931Y-120290656D01*
X135331352Y-120455071D01*
X135331354Y-120455074D01*
X135416069Y-120621338D01*
X135525751Y-120772302D01*
X135657698Y-120904249D01*
X135808662Y-121013931D01*
X135974926Y-121098646D01*
X135974928Y-121098647D01*
X136152391Y-121156308D01*
X136152392Y-121156308D01*
X136152395Y-121156309D01*
X136336699Y-121185500D01*
X136336700Y-121185500D01*
X136523300Y-121185500D01*
X136523301Y-121185500D01*
X136707605Y-121156309D01*
X136707608Y-121156308D01*
X136707609Y-121156308D01*
X136885071Y-121098647D01*
X136885071Y-121098646D01*
X136885074Y-121098646D01*
X137051338Y-121013931D01*
X137202302Y-120904249D01*
X137334249Y-120772302D01*
X137443931Y-120621338D01*
X137528646Y-120455074D01*
X137542569Y-120412224D01*
X137582069Y-120290656D01*
X137621506Y-120232980D01*
X137685865Y-120205782D01*
X137754711Y-120217697D01*
X137806187Y-120264941D01*
X137817931Y-120290656D01*
X137871352Y-120455071D01*
X137871354Y-120455074D01*
X137956069Y-120621338D01*
X138065751Y-120772302D01*
X138197698Y-120904249D01*
X138348662Y-121013931D01*
X138514926Y-121098646D01*
X138514928Y-121098647D01*
X138692391Y-121156308D01*
X138692392Y-121156308D01*
X138692395Y-121156309D01*
X138876699Y-121185500D01*
X138876700Y-121185500D01*
X139063300Y-121185500D01*
X139063301Y-121185500D01*
X139247605Y-121156309D01*
X139247608Y-121156308D01*
X139247609Y-121156308D01*
X139425071Y-121098647D01*
X139425071Y-121098646D01*
X139425074Y-121098646D01*
X139591338Y-121013931D01*
X139742302Y-120904249D01*
X139874249Y-120772302D01*
X139983931Y-120621338D01*
X140068646Y-120455074D01*
X140082569Y-120412224D01*
X140122069Y-120290656D01*
X140161506Y-120232980D01*
X140225865Y-120205782D01*
X140294711Y-120217697D01*
X140346187Y-120264941D01*
X140357931Y-120290656D01*
X140411352Y-120455071D01*
X140411354Y-120455074D01*
X140496069Y-120621338D01*
X140605751Y-120772302D01*
X140737698Y-120904249D01*
X140888662Y-121013931D01*
X141054926Y-121098646D01*
X141054928Y-121098647D01*
X141232391Y-121156308D01*
X141232392Y-121156308D01*
X141232395Y-121156309D01*
X141416699Y-121185500D01*
X141416700Y-121185500D01*
X141603300Y-121185500D01*
X141603301Y-121185500D01*
X141787605Y-121156309D01*
X141787608Y-121156308D01*
X141787609Y-121156308D01*
X141965071Y-121098647D01*
X141965071Y-121098646D01*
X141965074Y-121098646D01*
X142131338Y-121013931D01*
X142282302Y-120904249D01*
X142414249Y-120772302D01*
X142523931Y-120621338D01*
X142608646Y-120455074D01*
X142622569Y-120412224D01*
X142662069Y-120290656D01*
X142701506Y-120232980D01*
X142765865Y-120205782D01*
X142834711Y-120217697D01*
X142886187Y-120264941D01*
X142897931Y-120290656D01*
X142951352Y-120455071D01*
X142951354Y-120455074D01*
X143036069Y-120621338D01*
X143145751Y-120772302D01*
X143277698Y-120904249D01*
X143428662Y-121013931D01*
X143594926Y-121098646D01*
X143594928Y-121098647D01*
X143772391Y-121156308D01*
X143772392Y-121156308D01*
X143772395Y-121156309D01*
X143956699Y-121185500D01*
X143956700Y-121185500D01*
X144143300Y-121185500D01*
X144143301Y-121185500D01*
X144327605Y-121156309D01*
X144327608Y-121156308D01*
X144327609Y-121156308D01*
X144505071Y-121098647D01*
X144505071Y-121098646D01*
X144505074Y-121098646D01*
X144671338Y-121013931D01*
X144822302Y-120904249D01*
X144954249Y-120772302D01*
X145063931Y-120621338D01*
X145148646Y-120455074D01*
X145162569Y-120412224D01*
X145202069Y-120290656D01*
X145241506Y-120232980D01*
X145305865Y-120205782D01*
X145374711Y-120217697D01*
X145426187Y-120264941D01*
X145437931Y-120290656D01*
X145491352Y-120455071D01*
X145491354Y-120455074D01*
X145576069Y-120621338D01*
X145685751Y-120772302D01*
X145817698Y-120904249D01*
X145968662Y-121013931D01*
X146134926Y-121098646D01*
X146134928Y-121098647D01*
X146312391Y-121156308D01*
X146312392Y-121156308D01*
X146312395Y-121156309D01*
X146496699Y-121185500D01*
X146496700Y-121185500D01*
X146683300Y-121185500D01*
X146683301Y-121185500D01*
X146867605Y-121156309D01*
X146867608Y-121156308D01*
X146867609Y-121156308D01*
X147045071Y-121098647D01*
X147045071Y-121098646D01*
X147045074Y-121098646D01*
X147211338Y-121013931D01*
X147362302Y-120904249D01*
X147494249Y-120772302D01*
X147603931Y-120621338D01*
X147688646Y-120455074D01*
X147702569Y-120412224D01*
X147742069Y-120290656D01*
X147781506Y-120232980D01*
X147845865Y-120205782D01*
X147914711Y-120217697D01*
X147966187Y-120264941D01*
X147977931Y-120290656D01*
X148031352Y-120455071D01*
X148031354Y-120455074D01*
X148116069Y-120621338D01*
X148225751Y-120772302D01*
X148357698Y-120904249D01*
X148508662Y-121013931D01*
X148674926Y-121098646D01*
X148674928Y-121098647D01*
X148852391Y-121156308D01*
X148852392Y-121156308D01*
X148852395Y-121156309D01*
X149036699Y-121185500D01*
X149036700Y-121185500D01*
X149223300Y-121185500D01*
X149223301Y-121185500D01*
X149407605Y-121156309D01*
X149407608Y-121156308D01*
X149407609Y-121156308D01*
X149585071Y-121098647D01*
X149585071Y-121098646D01*
X149585074Y-121098646D01*
X149751338Y-121013931D01*
X149902302Y-120904249D01*
X150034249Y-120772302D01*
X150143931Y-120621338D01*
X150228646Y-120455074D01*
X150242569Y-120412224D01*
X150282069Y-120290656D01*
X150321506Y-120232980D01*
X150385865Y-120205782D01*
X150454711Y-120217697D01*
X150506187Y-120264941D01*
X150517931Y-120290656D01*
X150571352Y-120455071D01*
X150571354Y-120455074D01*
X150656069Y-120621338D01*
X150765751Y-120772302D01*
X150897698Y-120904249D01*
X151048662Y-121013931D01*
X151214926Y-121098646D01*
X151214928Y-121098647D01*
X151392391Y-121156308D01*
X151392392Y-121156308D01*
X151392395Y-121156309D01*
X151576699Y-121185500D01*
X151576700Y-121185500D01*
X151763300Y-121185500D01*
X151763301Y-121185500D01*
X151947605Y-121156309D01*
X151947608Y-121156308D01*
X151947609Y-121156308D01*
X152125071Y-121098647D01*
X152125071Y-121098646D01*
X152125074Y-121098646D01*
X152291338Y-121013931D01*
X152442302Y-120904249D01*
X152574249Y-120772302D01*
X152683931Y-120621338D01*
X152768646Y-120455074D01*
X152782569Y-120412221D01*
X152822005Y-120354548D01*
X152886363Y-120327348D01*
X152955210Y-120339262D01*
X153006686Y-120386505D01*
X153024500Y-120450540D01*
X153024500Y-120732869D01*
X153024501Y-120732876D01*
X153030908Y-120792483D01*
X153081202Y-120927328D01*
X153081206Y-120927335D01*
X153167452Y-121042544D01*
X153167455Y-121042547D01*
X153282664Y-121128793D01*
X153282671Y-121128797D01*
X153417517Y-121179091D01*
X153417516Y-121179091D01*
X153424444Y-121179835D01*
X153477127Y-121185500D01*
X154942872Y-121185499D01*
X155002483Y-121179091D01*
X155137331Y-121128796D01*
X155252546Y-121042546D01*
X155338796Y-120927331D01*
X155389091Y-120792483D01*
X155395500Y-120732873D01*
X155395499Y-119267128D01*
X155389091Y-119207517D01*
X155358766Y-119126212D01*
X155338797Y-119072671D01*
X155338793Y-119072664D01*
X155252547Y-118957455D01*
X155252544Y-118957452D01*
X155137335Y-118871206D01*
X155137328Y-118871202D01*
X155055498Y-118840682D01*
X154999564Y-118798811D01*
X154975147Y-118733347D01*
X154989998Y-118665074D01*
X155039403Y-118615668D01*
X155098831Y-118600500D01*
X165896060Y-118600500D01*
X165963099Y-118620185D01*
G37*
%TD.AperFunction*%
%TA.AperFunction,Conductor*%
G36*
X166867099Y-109364185D02*
G01*
X166887741Y-109380819D01*
X167729707Y-110222786D01*
X167729711Y-110222789D01*
X167860814Y-110310390D01*
X167860818Y-110310392D01*
X167860821Y-110310394D01*
X168006503Y-110370738D01*
X168161153Y-110401499D01*
X168161157Y-110401500D01*
X168161158Y-110401500D01*
X168210500Y-110401500D01*
X168277539Y-110421185D01*
X168323294Y-110473989D01*
X168334500Y-110525500D01*
X168334500Y-110601002D01*
X168339644Y-110672940D01*
X168380182Y-110810994D01*
X168383867Y-110819063D01*
X168382102Y-110819868D01*
X168398606Y-110876065D01*
X168387401Y-110927582D01*
X168354976Y-110998583D01*
X168354975Y-110998585D01*
X168334500Y-111140999D01*
X168334500Y-111216500D01*
X168314815Y-111283539D01*
X168262011Y-111329294D01*
X168210500Y-111340500D01*
X155227088Y-111340500D01*
X155160049Y-111320815D01*
X155114294Y-111268011D01*
X155104350Y-111198853D01*
X155133375Y-111135297D01*
X155152777Y-111117234D01*
X155216589Y-111069463D01*
X155252546Y-111042546D01*
X155338796Y-110927331D01*
X155389091Y-110792483D01*
X155395500Y-110732873D01*
X155395499Y-109468499D01*
X155415184Y-109401461D01*
X155467987Y-109355706D01*
X155519499Y-109344500D01*
X166800060Y-109344500D01*
X166867099Y-109364185D01*
G37*
%TD.AperFunction*%
%TA.AperFunction,Conductor*%
G36*
X94634648Y-99420185D02*
G01*
X94680403Y-99472989D01*
X94690347Y-99542147D01*
X94685540Y-99562818D01*
X94633691Y-99722390D01*
X94633691Y-99722393D01*
X94633691Y-99722395D01*
X94604500Y-99906699D01*
X94604500Y-100093301D01*
X94619095Y-100185453D01*
X94633691Y-100277606D01*
X94633691Y-100277609D01*
X94691352Y-100455071D01*
X94691354Y-100455074D01*
X94776069Y-100621338D01*
X94885751Y-100772302D01*
X95017698Y-100904249D01*
X95168662Y-101013931D01*
X95334926Y-101098646D01*
X95334928Y-101098647D01*
X95512391Y-101156308D01*
X95512392Y-101156308D01*
X95512395Y-101156309D01*
X95696699Y-101185500D01*
X95696700Y-101185500D01*
X95883300Y-101185500D01*
X95883301Y-101185500D01*
X96067605Y-101156309D01*
X96067608Y-101156308D01*
X96067609Y-101156308D01*
X96245071Y-101098647D01*
X96245071Y-101098646D01*
X96245074Y-101098646D01*
X96411338Y-101013931D01*
X96562302Y-100904249D01*
X96694249Y-100772302D01*
X96803931Y-100621338D01*
X96888646Y-100455074D01*
X96902569Y-100412224D01*
X96942069Y-100290656D01*
X96981506Y-100232980D01*
X97045865Y-100205782D01*
X97114711Y-100217697D01*
X97166187Y-100264941D01*
X97177931Y-100290656D01*
X97231352Y-100455071D01*
X97231354Y-100455074D01*
X97316069Y-100621338D01*
X97425751Y-100772302D01*
X97557698Y-100904249D01*
X97708662Y-101013931D01*
X97874926Y-101098646D01*
X97874928Y-101098647D01*
X98052391Y-101156308D01*
X98052392Y-101156308D01*
X98052395Y-101156309D01*
X98236699Y-101185500D01*
X98236700Y-101185500D01*
X98423300Y-101185500D01*
X98423301Y-101185500D01*
X98607605Y-101156309D01*
X98607608Y-101156308D01*
X98607609Y-101156308D01*
X98785071Y-101098647D01*
X98785071Y-101098646D01*
X98785074Y-101098646D01*
X98951338Y-101013931D01*
X99102302Y-100904249D01*
X99234249Y-100772302D01*
X99343931Y-100621338D01*
X99428646Y-100455074D01*
X99442569Y-100412224D01*
X99482069Y-100290656D01*
X99521506Y-100232980D01*
X99585865Y-100205782D01*
X99654711Y-100217697D01*
X99706187Y-100264941D01*
X99717931Y-100290656D01*
X99771352Y-100455071D01*
X99771354Y-100455074D01*
X99856069Y-100621338D01*
X99965751Y-100772302D01*
X100097698Y-100904249D01*
X100248662Y-101013931D01*
X100414926Y-101098646D01*
X100414928Y-101098647D01*
X100592391Y-101156308D01*
X100592392Y-101156308D01*
X100592395Y-101156309D01*
X100776699Y-101185500D01*
X100776700Y-101185500D01*
X100963300Y-101185500D01*
X100963301Y-101185500D01*
X101147605Y-101156309D01*
X101147608Y-101156308D01*
X101147609Y-101156308D01*
X101325071Y-101098647D01*
X101325071Y-101098646D01*
X101325074Y-101098646D01*
X101491338Y-101013931D01*
X101642302Y-100904249D01*
X101774249Y-100772302D01*
X101883931Y-100621338D01*
X101968646Y-100455074D01*
X101982569Y-100412224D01*
X102022069Y-100290656D01*
X102061506Y-100232980D01*
X102125865Y-100205782D01*
X102194711Y-100217697D01*
X102246187Y-100264941D01*
X102257931Y-100290656D01*
X102311352Y-100455071D01*
X102311354Y-100455074D01*
X102396069Y-100621338D01*
X102505751Y-100772302D01*
X102637698Y-100904249D01*
X102788662Y-101013931D01*
X102954926Y-101098646D01*
X102954928Y-101098647D01*
X103132391Y-101156308D01*
X103132392Y-101156308D01*
X103132395Y-101156309D01*
X103316699Y-101185500D01*
X103316700Y-101185500D01*
X103503300Y-101185500D01*
X103503301Y-101185500D01*
X103687605Y-101156309D01*
X103687608Y-101156308D01*
X103687609Y-101156308D01*
X103865071Y-101098647D01*
X103865071Y-101098646D01*
X103865074Y-101098646D01*
X104031338Y-101013931D01*
X104182302Y-100904249D01*
X104314249Y-100772302D01*
X104423931Y-100621338D01*
X104508646Y-100455074D01*
X104522569Y-100412224D01*
X104562069Y-100290656D01*
X104601506Y-100232980D01*
X104665865Y-100205782D01*
X104734711Y-100217697D01*
X104786187Y-100264941D01*
X104797931Y-100290656D01*
X104851352Y-100455071D01*
X104851354Y-100455074D01*
X104936069Y-100621338D01*
X105045751Y-100772302D01*
X105177698Y-100904249D01*
X105328662Y-101013931D01*
X105494926Y-101098646D01*
X105494928Y-101098647D01*
X105672391Y-101156308D01*
X105672392Y-101156308D01*
X105672395Y-101156309D01*
X105856699Y-101185500D01*
X105856700Y-101185500D01*
X106043300Y-101185500D01*
X106043301Y-101185500D01*
X106227605Y-101156309D01*
X106227608Y-101156308D01*
X106227609Y-101156308D01*
X106405071Y-101098647D01*
X106405071Y-101098646D01*
X106405074Y-101098646D01*
X106571338Y-101013931D01*
X106722302Y-100904249D01*
X106854249Y-100772302D01*
X106963931Y-100621338D01*
X107048646Y-100455074D01*
X107062569Y-100412224D01*
X107102069Y-100290656D01*
X107141506Y-100232980D01*
X107205865Y-100205782D01*
X107274711Y-100217697D01*
X107326187Y-100264941D01*
X107337931Y-100290656D01*
X107391352Y-100455071D01*
X107391354Y-100455074D01*
X107476069Y-100621338D01*
X107585751Y-100772302D01*
X107717698Y-100904249D01*
X107868662Y-101013931D01*
X108034926Y-101098646D01*
X108034928Y-101098647D01*
X108212391Y-101156308D01*
X108212392Y-101156308D01*
X108212395Y-101156309D01*
X108396699Y-101185500D01*
X108396700Y-101185500D01*
X108583300Y-101185500D01*
X108583301Y-101185500D01*
X108767605Y-101156309D01*
X108767608Y-101156308D01*
X108767609Y-101156308D01*
X108945071Y-101098647D01*
X108945071Y-101098646D01*
X108945074Y-101098646D01*
X109111338Y-101013931D01*
X109262302Y-100904249D01*
X109394249Y-100772302D01*
X109503931Y-100621338D01*
X109588646Y-100455074D01*
X109602569Y-100412224D01*
X109642069Y-100290656D01*
X109681506Y-100232980D01*
X109745865Y-100205782D01*
X109814711Y-100217697D01*
X109866187Y-100264941D01*
X109877931Y-100290656D01*
X109931352Y-100455071D01*
X109931354Y-100455074D01*
X110016069Y-100621338D01*
X110125751Y-100772302D01*
X110257698Y-100904249D01*
X110408662Y-101013931D01*
X110574926Y-101098646D01*
X110574928Y-101098647D01*
X110752391Y-101156308D01*
X110752392Y-101156308D01*
X110752395Y-101156309D01*
X110936699Y-101185500D01*
X110936700Y-101185500D01*
X111123300Y-101185500D01*
X111123301Y-101185500D01*
X111307605Y-101156309D01*
X111307608Y-101156308D01*
X111307609Y-101156308D01*
X111485071Y-101098647D01*
X111485071Y-101098646D01*
X111485074Y-101098646D01*
X111651338Y-101013931D01*
X111802302Y-100904249D01*
X111934249Y-100772302D01*
X112043931Y-100621338D01*
X112128646Y-100455074D01*
X112142569Y-100412224D01*
X112182069Y-100290656D01*
X112221506Y-100232980D01*
X112285865Y-100205782D01*
X112354711Y-100217697D01*
X112406187Y-100264941D01*
X112417931Y-100290656D01*
X112471352Y-100455071D01*
X112471354Y-100455074D01*
X112556069Y-100621338D01*
X112665751Y-100772302D01*
X112797698Y-100904249D01*
X112948662Y-101013931D01*
X113114926Y-101098646D01*
X113114928Y-101098647D01*
X113292391Y-101156308D01*
X113292392Y-101156308D01*
X113292395Y-101156309D01*
X113476699Y-101185500D01*
X113476700Y-101185500D01*
X113663300Y-101185500D01*
X113663301Y-101185500D01*
X113847605Y-101156309D01*
X113847608Y-101156308D01*
X113847609Y-101156308D01*
X114025071Y-101098647D01*
X114025071Y-101098646D01*
X114025074Y-101098646D01*
X114191338Y-101013931D01*
X114342302Y-100904249D01*
X114474249Y-100772302D01*
X114583931Y-100621338D01*
X114668646Y-100455074D01*
X114682569Y-100412224D01*
X114722069Y-100290656D01*
X114761506Y-100232980D01*
X114825865Y-100205782D01*
X114894711Y-100217697D01*
X114946187Y-100264941D01*
X114957931Y-100290656D01*
X115011352Y-100455071D01*
X115011354Y-100455074D01*
X115096069Y-100621338D01*
X115205751Y-100772302D01*
X115337698Y-100904249D01*
X115488662Y-101013931D01*
X115654926Y-101098646D01*
X115654928Y-101098647D01*
X115832391Y-101156308D01*
X115832392Y-101156308D01*
X115832395Y-101156309D01*
X116016699Y-101185500D01*
X116016700Y-101185500D01*
X116203300Y-101185500D01*
X116203301Y-101185500D01*
X116387605Y-101156309D01*
X116387608Y-101156308D01*
X116387609Y-101156308D01*
X116565071Y-101098647D01*
X116565071Y-101098646D01*
X116565074Y-101098646D01*
X116731338Y-101013931D01*
X116882302Y-100904249D01*
X117014249Y-100772302D01*
X117123931Y-100621338D01*
X117208646Y-100455074D01*
X117222569Y-100412224D01*
X117262069Y-100290656D01*
X117301506Y-100232980D01*
X117365865Y-100205782D01*
X117434711Y-100217697D01*
X117486187Y-100264941D01*
X117497931Y-100290656D01*
X117551352Y-100455071D01*
X117551354Y-100455074D01*
X117636069Y-100621338D01*
X117745751Y-100772302D01*
X117877698Y-100904249D01*
X118028662Y-101013931D01*
X118194926Y-101098646D01*
X118194928Y-101098647D01*
X118372391Y-101156308D01*
X118372392Y-101156308D01*
X118372395Y-101156309D01*
X118556699Y-101185500D01*
X118556700Y-101185500D01*
X118743300Y-101185500D01*
X118743301Y-101185500D01*
X118927605Y-101156309D01*
X118927608Y-101156308D01*
X118927609Y-101156308D01*
X119105071Y-101098647D01*
X119105071Y-101098646D01*
X119105074Y-101098646D01*
X119271338Y-101013931D01*
X119422302Y-100904249D01*
X119554249Y-100772302D01*
X119663931Y-100621338D01*
X119748646Y-100455074D01*
X119762569Y-100412224D01*
X119802069Y-100290656D01*
X119841506Y-100232980D01*
X119905865Y-100205782D01*
X119974711Y-100217697D01*
X120026187Y-100264941D01*
X120037931Y-100290656D01*
X120091352Y-100455071D01*
X120091354Y-100455074D01*
X120176069Y-100621338D01*
X120285751Y-100772302D01*
X120417698Y-100904249D01*
X120568662Y-101013931D01*
X120734926Y-101098646D01*
X120734928Y-101098647D01*
X120912391Y-101156308D01*
X120912392Y-101156308D01*
X120912395Y-101156309D01*
X121096699Y-101185500D01*
X121096700Y-101185500D01*
X121283300Y-101185500D01*
X121283301Y-101185500D01*
X121467605Y-101156309D01*
X121467608Y-101156308D01*
X121467609Y-101156308D01*
X121645071Y-101098647D01*
X121645071Y-101098646D01*
X121645074Y-101098646D01*
X121811338Y-101013931D01*
X121962302Y-100904249D01*
X122094249Y-100772302D01*
X122203931Y-100621338D01*
X122288646Y-100455074D01*
X122302569Y-100412224D01*
X122342069Y-100290656D01*
X122381506Y-100232980D01*
X122445865Y-100205782D01*
X122514711Y-100217697D01*
X122566187Y-100264941D01*
X122577931Y-100290656D01*
X122631352Y-100455071D01*
X122631354Y-100455074D01*
X122716069Y-100621338D01*
X122825751Y-100772302D01*
X122957698Y-100904249D01*
X123108662Y-101013931D01*
X123274926Y-101098646D01*
X123274928Y-101098647D01*
X123452391Y-101156308D01*
X123452392Y-101156308D01*
X123452395Y-101156309D01*
X123636699Y-101185500D01*
X123636700Y-101185500D01*
X123823300Y-101185500D01*
X123823301Y-101185500D01*
X124007605Y-101156309D01*
X124007608Y-101156308D01*
X124007609Y-101156308D01*
X124185071Y-101098647D01*
X124185071Y-101098646D01*
X124185074Y-101098646D01*
X124351338Y-101013931D01*
X124502302Y-100904249D01*
X124634249Y-100772302D01*
X124743931Y-100621338D01*
X124828646Y-100455074D01*
X124842569Y-100412224D01*
X124882069Y-100290656D01*
X124921506Y-100232980D01*
X124985865Y-100205782D01*
X125054711Y-100217697D01*
X125106187Y-100264941D01*
X125117931Y-100290656D01*
X125171352Y-100455071D01*
X125171354Y-100455074D01*
X125256069Y-100621338D01*
X125365751Y-100772302D01*
X125497698Y-100904249D01*
X125648662Y-101013931D01*
X125814926Y-101098646D01*
X125814928Y-101098647D01*
X125992391Y-101156308D01*
X125992392Y-101156308D01*
X125992395Y-101156309D01*
X126176699Y-101185500D01*
X126176700Y-101185500D01*
X126363300Y-101185500D01*
X126363301Y-101185500D01*
X126547605Y-101156309D01*
X126547608Y-101156308D01*
X126547609Y-101156308D01*
X126725071Y-101098647D01*
X126725071Y-101098646D01*
X126725074Y-101098646D01*
X126891338Y-101013931D01*
X127042302Y-100904249D01*
X127174249Y-100772302D01*
X127283931Y-100621338D01*
X127368646Y-100455074D01*
X127382569Y-100412224D01*
X127422069Y-100290656D01*
X127461506Y-100232980D01*
X127525865Y-100205782D01*
X127594711Y-100217697D01*
X127646187Y-100264941D01*
X127657931Y-100290656D01*
X127711352Y-100455071D01*
X127711354Y-100455074D01*
X127796069Y-100621338D01*
X127905751Y-100772302D01*
X128037698Y-100904249D01*
X128188662Y-101013931D01*
X128354926Y-101098646D01*
X128354928Y-101098647D01*
X128467190Y-101135123D01*
X128524865Y-101174560D01*
X128552064Y-101238919D01*
X128540149Y-101307765D01*
X128492905Y-101359241D01*
X128476325Y-101367615D01*
X128420824Y-101390604D01*
X128420814Y-101390609D01*
X128289711Y-101478210D01*
X128289707Y-101478213D01*
X128178213Y-101589707D01*
X128178210Y-101589711D01*
X128090609Y-101720814D01*
X128090602Y-101720827D01*
X128030264Y-101866498D01*
X128030261Y-101866510D01*
X127999500Y-102021153D01*
X127999500Y-102178846D01*
X128030261Y-102333489D01*
X128030264Y-102333501D01*
X128090602Y-102479172D01*
X128090609Y-102479185D01*
X128178210Y-102610288D01*
X128178213Y-102610292D01*
X128289707Y-102721786D01*
X128289711Y-102721789D01*
X128420814Y-102809390D01*
X128420827Y-102809397D01*
X128519751Y-102850372D01*
X128566503Y-102869737D01*
X128721153Y-102900499D01*
X128721156Y-102900500D01*
X128721158Y-102900500D01*
X128878844Y-102900500D01*
X128878845Y-102900499D01*
X129033497Y-102869737D01*
X129179179Y-102809394D01*
X129310289Y-102721789D01*
X129421789Y-102610289D01*
X129509394Y-102479179D01*
X129569737Y-102333497D01*
X129600500Y-102178842D01*
X129600500Y-102021158D01*
X129600500Y-102021155D01*
X129600499Y-102021153D01*
X129569738Y-101866510D01*
X129569737Y-101866503D01*
X129518252Y-101742206D01*
X129509397Y-101720827D01*
X129509390Y-101720814D01*
X129421789Y-101589711D01*
X129421786Y-101589707D01*
X129310292Y-101478213D01*
X129310288Y-101478210D01*
X129179185Y-101390609D01*
X129179172Y-101390602D01*
X129132467Y-101371257D01*
X129078063Y-101327417D01*
X129055998Y-101261123D01*
X129073277Y-101193423D01*
X129124414Y-101145812D01*
X129141601Y-101138765D01*
X129265071Y-101098647D01*
X129265071Y-101098646D01*
X129265074Y-101098646D01*
X129431338Y-101013931D01*
X129582302Y-100904249D01*
X129714249Y-100772302D01*
X129823931Y-100621338D01*
X129908646Y-100455074D01*
X129922569Y-100412224D01*
X129962069Y-100290656D01*
X130001506Y-100232980D01*
X130065865Y-100205782D01*
X130134711Y-100217697D01*
X130186187Y-100264941D01*
X130197931Y-100290656D01*
X130251352Y-100455071D01*
X130251354Y-100455074D01*
X130336069Y-100621338D01*
X130445751Y-100772302D01*
X130577698Y-100904249D01*
X130728662Y-101013931D01*
X130894926Y-101098646D01*
X130894928Y-101098647D01*
X131072391Y-101156308D01*
X131072392Y-101156308D01*
X131072395Y-101156309D01*
X131256699Y-101185500D01*
X131256700Y-101185500D01*
X131443300Y-101185500D01*
X131443301Y-101185500D01*
X131627605Y-101156309D01*
X131627608Y-101156308D01*
X131627609Y-101156308D01*
X131805071Y-101098647D01*
X131805071Y-101098646D01*
X131805074Y-101098646D01*
X131971338Y-101013931D01*
X132122302Y-100904249D01*
X132254249Y-100772302D01*
X132363931Y-100621338D01*
X132448646Y-100455074D01*
X132462569Y-100412224D01*
X132502069Y-100290656D01*
X132541506Y-100232980D01*
X132605865Y-100205782D01*
X132674711Y-100217697D01*
X132726187Y-100264941D01*
X132737931Y-100290656D01*
X132791352Y-100455071D01*
X132791354Y-100455074D01*
X132876069Y-100621338D01*
X132985751Y-100772302D01*
X133117698Y-100904249D01*
X133268662Y-101013931D01*
X133434926Y-101098646D01*
X133434928Y-101098647D01*
X133612391Y-101156308D01*
X133612392Y-101156308D01*
X133612395Y-101156309D01*
X133796699Y-101185500D01*
X133796700Y-101185500D01*
X133983300Y-101185500D01*
X133983301Y-101185500D01*
X134167605Y-101156309D01*
X134167608Y-101156308D01*
X134167609Y-101156308D01*
X134345071Y-101098647D01*
X134345071Y-101098646D01*
X134345074Y-101098646D01*
X134511338Y-101013931D01*
X134662302Y-100904249D01*
X134794249Y-100772302D01*
X134903931Y-100621338D01*
X134988646Y-100455074D01*
X135002569Y-100412224D01*
X135042069Y-100290656D01*
X135081506Y-100232980D01*
X135145865Y-100205782D01*
X135214711Y-100217697D01*
X135266187Y-100264941D01*
X135277931Y-100290656D01*
X135331352Y-100455071D01*
X135331354Y-100455074D01*
X135416069Y-100621338D01*
X135525751Y-100772302D01*
X135657698Y-100904249D01*
X135808662Y-101013931D01*
X135974926Y-101098646D01*
X135974928Y-101098647D01*
X136152391Y-101156308D01*
X136152392Y-101156308D01*
X136152395Y-101156309D01*
X136336699Y-101185500D01*
X136336700Y-101185500D01*
X136523300Y-101185500D01*
X136523301Y-101185500D01*
X136707605Y-101156309D01*
X136707608Y-101156308D01*
X136707609Y-101156308D01*
X136885071Y-101098647D01*
X136885071Y-101098646D01*
X136885074Y-101098646D01*
X137051338Y-101013931D01*
X137202302Y-100904249D01*
X137334249Y-100772302D01*
X137443931Y-100621338D01*
X137528646Y-100455074D01*
X137542569Y-100412224D01*
X137582069Y-100290656D01*
X137621506Y-100232980D01*
X137685865Y-100205782D01*
X137754711Y-100217697D01*
X137806187Y-100264941D01*
X137817931Y-100290656D01*
X137871352Y-100455071D01*
X137871354Y-100455074D01*
X137956069Y-100621338D01*
X138065751Y-100772302D01*
X138197698Y-100904249D01*
X138348662Y-101013931D01*
X138514926Y-101098646D01*
X138514928Y-101098647D01*
X138692391Y-101156308D01*
X138692392Y-101156308D01*
X138692395Y-101156309D01*
X138876699Y-101185500D01*
X138876700Y-101185500D01*
X139063300Y-101185500D01*
X139063301Y-101185500D01*
X139247605Y-101156309D01*
X139247608Y-101156308D01*
X139247609Y-101156308D01*
X139425071Y-101098647D01*
X139425071Y-101098646D01*
X139425074Y-101098646D01*
X139591338Y-101013931D01*
X139742302Y-100904249D01*
X139874249Y-100772302D01*
X139983931Y-100621338D01*
X140068646Y-100455074D01*
X140082569Y-100412224D01*
X140122069Y-100290656D01*
X140161506Y-100232980D01*
X140225865Y-100205782D01*
X140294711Y-100217697D01*
X140346187Y-100264941D01*
X140357931Y-100290656D01*
X140411352Y-100455071D01*
X140411354Y-100455074D01*
X140496069Y-100621338D01*
X140605751Y-100772302D01*
X140737698Y-100904249D01*
X140888662Y-101013931D01*
X141054926Y-101098646D01*
X141054928Y-101098647D01*
X141232391Y-101156308D01*
X141232392Y-101156308D01*
X141232395Y-101156309D01*
X141416699Y-101185500D01*
X141416700Y-101185500D01*
X141603300Y-101185500D01*
X141603301Y-101185500D01*
X141787605Y-101156309D01*
X141787608Y-101156308D01*
X141787609Y-101156308D01*
X141965071Y-101098647D01*
X141965071Y-101098646D01*
X141965074Y-101098646D01*
X142131338Y-101013931D01*
X142282302Y-100904249D01*
X142414249Y-100772302D01*
X142523931Y-100621338D01*
X142608646Y-100455074D01*
X142622569Y-100412224D01*
X142662069Y-100290656D01*
X142701506Y-100232980D01*
X142765865Y-100205782D01*
X142834711Y-100217697D01*
X142886187Y-100264941D01*
X142897931Y-100290656D01*
X142951352Y-100455071D01*
X142951354Y-100455074D01*
X143036069Y-100621338D01*
X143145751Y-100772302D01*
X143277698Y-100904249D01*
X143428662Y-101013931D01*
X143594926Y-101098646D01*
X143594928Y-101098647D01*
X143772391Y-101156308D01*
X143772392Y-101156308D01*
X143772395Y-101156309D01*
X143956699Y-101185500D01*
X143956700Y-101185500D01*
X144143300Y-101185500D01*
X144143301Y-101185500D01*
X144327605Y-101156309D01*
X144327608Y-101156308D01*
X144327609Y-101156308D01*
X144505071Y-101098647D01*
X144505071Y-101098646D01*
X144505074Y-101098646D01*
X144671338Y-101013931D01*
X144822302Y-100904249D01*
X144954249Y-100772302D01*
X145063931Y-100621338D01*
X145148646Y-100455074D01*
X145162569Y-100412224D01*
X145202069Y-100290656D01*
X145241506Y-100232980D01*
X145305865Y-100205782D01*
X145374711Y-100217697D01*
X145426187Y-100264941D01*
X145437931Y-100290656D01*
X145491352Y-100455071D01*
X145491354Y-100455074D01*
X145576069Y-100621338D01*
X145685751Y-100772302D01*
X145817698Y-100904249D01*
X145968662Y-101013931D01*
X146134926Y-101098646D01*
X146134928Y-101098647D01*
X146312391Y-101156308D01*
X146312392Y-101156308D01*
X146312395Y-101156309D01*
X146496699Y-101185500D01*
X146496700Y-101185500D01*
X146683300Y-101185500D01*
X146683301Y-101185500D01*
X146867605Y-101156309D01*
X146867608Y-101156308D01*
X146867609Y-101156308D01*
X147045071Y-101098647D01*
X147045071Y-101098646D01*
X147045074Y-101098646D01*
X147211338Y-101013931D01*
X147362302Y-100904249D01*
X147494249Y-100772302D01*
X147603931Y-100621338D01*
X147688646Y-100455074D01*
X147702569Y-100412224D01*
X147742069Y-100290656D01*
X147781506Y-100232980D01*
X147845865Y-100205782D01*
X147914711Y-100217697D01*
X147966187Y-100264941D01*
X147977931Y-100290656D01*
X148031352Y-100455071D01*
X148031354Y-100455074D01*
X148116069Y-100621338D01*
X148225751Y-100772302D01*
X148357698Y-100904249D01*
X148508662Y-101013931D01*
X148674926Y-101098646D01*
X148674928Y-101098647D01*
X148852391Y-101156308D01*
X148852392Y-101156308D01*
X148852395Y-101156309D01*
X149036699Y-101185500D01*
X149036700Y-101185500D01*
X149223300Y-101185500D01*
X149223301Y-101185500D01*
X149407605Y-101156309D01*
X149407608Y-101156308D01*
X149407609Y-101156308D01*
X149585071Y-101098647D01*
X149585071Y-101098646D01*
X149585074Y-101098646D01*
X149751338Y-101013931D01*
X149902302Y-100904249D01*
X150034249Y-100772302D01*
X150143931Y-100621338D01*
X150228646Y-100455074D01*
X150242569Y-100412224D01*
X150282069Y-100290656D01*
X150321506Y-100232980D01*
X150385865Y-100205782D01*
X150454711Y-100217697D01*
X150506187Y-100264941D01*
X150517931Y-100290656D01*
X150571352Y-100455071D01*
X150571354Y-100455074D01*
X150656069Y-100621338D01*
X150765751Y-100772302D01*
X150897698Y-100904249D01*
X151048662Y-101013931D01*
X151214926Y-101098646D01*
X151214928Y-101098647D01*
X151392391Y-101156308D01*
X151392392Y-101156308D01*
X151392395Y-101156309D01*
X151576699Y-101185500D01*
X151576700Y-101185500D01*
X151763300Y-101185500D01*
X151763301Y-101185500D01*
X151947605Y-101156309D01*
X151947608Y-101156308D01*
X151947609Y-101156308D01*
X152125071Y-101098647D01*
X152125071Y-101098646D01*
X152125074Y-101098646D01*
X152291338Y-101013931D01*
X152442302Y-100904249D01*
X152574249Y-100772302D01*
X152683931Y-100621338D01*
X152768646Y-100455074D01*
X152782569Y-100412221D01*
X152822005Y-100354548D01*
X152886363Y-100327348D01*
X152955210Y-100339262D01*
X153006686Y-100386505D01*
X153024500Y-100450540D01*
X153024500Y-100732869D01*
X153024501Y-100732876D01*
X153030908Y-100792483D01*
X153081202Y-100927328D01*
X153081206Y-100927335D01*
X153167452Y-101042544D01*
X153167455Y-101042547D01*
X153282664Y-101128793D01*
X153282671Y-101128797D01*
X153417517Y-101179091D01*
X153417516Y-101179091D01*
X153424444Y-101179835D01*
X153477127Y-101185500D01*
X154942872Y-101185499D01*
X155002483Y-101179091D01*
X155137331Y-101128796D01*
X155252546Y-101042546D01*
X155338796Y-100927331D01*
X155389091Y-100792483D01*
X155395500Y-100732873D01*
X155395499Y-99524499D01*
X155415184Y-99457461D01*
X155467987Y-99411706D01*
X155519499Y-99400500D01*
X167016060Y-99400500D01*
X167083099Y-99420185D01*
X167103741Y-99436819D01*
X167729707Y-100062786D01*
X167729711Y-100062789D01*
X167860814Y-100150390D01*
X167860818Y-100150392D01*
X167860821Y-100150394D01*
X168006503Y-100210738D01*
X168161153Y-100241499D01*
X168161157Y-100241500D01*
X168161158Y-100241500D01*
X168210500Y-100241500D01*
X168277539Y-100261185D01*
X168323294Y-100313989D01*
X168334500Y-100365500D01*
X168334500Y-100441002D01*
X168339644Y-100512940D01*
X168353623Y-100560546D01*
X168380181Y-100650992D01*
X168405292Y-100690065D01*
X168453943Y-100765768D01*
X168473627Y-100832807D01*
X168453942Y-100899847D01*
X168448894Y-100907118D01*
X168396647Y-100976911D01*
X168396645Y-100976913D01*
X168346403Y-101111620D01*
X168346401Y-101111627D01*
X168340000Y-101171155D01*
X168340000Y-101731000D01*
X172526000Y-101731000D01*
X172593039Y-101750685D01*
X172638794Y-101803489D01*
X172650000Y-101855000D01*
X172650000Y-102107000D01*
X172630315Y-102174039D01*
X172577511Y-102219794D01*
X172526000Y-102231000D01*
X168340000Y-102231000D01*
X168340000Y-102790844D01*
X168346401Y-102850372D01*
X168346403Y-102850379D01*
X168396645Y-102985086D01*
X168396646Y-102985088D01*
X168450625Y-103057194D01*
X168475042Y-103122658D01*
X168460191Y-103190931D01*
X168445072Y-103212706D01*
X168414750Y-103247700D01*
X168414744Y-103247709D01*
X168354976Y-103378580D01*
X168354975Y-103378585D01*
X168334500Y-103520999D01*
X168334500Y-104175500D01*
X168314815Y-104242539D01*
X168262011Y-104288294D01*
X168210500Y-104299500D01*
X132124500Y-104299500D01*
X132057461Y-104279815D01*
X132011706Y-104227011D01*
X132000500Y-104175500D01*
X132000500Y-104121155D01*
X132000499Y-104121153D01*
X131969738Y-103966510D01*
X131969737Y-103966503D01*
X131969735Y-103966498D01*
X131909397Y-103820827D01*
X131909390Y-103820814D01*
X131821789Y-103689711D01*
X131821786Y-103689707D01*
X131710292Y-103578213D01*
X131710288Y-103578210D01*
X131579185Y-103490609D01*
X131579172Y-103490602D01*
X131433501Y-103430264D01*
X131433489Y-103430261D01*
X131278845Y-103399500D01*
X131278842Y-103399500D01*
X131121158Y-103399500D01*
X131121155Y-103399500D01*
X130966510Y-103430261D01*
X130966498Y-103430264D01*
X130820827Y-103490602D01*
X130820814Y-103490609D01*
X130689711Y-103578210D01*
X130689707Y-103578213D01*
X130578213Y-103689707D01*
X130578210Y-103689711D01*
X130490609Y-103820814D01*
X130490602Y-103820827D01*
X130430264Y-103966498D01*
X130430261Y-103966510D01*
X130399500Y-104121153D01*
X130399500Y-104175500D01*
X130379815Y-104242539D01*
X130327011Y-104288294D01*
X130275500Y-104299500D01*
X85934499Y-104299500D01*
X85867460Y-104279815D01*
X85821705Y-104227011D01*
X85810499Y-104175500D01*
X85810499Y-103711129D01*
X85810498Y-103711123D01*
X85808196Y-103689711D01*
X85804091Y-103651517D01*
X85776750Y-103578213D01*
X85753797Y-103516671D01*
X85753793Y-103516664D01*
X85667547Y-103401455D01*
X85664935Y-103399500D01*
X85598750Y-103349953D01*
X85556880Y-103294019D01*
X85551896Y-103224327D01*
X85585382Y-103163005D01*
X85598752Y-103151420D01*
X85667189Y-103100188D01*
X85667190Y-103100187D01*
X85753350Y-102985093D01*
X85753354Y-102985086D01*
X85803596Y-102850379D01*
X85803598Y-102850372D01*
X85809999Y-102790844D01*
X85810000Y-102790827D01*
X85810000Y-102231000D01*
X81624000Y-102231000D01*
X81556961Y-102211315D01*
X81511206Y-102158511D01*
X81500000Y-102107000D01*
X81500000Y-101855000D01*
X81519685Y-101787961D01*
X81572489Y-101742206D01*
X81624000Y-101731000D01*
X85810000Y-101731000D01*
X85810000Y-101171172D01*
X85809999Y-101171155D01*
X85803598Y-101111627D01*
X85803596Y-101111620D01*
X85753354Y-100976913D01*
X85753350Y-100976906D01*
X85667190Y-100861813D01*
X85598751Y-100810579D01*
X85556880Y-100754645D01*
X85551896Y-100684953D01*
X85585381Y-100623630D01*
X85598742Y-100612052D01*
X85667546Y-100560546D01*
X85753796Y-100445331D01*
X85804091Y-100310483D01*
X85804091Y-100310481D01*
X85805874Y-100302938D01*
X85807309Y-100303277D01*
X85830743Y-100246698D01*
X85888134Y-100206847D01*
X85927298Y-100200500D01*
X88878844Y-100200500D01*
X88878845Y-100200499D01*
X89033497Y-100169737D01*
X89179179Y-100109394D01*
X89310289Y-100021789D01*
X89895259Y-99436819D01*
X89956582Y-99403334D01*
X89982940Y-99400500D01*
X94567609Y-99400500D01*
X94634648Y-99420185D01*
G37*
%TD.AperFunction*%
%TA.AperFunction,Conductor*%
G36*
X95032405Y-88876185D02*
G01*
X95078160Y-88928989D01*
X95088104Y-88998147D01*
X95059079Y-89061703D01*
X95038252Y-89080817D01*
X95017704Y-89095746D01*
X95017695Y-89095753D01*
X94885753Y-89227695D01*
X94885753Y-89227696D01*
X94885751Y-89227698D01*
X94857103Y-89267129D01*
X94776069Y-89378661D01*
X94691354Y-89544925D01*
X94691352Y-89544928D01*
X94633691Y-89722390D01*
X94633691Y-89722393D01*
X94604500Y-89906699D01*
X94604500Y-90093300D01*
X94633691Y-90277606D01*
X94633691Y-90277609D01*
X94691352Y-90455071D01*
X94691354Y-90455074D01*
X94776069Y-90621338D01*
X94885751Y-90772302D01*
X95017698Y-90904249D01*
X95168662Y-91013931D01*
X95334926Y-91098646D01*
X95334928Y-91098647D01*
X95512391Y-91156308D01*
X95512392Y-91156308D01*
X95512395Y-91156309D01*
X95696699Y-91185500D01*
X95696700Y-91185500D01*
X95883300Y-91185500D01*
X95883301Y-91185500D01*
X96067605Y-91156309D01*
X96067608Y-91156308D01*
X96067609Y-91156308D01*
X96245071Y-91098647D01*
X96245071Y-91098646D01*
X96245074Y-91098646D01*
X96411338Y-91013931D01*
X96562302Y-90904249D01*
X96694249Y-90772302D01*
X96803931Y-90621338D01*
X96888646Y-90455074D01*
X96906364Y-90400543D01*
X96942069Y-90290656D01*
X96981506Y-90232980D01*
X97045865Y-90205782D01*
X97114711Y-90217697D01*
X97166187Y-90264941D01*
X97177931Y-90290656D01*
X97231352Y-90455071D01*
X97231354Y-90455074D01*
X97316069Y-90621338D01*
X97425751Y-90772302D01*
X97557698Y-90904249D01*
X97708662Y-91013931D01*
X97874926Y-91098646D01*
X97874928Y-91098647D01*
X98052391Y-91156308D01*
X98052392Y-91156308D01*
X98052395Y-91156309D01*
X98236699Y-91185500D01*
X98236700Y-91185500D01*
X98423300Y-91185500D01*
X98423301Y-91185500D01*
X98607605Y-91156309D01*
X98607608Y-91156308D01*
X98607609Y-91156308D01*
X98785071Y-91098647D01*
X98785071Y-91098646D01*
X98785074Y-91098646D01*
X98951338Y-91013931D01*
X99102302Y-90904249D01*
X99234249Y-90772302D01*
X99343931Y-90621338D01*
X99428646Y-90455074D01*
X99446364Y-90400543D01*
X99482069Y-90290656D01*
X99521506Y-90232980D01*
X99585865Y-90205782D01*
X99654711Y-90217697D01*
X99706187Y-90264941D01*
X99717931Y-90290656D01*
X99771352Y-90455071D01*
X99771354Y-90455074D01*
X99856069Y-90621338D01*
X99965751Y-90772302D01*
X100097698Y-90904249D01*
X100248662Y-91013931D01*
X100414926Y-91098646D01*
X100414928Y-91098647D01*
X100592391Y-91156308D01*
X100592392Y-91156308D01*
X100592395Y-91156309D01*
X100776699Y-91185500D01*
X100776700Y-91185500D01*
X100963300Y-91185500D01*
X100963301Y-91185500D01*
X101147605Y-91156309D01*
X101147608Y-91156308D01*
X101147609Y-91156308D01*
X101325071Y-91098647D01*
X101325071Y-91098646D01*
X101325074Y-91098646D01*
X101491338Y-91013931D01*
X101642302Y-90904249D01*
X101774249Y-90772302D01*
X101883931Y-90621338D01*
X101968646Y-90455074D01*
X101986364Y-90400543D01*
X102022069Y-90290656D01*
X102061506Y-90232980D01*
X102125865Y-90205782D01*
X102194711Y-90217697D01*
X102246187Y-90264941D01*
X102257931Y-90290656D01*
X102311352Y-90455071D01*
X102311354Y-90455074D01*
X102396069Y-90621338D01*
X102505751Y-90772302D01*
X102637698Y-90904249D01*
X102788662Y-91013931D01*
X102954926Y-91098646D01*
X102954928Y-91098647D01*
X103132391Y-91156308D01*
X103132392Y-91156308D01*
X103132395Y-91156309D01*
X103316699Y-91185500D01*
X103316700Y-91185500D01*
X103503300Y-91185500D01*
X103503301Y-91185500D01*
X103687605Y-91156309D01*
X103687608Y-91156308D01*
X103687609Y-91156308D01*
X103865071Y-91098647D01*
X103865071Y-91098646D01*
X103865074Y-91098646D01*
X104031338Y-91013931D01*
X104182302Y-90904249D01*
X104314249Y-90772302D01*
X104423931Y-90621338D01*
X104508646Y-90455074D01*
X104526364Y-90400543D01*
X104562069Y-90290656D01*
X104601506Y-90232980D01*
X104665865Y-90205782D01*
X104734711Y-90217697D01*
X104786187Y-90264941D01*
X104797931Y-90290656D01*
X104851352Y-90455071D01*
X104851354Y-90455074D01*
X104936069Y-90621338D01*
X105045751Y-90772302D01*
X105177698Y-90904249D01*
X105328662Y-91013931D01*
X105494926Y-91098646D01*
X105494928Y-91098647D01*
X105672391Y-91156308D01*
X105672392Y-91156308D01*
X105672395Y-91156309D01*
X105856699Y-91185500D01*
X105856700Y-91185500D01*
X106043300Y-91185500D01*
X106043301Y-91185500D01*
X106227605Y-91156309D01*
X106227608Y-91156308D01*
X106227609Y-91156308D01*
X106405071Y-91098647D01*
X106405071Y-91098646D01*
X106405074Y-91098646D01*
X106571338Y-91013931D01*
X106722302Y-90904249D01*
X106854249Y-90772302D01*
X106963931Y-90621338D01*
X107048646Y-90455074D01*
X107066364Y-90400543D01*
X107102069Y-90290656D01*
X107141506Y-90232980D01*
X107205865Y-90205782D01*
X107274711Y-90217697D01*
X107326187Y-90264941D01*
X107337931Y-90290656D01*
X107391352Y-90455071D01*
X107391354Y-90455074D01*
X107476069Y-90621338D01*
X107585751Y-90772302D01*
X107717698Y-90904249D01*
X107868662Y-91013931D01*
X108034926Y-91098646D01*
X108034928Y-91098647D01*
X108212391Y-91156308D01*
X108212392Y-91156308D01*
X108212395Y-91156309D01*
X108396699Y-91185500D01*
X108396700Y-91185500D01*
X108583300Y-91185500D01*
X108583301Y-91185500D01*
X108767605Y-91156309D01*
X108767608Y-91156308D01*
X108767609Y-91156308D01*
X108945071Y-91098647D01*
X108945071Y-91098646D01*
X108945074Y-91098646D01*
X109111338Y-91013931D01*
X109262302Y-90904249D01*
X109394249Y-90772302D01*
X109503931Y-90621338D01*
X109588646Y-90455074D01*
X109606364Y-90400543D01*
X109642069Y-90290656D01*
X109681506Y-90232980D01*
X109745865Y-90205782D01*
X109814711Y-90217697D01*
X109866187Y-90264941D01*
X109877931Y-90290656D01*
X109931352Y-90455071D01*
X109931354Y-90455074D01*
X110016069Y-90621338D01*
X110125751Y-90772302D01*
X110257698Y-90904249D01*
X110408662Y-91013931D01*
X110574926Y-91098646D01*
X110574928Y-91098647D01*
X110752391Y-91156308D01*
X110752392Y-91156308D01*
X110752395Y-91156309D01*
X110936699Y-91185500D01*
X110936700Y-91185500D01*
X111123300Y-91185500D01*
X111123301Y-91185500D01*
X111307605Y-91156309D01*
X111307608Y-91156308D01*
X111307609Y-91156308D01*
X111485071Y-91098647D01*
X111485071Y-91098646D01*
X111485074Y-91098646D01*
X111651338Y-91013931D01*
X111802302Y-90904249D01*
X111934249Y-90772302D01*
X112043931Y-90621338D01*
X112128646Y-90455074D01*
X112146364Y-90400543D01*
X112182069Y-90290656D01*
X112221506Y-90232980D01*
X112285865Y-90205782D01*
X112354711Y-90217697D01*
X112406187Y-90264941D01*
X112417931Y-90290656D01*
X112471352Y-90455071D01*
X112471354Y-90455074D01*
X112556069Y-90621338D01*
X112665751Y-90772302D01*
X112797698Y-90904249D01*
X112948662Y-91013931D01*
X113114926Y-91098646D01*
X113114928Y-91098647D01*
X113292391Y-91156308D01*
X113292392Y-91156308D01*
X113292395Y-91156309D01*
X113476699Y-91185500D01*
X113476700Y-91185500D01*
X113663300Y-91185500D01*
X113663301Y-91185500D01*
X113847605Y-91156309D01*
X113847608Y-91156308D01*
X113847609Y-91156308D01*
X114025071Y-91098647D01*
X114025071Y-91098646D01*
X114025074Y-91098646D01*
X114191338Y-91013931D01*
X114342302Y-90904249D01*
X114474249Y-90772302D01*
X114583931Y-90621338D01*
X114668646Y-90455074D01*
X114686364Y-90400543D01*
X114722069Y-90290656D01*
X114761506Y-90232980D01*
X114825865Y-90205782D01*
X114894711Y-90217697D01*
X114946187Y-90264941D01*
X114957931Y-90290656D01*
X115011352Y-90455071D01*
X115011354Y-90455074D01*
X115096069Y-90621338D01*
X115205751Y-90772302D01*
X115337698Y-90904249D01*
X115488662Y-91013931D01*
X115654926Y-91098646D01*
X115654928Y-91098647D01*
X115832391Y-91156308D01*
X115832392Y-91156308D01*
X115832395Y-91156309D01*
X116016699Y-91185500D01*
X116016700Y-91185500D01*
X116203300Y-91185500D01*
X116203301Y-91185500D01*
X116387605Y-91156309D01*
X116387608Y-91156308D01*
X116387609Y-91156308D01*
X116565071Y-91098647D01*
X116565071Y-91098646D01*
X116565074Y-91098646D01*
X116731338Y-91013931D01*
X116882302Y-90904249D01*
X117014249Y-90772302D01*
X117123931Y-90621338D01*
X117208646Y-90455074D01*
X117226364Y-90400543D01*
X117262069Y-90290656D01*
X117301506Y-90232980D01*
X117365865Y-90205782D01*
X117434711Y-90217697D01*
X117486187Y-90264941D01*
X117497931Y-90290656D01*
X117551352Y-90455071D01*
X117551354Y-90455074D01*
X117636069Y-90621338D01*
X117745751Y-90772302D01*
X117877698Y-90904249D01*
X118028662Y-91013931D01*
X118194926Y-91098646D01*
X118194928Y-91098647D01*
X118372391Y-91156308D01*
X118372392Y-91156308D01*
X118372395Y-91156309D01*
X118556699Y-91185500D01*
X118556700Y-91185500D01*
X118743300Y-91185500D01*
X118743301Y-91185500D01*
X118927605Y-91156309D01*
X118927608Y-91156308D01*
X118927609Y-91156308D01*
X119105071Y-91098647D01*
X119105071Y-91098646D01*
X119105074Y-91098646D01*
X119271338Y-91013931D01*
X119422302Y-90904249D01*
X119554249Y-90772302D01*
X119663931Y-90621338D01*
X119748646Y-90455074D01*
X119766364Y-90400543D01*
X119802069Y-90290656D01*
X119841506Y-90232980D01*
X119905865Y-90205782D01*
X119974711Y-90217697D01*
X120026187Y-90264941D01*
X120037931Y-90290656D01*
X120091352Y-90455071D01*
X120091354Y-90455074D01*
X120176069Y-90621338D01*
X120285751Y-90772302D01*
X120417698Y-90904249D01*
X120568662Y-91013931D01*
X120734926Y-91098646D01*
X120734928Y-91098647D01*
X120912391Y-91156308D01*
X120912392Y-91156308D01*
X120912395Y-91156309D01*
X121096699Y-91185500D01*
X121096700Y-91185500D01*
X121283300Y-91185500D01*
X121283301Y-91185500D01*
X121467605Y-91156309D01*
X121467608Y-91156308D01*
X121467609Y-91156308D01*
X121645071Y-91098647D01*
X121645071Y-91098646D01*
X121645074Y-91098646D01*
X121811338Y-91013931D01*
X121962302Y-90904249D01*
X122094249Y-90772302D01*
X122203931Y-90621338D01*
X122288646Y-90455074D01*
X122306364Y-90400543D01*
X122342069Y-90290656D01*
X122381506Y-90232980D01*
X122445865Y-90205782D01*
X122514711Y-90217697D01*
X122566187Y-90264941D01*
X122577931Y-90290656D01*
X122631352Y-90455071D01*
X122631354Y-90455074D01*
X122716069Y-90621338D01*
X122825751Y-90772302D01*
X122957698Y-90904249D01*
X123108662Y-91013931D01*
X123274926Y-91098646D01*
X123274928Y-91098647D01*
X123452391Y-91156308D01*
X123452392Y-91156308D01*
X123452395Y-91156309D01*
X123636699Y-91185500D01*
X123636700Y-91185500D01*
X123823300Y-91185500D01*
X123823301Y-91185500D01*
X124007605Y-91156309D01*
X124007608Y-91156308D01*
X124007609Y-91156308D01*
X124185071Y-91098647D01*
X124185071Y-91098646D01*
X124185074Y-91098646D01*
X124351338Y-91013931D01*
X124502302Y-90904249D01*
X124634249Y-90772302D01*
X124743931Y-90621338D01*
X124828646Y-90455074D01*
X124846364Y-90400543D01*
X124882069Y-90290656D01*
X124921506Y-90232980D01*
X124985865Y-90205782D01*
X125054711Y-90217697D01*
X125106187Y-90264941D01*
X125117931Y-90290656D01*
X125171352Y-90455071D01*
X125171354Y-90455074D01*
X125256069Y-90621338D01*
X125365751Y-90772302D01*
X125497698Y-90904249D01*
X125648662Y-91013931D01*
X125814926Y-91098646D01*
X125814928Y-91098647D01*
X125992391Y-91156308D01*
X125992392Y-91156308D01*
X125992395Y-91156309D01*
X126176699Y-91185500D01*
X126176700Y-91185500D01*
X126363300Y-91185500D01*
X126363301Y-91185500D01*
X126547605Y-91156309D01*
X126547608Y-91156308D01*
X126547609Y-91156308D01*
X126725071Y-91098647D01*
X126725071Y-91098646D01*
X126725074Y-91098646D01*
X126891338Y-91013931D01*
X127042302Y-90904249D01*
X127174249Y-90772302D01*
X127283931Y-90621338D01*
X127368646Y-90455074D01*
X127386364Y-90400543D01*
X127422069Y-90290656D01*
X127461506Y-90232980D01*
X127525865Y-90205782D01*
X127594711Y-90217697D01*
X127646187Y-90264941D01*
X127657931Y-90290656D01*
X127711352Y-90455071D01*
X127711354Y-90455074D01*
X127796069Y-90621338D01*
X127905751Y-90772302D01*
X128037698Y-90904249D01*
X128188662Y-91013931D01*
X128354926Y-91098646D01*
X128354928Y-91098647D01*
X128532391Y-91156308D01*
X128532392Y-91156308D01*
X128532395Y-91156309D01*
X128716699Y-91185500D01*
X128716700Y-91185500D01*
X128903300Y-91185500D01*
X128903301Y-91185500D01*
X129087605Y-91156309D01*
X129087608Y-91156308D01*
X129087609Y-91156308D01*
X129265071Y-91098647D01*
X129265071Y-91098646D01*
X129265074Y-91098646D01*
X129431338Y-91013931D01*
X129582302Y-90904249D01*
X129714249Y-90772302D01*
X129823931Y-90621338D01*
X129908646Y-90455074D01*
X129926364Y-90400543D01*
X129962069Y-90290656D01*
X130001506Y-90232980D01*
X130065865Y-90205782D01*
X130134711Y-90217697D01*
X130186187Y-90264941D01*
X130197931Y-90290656D01*
X130251352Y-90455071D01*
X130251354Y-90455074D01*
X130336069Y-90621338D01*
X130445751Y-90772302D01*
X130577698Y-90904249D01*
X130728662Y-91013931D01*
X130894926Y-91098646D01*
X130894928Y-91098647D01*
X131072391Y-91156308D01*
X131072392Y-91156308D01*
X131072395Y-91156309D01*
X131256699Y-91185500D01*
X131256700Y-91185500D01*
X131443300Y-91185500D01*
X131443301Y-91185500D01*
X131627605Y-91156309D01*
X131627608Y-91156308D01*
X131627609Y-91156308D01*
X131805071Y-91098647D01*
X131805071Y-91098646D01*
X131805074Y-91098646D01*
X131971338Y-91013931D01*
X132122302Y-90904249D01*
X132254249Y-90772302D01*
X132363931Y-90621338D01*
X132448646Y-90455074D01*
X132466364Y-90400543D01*
X132502069Y-90290656D01*
X132541506Y-90232980D01*
X132605865Y-90205782D01*
X132674711Y-90217697D01*
X132726187Y-90264941D01*
X132737931Y-90290656D01*
X132791352Y-90455071D01*
X132791354Y-90455074D01*
X132876069Y-90621338D01*
X132985751Y-90772302D01*
X133117698Y-90904249D01*
X133268662Y-91013931D01*
X133434926Y-91098646D01*
X133434928Y-91098647D01*
X133612391Y-91156308D01*
X133612392Y-91156308D01*
X133612395Y-91156309D01*
X133796699Y-91185500D01*
X133796700Y-91185500D01*
X133983300Y-91185500D01*
X133983301Y-91185500D01*
X134167605Y-91156309D01*
X134167608Y-91156308D01*
X134167609Y-91156308D01*
X134345071Y-91098647D01*
X134345071Y-91098646D01*
X134345074Y-91098646D01*
X134511338Y-91013931D01*
X134662302Y-90904249D01*
X134794249Y-90772302D01*
X134903931Y-90621338D01*
X134988646Y-90455074D01*
X135006364Y-90400543D01*
X135042069Y-90290656D01*
X135081506Y-90232980D01*
X135145865Y-90205782D01*
X135214711Y-90217697D01*
X135266187Y-90264941D01*
X135277931Y-90290656D01*
X135331352Y-90455071D01*
X135331354Y-90455074D01*
X135416069Y-90621338D01*
X135525751Y-90772302D01*
X135657698Y-90904249D01*
X135808662Y-91013931D01*
X135974926Y-91098646D01*
X135974928Y-91098647D01*
X136152391Y-91156308D01*
X136152392Y-91156308D01*
X136152395Y-91156309D01*
X136336699Y-91185500D01*
X136336700Y-91185500D01*
X136523300Y-91185500D01*
X136523301Y-91185500D01*
X136707605Y-91156309D01*
X136707608Y-91156308D01*
X136707609Y-91156308D01*
X136885071Y-91098647D01*
X136885071Y-91098646D01*
X136885074Y-91098646D01*
X137051338Y-91013931D01*
X137202302Y-90904249D01*
X137334249Y-90772302D01*
X137443931Y-90621338D01*
X137528646Y-90455074D01*
X137546364Y-90400543D01*
X137582069Y-90290656D01*
X137621506Y-90232980D01*
X137685865Y-90205782D01*
X137754711Y-90217697D01*
X137806187Y-90264941D01*
X137817931Y-90290656D01*
X137871352Y-90455071D01*
X137871354Y-90455074D01*
X137956069Y-90621338D01*
X138065751Y-90772302D01*
X138197698Y-90904249D01*
X138348662Y-91013931D01*
X138514926Y-91098646D01*
X138514928Y-91098647D01*
X138692391Y-91156308D01*
X138692392Y-91156308D01*
X138692395Y-91156309D01*
X138876699Y-91185500D01*
X138876700Y-91185500D01*
X139063300Y-91185500D01*
X139063301Y-91185500D01*
X139247605Y-91156309D01*
X139247608Y-91156308D01*
X139247609Y-91156308D01*
X139425071Y-91098647D01*
X139425071Y-91098646D01*
X139425074Y-91098646D01*
X139591338Y-91013931D01*
X139742302Y-90904249D01*
X139874249Y-90772302D01*
X139983931Y-90621338D01*
X140068646Y-90455074D01*
X140086364Y-90400543D01*
X140122069Y-90290656D01*
X140161506Y-90232980D01*
X140225865Y-90205782D01*
X140294711Y-90217697D01*
X140346187Y-90264941D01*
X140357931Y-90290656D01*
X140411352Y-90455071D01*
X140411354Y-90455074D01*
X140496069Y-90621338D01*
X140605751Y-90772302D01*
X140737698Y-90904249D01*
X140888662Y-91013931D01*
X141054926Y-91098646D01*
X141054928Y-91098647D01*
X141232391Y-91156308D01*
X141232392Y-91156308D01*
X141232395Y-91156309D01*
X141416699Y-91185500D01*
X141416700Y-91185500D01*
X141603300Y-91185500D01*
X141603301Y-91185500D01*
X141787605Y-91156309D01*
X141787608Y-91156308D01*
X141787609Y-91156308D01*
X141965071Y-91098647D01*
X141965071Y-91098646D01*
X141965074Y-91098646D01*
X142131338Y-91013931D01*
X142282302Y-90904249D01*
X142414249Y-90772302D01*
X142523931Y-90621338D01*
X142608646Y-90455074D01*
X142626364Y-90400543D01*
X142662069Y-90290656D01*
X142701506Y-90232980D01*
X142765865Y-90205782D01*
X142834711Y-90217697D01*
X142886187Y-90264941D01*
X142897931Y-90290656D01*
X142951352Y-90455071D01*
X142951354Y-90455074D01*
X143036069Y-90621338D01*
X143145751Y-90772302D01*
X143277698Y-90904249D01*
X143428662Y-91013931D01*
X143594926Y-91098646D01*
X143594928Y-91098647D01*
X143772391Y-91156308D01*
X143772392Y-91156308D01*
X143772395Y-91156309D01*
X143956699Y-91185500D01*
X143956700Y-91185500D01*
X144143300Y-91185500D01*
X144143301Y-91185500D01*
X144327605Y-91156309D01*
X144327608Y-91156308D01*
X144327609Y-91156308D01*
X144505071Y-91098647D01*
X144505071Y-91098646D01*
X144505074Y-91098646D01*
X144671338Y-91013931D01*
X144822302Y-90904249D01*
X144954249Y-90772302D01*
X145063931Y-90621338D01*
X145148646Y-90455074D01*
X145166364Y-90400543D01*
X145202069Y-90290656D01*
X145241506Y-90232980D01*
X145305865Y-90205782D01*
X145374711Y-90217697D01*
X145426187Y-90264941D01*
X145437931Y-90290656D01*
X145491352Y-90455071D01*
X145491354Y-90455074D01*
X145576069Y-90621338D01*
X145685751Y-90772302D01*
X145817698Y-90904249D01*
X145968662Y-91013931D01*
X146134926Y-91098646D01*
X146134928Y-91098647D01*
X146312391Y-91156308D01*
X146312392Y-91156308D01*
X146312395Y-91156309D01*
X146496699Y-91185500D01*
X146496700Y-91185500D01*
X146683300Y-91185500D01*
X146683301Y-91185500D01*
X146867605Y-91156309D01*
X146867608Y-91156308D01*
X146867609Y-91156308D01*
X147045071Y-91098647D01*
X147045071Y-91098646D01*
X147045074Y-91098646D01*
X147211338Y-91013931D01*
X147362302Y-90904249D01*
X147494249Y-90772302D01*
X147603931Y-90621338D01*
X147688646Y-90455074D01*
X147706364Y-90400543D01*
X147742069Y-90290656D01*
X147781506Y-90232980D01*
X147845865Y-90205782D01*
X147914711Y-90217697D01*
X147966187Y-90264941D01*
X147977931Y-90290656D01*
X148031352Y-90455071D01*
X148031354Y-90455074D01*
X148116069Y-90621338D01*
X148225751Y-90772302D01*
X148357698Y-90904249D01*
X148508662Y-91013931D01*
X148674926Y-91098646D01*
X148674928Y-91098647D01*
X148852391Y-91156308D01*
X148852392Y-91156308D01*
X148852395Y-91156309D01*
X149036699Y-91185500D01*
X149036700Y-91185500D01*
X149223300Y-91185500D01*
X149223301Y-91185500D01*
X149407605Y-91156309D01*
X149407608Y-91156308D01*
X149407609Y-91156308D01*
X149585071Y-91098647D01*
X149585071Y-91098646D01*
X149585074Y-91098646D01*
X149751338Y-91013931D01*
X149902302Y-90904249D01*
X150034249Y-90772302D01*
X150143931Y-90621338D01*
X150228646Y-90455074D01*
X150246364Y-90400543D01*
X150282069Y-90290656D01*
X150321506Y-90232980D01*
X150385865Y-90205782D01*
X150454711Y-90217697D01*
X150506187Y-90264941D01*
X150517931Y-90290656D01*
X150571352Y-90455071D01*
X150571354Y-90455074D01*
X150656069Y-90621338D01*
X150765751Y-90772302D01*
X150897698Y-90904249D01*
X151048662Y-91013931D01*
X151214926Y-91098646D01*
X151214928Y-91098647D01*
X151392391Y-91156308D01*
X151392392Y-91156308D01*
X151392395Y-91156309D01*
X151576699Y-91185500D01*
X151576700Y-91185500D01*
X151763300Y-91185500D01*
X151763301Y-91185500D01*
X151947605Y-91156309D01*
X151947608Y-91156308D01*
X151947609Y-91156308D01*
X152125071Y-91098647D01*
X152125071Y-91098646D01*
X152125074Y-91098646D01*
X152291338Y-91013931D01*
X152442302Y-90904249D01*
X152574249Y-90772302D01*
X152683931Y-90621338D01*
X152768646Y-90455074D01*
X152782569Y-90412221D01*
X152822005Y-90354548D01*
X152886363Y-90327348D01*
X152955210Y-90339262D01*
X153006686Y-90386505D01*
X153024500Y-90450540D01*
X153024500Y-90732869D01*
X153024501Y-90732876D01*
X153030908Y-90792483D01*
X153081202Y-90927328D01*
X153081206Y-90927335D01*
X153167452Y-91042544D01*
X153167455Y-91042547D01*
X153282664Y-91128793D01*
X153282671Y-91128797D01*
X153417517Y-91179091D01*
X153417516Y-91179091D01*
X153424444Y-91179835D01*
X153477127Y-91185500D01*
X154942872Y-91185499D01*
X155002483Y-91179091D01*
X155137331Y-91128796D01*
X155252546Y-91042546D01*
X155338796Y-90927331D01*
X155389091Y-90792483D01*
X155395500Y-90732873D01*
X155395499Y-89267128D01*
X155389091Y-89207517D01*
X155338796Y-89072669D01*
X155325427Y-89054811D01*
X155301010Y-88989348D01*
X155315861Y-88921075D01*
X155365265Y-88871669D01*
X155424694Y-88856500D01*
X166632060Y-88856500D01*
X166699099Y-88876185D01*
X166719741Y-88892819D01*
X167729707Y-89902786D01*
X167729711Y-89902789D01*
X167860814Y-89990390D01*
X167860818Y-89990392D01*
X167860821Y-89990394D01*
X168006503Y-90050738D01*
X168161153Y-90081499D01*
X168161157Y-90081500D01*
X168161158Y-90081500D01*
X168210500Y-90081500D01*
X168277539Y-90101185D01*
X168323294Y-90153989D01*
X168334500Y-90205500D01*
X168334500Y-90281002D01*
X168339644Y-90352940D01*
X168380182Y-90490994D01*
X168383867Y-90499063D01*
X168382102Y-90499868D01*
X168398606Y-90556065D01*
X168387401Y-90607582D01*
X168354976Y-90678583D01*
X168354975Y-90678585D01*
X168334500Y-90820999D01*
X168334500Y-91775500D01*
X168314815Y-91842539D01*
X168262011Y-91888294D01*
X168210500Y-91899500D01*
X91224500Y-91899500D01*
X91157461Y-91879815D01*
X91111706Y-91827011D01*
X91100500Y-91775500D01*
X91100500Y-91742155D01*
X91100499Y-91742153D01*
X91069738Y-91587510D01*
X91069737Y-91587503D01*
X91069735Y-91587498D01*
X91009397Y-91441827D01*
X91009390Y-91441814D01*
X90921789Y-91310711D01*
X90921786Y-91310707D01*
X90810292Y-91199213D01*
X90810288Y-91199210D01*
X90679185Y-91111609D01*
X90679172Y-91111602D01*
X90533501Y-91051264D01*
X90533489Y-91051261D01*
X90378845Y-91020500D01*
X90378842Y-91020500D01*
X90221158Y-91020500D01*
X90221155Y-91020500D01*
X90066510Y-91051261D01*
X90066498Y-91051264D01*
X89920827Y-91111602D01*
X89920814Y-91111609D01*
X89789711Y-91199210D01*
X89789707Y-91199213D01*
X89678213Y-91310707D01*
X89678210Y-91310711D01*
X89590609Y-91441814D01*
X89590602Y-91441827D01*
X89530264Y-91587498D01*
X89530261Y-91587510D01*
X89499500Y-91742153D01*
X89499500Y-91775500D01*
X89479815Y-91842539D01*
X89427011Y-91888294D01*
X89375500Y-91899500D01*
X85934500Y-91899500D01*
X85867461Y-91879815D01*
X85821706Y-91827011D01*
X85810500Y-91775500D01*
X85810499Y-91011129D01*
X85810498Y-91011123D01*
X85804091Y-90951516D01*
X85753797Y-90816671D01*
X85753793Y-90816664D01*
X85691074Y-90732883D01*
X85667546Y-90701454D01*
X85599166Y-90650265D01*
X85557297Y-90594333D01*
X85552313Y-90524641D01*
X85585798Y-90463318D01*
X85599161Y-90451738D01*
X85667546Y-90400546D01*
X85753796Y-90285331D01*
X85804091Y-90150483D01*
X85810500Y-90090873D01*
X85810500Y-89924500D01*
X85830185Y-89857461D01*
X85882989Y-89811706D01*
X85934500Y-89800500D01*
X88478844Y-89800500D01*
X88478845Y-89800499D01*
X88633497Y-89769737D01*
X88779179Y-89709394D01*
X88910289Y-89621789D01*
X89639259Y-88892819D01*
X89700582Y-88859334D01*
X89726940Y-88856500D01*
X93221158Y-88856500D01*
X94965366Y-88856500D01*
X95032405Y-88876185D01*
G37*
%TD.AperFunction*%
%TA.AperFunction,Conductor*%
G36*
X106604334Y-73778258D02*
G01*
X106660267Y-73820130D01*
X106684684Y-73885594D01*
X106685000Y-73894440D01*
X106685000Y-74542844D01*
X106691401Y-74602372D01*
X106691403Y-74602379D01*
X106741645Y-74737086D01*
X106741649Y-74737093D01*
X106827809Y-74852187D01*
X106827812Y-74852190D01*
X106942906Y-74938350D01*
X106942913Y-74938354D01*
X107077620Y-74988596D01*
X107077627Y-74988598D01*
X107137155Y-74994999D01*
X107137172Y-74995000D01*
X107171105Y-74995000D01*
X107238144Y-75014685D01*
X107283899Y-75067489D01*
X107293843Y-75136647D01*
X107264818Y-75200203D01*
X107249219Y-75214519D01*
X107249135Y-75215581D01*
X107812425Y-75778871D01*
X107753147Y-75794755D01*
X107636853Y-75861898D01*
X107541898Y-75956853D01*
X107474755Y-76073147D01*
X107458871Y-76132425D01*
X106895581Y-75569135D01*
X106895580Y-75569135D01*
X106868077Y-75606990D01*
X106777679Y-75784405D01*
X106716147Y-75973777D01*
X106685000Y-76170436D01*
X106685000Y-76369563D01*
X106716147Y-76566222D01*
X106777679Y-76755594D01*
X106868077Y-76933008D01*
X106895580Y-76970863D01*
X106895581Y-76970864D01*
X107458871Y-76407574D01*
X107474755Y-76466853D01*
X107541898Y-76583147D01*
X107636853Y-76678102D01*
X107753147Y-76745245D01*
X107812425Y-76761128D01*
X107249134Y-77324417D01*
X107286994Y-77351924D01*
X107464405Y-77442320D01*
X107653777Y-77503852D01*
X107850437Y-77535000D01*
X108049563Y-77535000D01*
X108246222Y-77503852D01*
X108435594Y-77442320D01*
X108613005Y-77351924D01*
X108650863Y-77324418D01*
X108650863Y-77324417D01*
X108087574Y-76761128D01*
X108146853Y-76745245D01*
X108263147Y-76678102D01*
X108358102Y-76583147D01*
X108425245Y-76466853D01*
X108441128Y-76407574D01*
X109004417Y-76970863D01*
X109004418Y-76970863D01*
X109031924Y-76933005D01*
X109109234Y-76781277D01*
X109157208Y-76730481D01*
X109225029Y-76713686D01*
X109291164Y-76736223D01*
X109330204Y-76781277D01*
X109388057Y-76894819D01*
X109407647Y-76933266D01*
X109524731Y-77094418D01*
X109665582Y-77235269D01*
X109826734Y-77352353D01*
X110003304Y-77442320D01*
X110004219Y-77442786D01*
X110193657Y-77504338D01*
X110193658Y-77504338D01*
X110193661Y-77504339D01*
X110390403Y-77535500D01*
X110390404Y-77535500D01*
X110589596Y-77535500D01*
X110589597Y-77535500D01*
X110786339Y-77504339D01*
X110786342Y-77504338D01*
X110786343Y-77504338D01*
X110975780Y-77442786D01*
X110975780Y-77442785D01*
X110975783Y-77442785D01*
X111153266Y-77352353D01*
X111314418Y-77235269D01*
X111455269Y-77094418D01*
X111572353Y-76933266D01*
X111649515Y-76781827D01*
X111697490Y-76731031D01*
X111765311Y-76714236D01*
X111831446Y-76736773D01*
X111870485Y-76781827D01*
X111947647Y-76933266D01*
X112064731Y-77094418D01*
X112205582Y-77235269D01*
X112366734Y-77352353D01*
X112543304Y-77442320D01*
X112544219Y-77442786D01*
X112733657Y-77504338D01*
X112733658Y-77504338D01*
X112733661Y-77504339D01*
X112930403Y-77535500D01*
X112930404Y-77535500D01*
X113129596Y-77535500D01*
X113129597Y-77535500D01*
X113326339Y-77504339D01*
X113326342Y-77504338D01*
X113326343Y-77504338D01*
X113515780Y-77442786D01*
X113515780Y-77442785D01*
X113515783Y-77442785D01*
X113693266Y-77352353D01*
X113854418Y-77235269D01*
X113995269Y-77094418D01*
X114112353Y-76933266D01*
X114189515Y-76781827D01*
X114237490Y-76731031D01*
X114305311Y-76714236D01*
X114371446Y-76736773D01*
X114410485Y-76781827D01*
X114487647Y-76933266D01*
X114604731Y-77094418D01*
X114745582Y-77235269D01*
X114906734Y-77352353D01*
X115083304Y-77442320D01*
X115084219Y-77442786D01*
X115273657Y-77504338D01*
X115273658Y-77504338D01*
X115273661Y-77504339D01*
X115470403Y-77535500D01*
X115470404Y-77535500D01*
X115669596Y-77535500D01*
X115669597Y-77535500D01*
X115866339Y-77504339D01*
X115866342Y-77504338D01*
X115866343Y-77504338D01*
X116055780Y-77442786D01*
X116055780Y-77442785D01*
X116055783Y-77442785D01*
X116233266Y-77352353D01*
X116394418Y-77235269D01*
X116535269Y-77094418D01*
X116652353Y-76933266D01*
X116729515Y-76781827D01*
X116777490Y-76731031D01*
X116845311Y-76714236D01*
X116911446Y-76736773D01*
X116950485Y-76781827D01*
X117027647Y-76933266D01*
X117144731Y-77094418D01*
X117285582Y-77235269D01*
X117446734Y-77352353D01*
X117623304Y-77442320D01*
X117624219Y-77442786D01*
X117813657Y-77504338D01*
X117813658Y-77504338D01*
X117813661Y-77504339D01*
X118010403Y-77535500D01*
X118010404Y-77535500D01*
X118209596Y-77535500D01*
X118209597Y-77535500D01*
X118406339Y-77504339D01*
X118406342Y-77504338D01*
X118406343Y-77504338D01*
X118595780Y-77442786D01*
X118595780Y-77442785D01*
X118595783Y-77442785D01*
X118773266Y-77352353D01*
X118934418Y-77235269D01*
X119075269Y-77094418D01*
X119192353Y-76933266D01*
X119269515Y-76781827D01*
X119317490Y-76731031D01*
X119385311Y-76714236D01*
X119451446Y-76736773D01*
X119490485Y-76781827D01*
X119567647Y-76933266D01*
X119684731Y-77094418D01*
X119825582Y-77235269D01*
X119986734Y-77352353D01*
X120163304Y-77442320D01*
X120164219Y-77442786D01*
X120353657Y-77504338D01*
X120353658Y-77504338D01*
X120353661Y-77504339D01*
X120550403Y-77535500D01*
X120550404Y-77535500D01*
X120749596Y-77535500D01*
X120749597Y-77535500D01*
X120946339Y-77504339D01*
X120946342Y-77504338D01*
X120946343Y-77504338D01*
X121135780Y-77442786D01*
X121135780Y-77442785D01*
X121135783Y-77442785D01*
X121313266Y-77352353D01*
X121474418Y-77235269D01*
X121615269Y-77094418D01*
X121732353Y-76933266D01*
X121809515Y-76781827D01*
X121857490Y-76731031D01*
X121925311Y-76714236D01*
X121991446Y-76736773D01*
X122030485Y-76781827D01*
X122107647Y-76933266D01*
X122224731Y-77094418D01*
X122365582Y-77235269D01*
X122526734Y-77352353D01*
X122703304Y-77442320D01*
X122704219Y-77442786D01*
X122893657Y-77504338D01*
X122893658Y-77504338D01*
X122893661Y-77504339D01*
X123090403Y-77535500D01*
X123090404Y-77535500D01*
X123289596Y-77535500D01*
X123289597Y-77535500D01*
X123486339Y-77504339D01*
X123486342Y-77504338D01*
X123486343Y-77504338D01*
X123675780Y-77442786D01*
X123675780Y-77442785D01*
X123675783Y-77442785D01*
X123853266Y-77352353D01*
X124014418Y-77235269D01*
X124155269Y-77094418D01*
X124272353Y-76933266D01*
X124349515Y-76781827D01*
X124397490Y-76731031D01*
X124465311Y-76714236D01*
X124531446Y-76736773D01*
X124570485Y-76781827D01*
X124647647Y-76933266D01*
X124764731Y-77094418D01*
X124905582Y-77235269D01*
X125066734Y-77352353D01*
X125243304Y-77442320D01*
X125244219Y-77442786D01*
X125433657Y-77504338D01*
X125433658Y-77504338D01*
X125433661Y-77504339D01*
X125630403Y-77535500D01*
X125630404Y-77535500D01*
X125829596Y-77535500D01*
X125829597Y-77535500D01*
X126026339Y-77504339D01*
X126026342Y-77504338D01*
X126026343Y-77504338D01*
X126215780Y-77442786D01*
X126215780Y-77442785D01*
X126215783Y-77442785D01*
X126393266Y-77352353D01*
X126554418Y-77235269D01*
X126695269Y-77094418D01*
X126812353Y-76933266D01*
X126889515Y-76781827D01*
X126937490Y-76731031D01*
X127005311Y-76714236D01*
X127071446Y-76736773D01*
X127110485Y-76781827D01*
X127187647Y-76933266D01*
X127304731Y-77094418D01*
X127445582Y-77235269D01*
X127606734Y-77352353D01*
X127783304Y-77442320D01*
X127784219Y-77442786D01*
X127973657Y-77504338D01*
X127973658Y-77504338D01*
X127973661Y-77504339D01*
X128170403Y-77535500D01*
X128170404Y-77535500D01*
X128369596Y-77535500D01*
X128369597Y-77535500D01*
X128566339Y-77504339D01*
X128566342Y-77504338D01*
X128566343Y-77504338D01*
X128755780Y-77442786D01*
X128755780Y-77442785D01*
X128755783Y-77442785D01*
X128933266Y-77352353D01*
X129094418Y-77235269D01*
X129235269Y-77094418D01*
X129352353Y-76933266D01*
X129429515Y-76781827D01*
X129477490Y-76731031D01*
X129545311Y-76714236D01*
X129611446Y-76736773D01*
X129650485Y-76781827D01*
X129727647Y-76933266D01*
X129844731Y-77094418D01*
X129985582Y-77235269D01*
X130146734Y-77352353D01*
X130323304Y-77442320D01*
X130324219Y-77442786D01*
X130513657Y-77504338D01*
X130513658Y-77504338D01*
X130513661Y-77504339D01*
X130710403Y-77535500D01*
X130710404Y-77535500D01*
X130909596Y-77535500D01*
X130909597Y-77535500D01*
X131106339Y-77504339D01*
X131106342Y-77504338D01*
X131106343Y-77504338D01*
X131295780Y-77442786D01*
X131295780Y-77442785D01*
X131295783Y-77442785D01*
X131473266Y-77352353D01*
X131634418Y-77235269D01*
X131775269Y-77094418D01*
X131892353Y-76933266D01*
X131969515Y-76781827D01*
X132017490Y-76731031D01*
X132085311Y-76714236D01*
X132151446Y-76736773D01*
X132190485Y-76781827D01*
X132267647Y-76933266D01*
X132384731Y-77094418D01*
X132525582Y-77235269D01*
X132686734Y-77352353D01*
X132863304Y-77442320D01*
X132864219Y-77442786D01*
X133053657Y-77504338D01*
X133053658Y-77504338D01*
X133053661Y-77504339D01*
X133250403Y-77535500D01*
X133250404Y-77535500D01*
X133449596Y-77535500D01*
X133449597Y-77535500D01*
X133646339Y-77504339D01*
X133646342Y-77504338D01*
X133646343Y-77504338D01*
X133835780Y-77442786D01*
X133835780Y-77442785D01*
X133835783Y-77442785D01*
X134013266Y-77352353D01*
X134174418Y-77235269D01*
X134315269Y-77094418D01*
X134432353Y-76933266D01*
X134509515Y-76781827D01*
X134557490Y-76731031D01*
X134625311Y-76714236D01*
X134691446Y-76736773D01*
X134730485Y-76781827D01*
X134807647Y-76933266D01*
X134924731Y-77094418D01*
X135065582Y-77235269D01*
X135226734Y-77352353D01*
X135403304Y-77442320D01*
X135404219Y-77442786D01*
X135593657Y-77504338D01*
X135593658Y-77504338D01*
X135593661Y-77504339D01*
X135790403Y-77535500D01*
X135790404Y-77535500D01*
X135989596Y-77535500D01*
X135989597Y-77535500D01*
X136186339Y-77504339D01*
X136186342Y-77504338D01*
X136186343Y-77504338D01*
X136375780Y-77442786D01*
X136375780Y-77442785D01*
X136375783Y-77442785D01*
X136553266Y-77352353D01*
X136714418Y-77235269D01*
X136855269Y-77094418D01*
X136972353Y-76933266D01*
X137049515Y-76781827D01*
X137097490Y-76731031D01*
X137165311Y-76714236D01*
X137231446Y-76736773D01*
X137270485Y-76781827D01*
X137347647Y-76933266D01*
X137464731Y-77094418D01*
X137605582Y-77235269D01*
X137766734Y-77352353D01*
X137943304Y-77442320D01*
X137944219Y-77442786D01*
X138133657Y-77504338D01*
X138133658Y-77504338D01*
X138133661Y-77504339D01*
X138330403Y-77535500D01*
X138330404Y-77535500D01*
X138529596Y-77535500D01*
X138529597Y-77535500D01*
X138726339Y-77504339D01*
X138726342Y-77504338D01*
X138726343Y-77504338D01*
X138915780Y-77442786D01*
X138915780Y-77442785D01*
X138915783Y-77442785D01*
X139093266Y-77352353D01*
X139254418Y-77235269D01*
X139395269Y-77094418D01*
X139512353Y-76933266D01*
X139589515Y-76781827D01*
X139637490Y-76731031D01*
X139705311Y-76714236D01*
X139771446Y-76736773D01*
X139810485Y-76781827D01*
X139887647Y-76933266D01*
X140004731Y-77094418D01*
X140145582Y-77235269D01*
X140306734Y-77352353D01*
X140483304Y-77442320D01*
X140484219Y-77442786D01*
X140673657Y-77504338D01*
X140673658Y-77504338D01*
X140673661Y-77504339D01*
X140870403Y-77535500D01*
X140870404Y-77535500D01*
X141069596Y-77535500D01*
X141069597Y-77535500D01*
X141266339Y-77504339D01*
X141266342Y-77504338D01*
X141266343Y-77504338D01*
X141455780Y-77442786D01*
X141455780Y-77442785D01*
X141455783Y-77442785D01*
X141633266Y-77352353D01*
X141794418Y-77235269D01*
X141935269Y-77094418D01*
X142052353Y-76933266D01*
X142129515Y-76781827D01*
X142177490Y-76731031D01*
X142245311Y-76714236D01*
X142311446Y-76736773D01*
X142350485Y-76781827D01*
X142427647Y-76933266D01*
X142544731Y-77094418D01*
X142685582Y-77235269D01*
X142846734Y-77352353D01*
X143023304Y-77442320D01*
X143024219Y-77442786D01*
X143213657Y-77504338D01*
X143213658Y-77504338D01*
X143213661Y-77504339D01*
X143410403Y-77535500D01*
X143410404Y-77535500D01*
X143609596Y-77535500D01*
X143609597Y-77535500D01*
X143806339Y-77504339D01*
X143806342Y-77504338D01*
X143806343Y-77504338D01*
X143995780Y-77442786D01*
X143995780Y-77442785D01*
X143995783Y-77442785D01*
X144173266Y-77352353D01*
X144334418Y-77235269D01*
X144475269Y-77094418D01*
X144592353Y-76933266D01*
X144669515Y-76781827D01*
X144717490Y-76731031D01*
X144785311Y-76714236D01*
X144851446Y-76736773D01*
X144890485Y-76781827D01*
X144967647Y-76933266D01*
X145084731Y-77094418D01*
X145225582Y-77235269D01*
X145386734Y-77352353D01*
X145563304Y-77442320D01*
X145564219Y-77442786D01*
X145753657Y-77504338D01*
X145753658Y-77504338D01*
X145753661Y-77504339D01*
X145950403Y-77535500D01*
X145950404Y-77535500D01*
X146149596Y-77535500D01*
X146149597Y-77535500D01*
X146346339Y-77504339D01*
X146346342Y-77504338D01*
X146346343Y-77504338D01*
X146535780Y-77442786D01*
X146535780Y-77442785D01*
X146535783Y-77442785D01*
X146713266Y-77352353D01*
X146874418Y-77235269D01*
X147015269Y-77094418D01*
X147132353Y-76933266D01*
X147222785Y-76755783D01*
X147231006Y-76730481D01*
X147284338Y-76566343D01*
X147284338Y-76566342D01*
X147284339Y-76566339D01*
X147315500Y-76369597D01*
X147315500Y-76170403D01*
X147284339Y-75973661D01*
X147284338Y-75973657D01*
X147284338Y-75973656D01*
X147222786Y-75784219D01*
X147202386Y-75744181D01*
X147132353Y-75606734D01*
X147015269Y-75445582D01*
X146874418Y-75304731D01*
X146713266Y-75187647D01*
X146561827Y-75110485D01*
X146511031Y-75062510D01*
X146494236Y-74994689D01*
X146516773Y-74928554D01*
X146561827Y-74889515D01*
X146635081Y-74852190D01*
X146713266Y-74812353D01*
X146874418Y-74695269D01*
X147015269Y-74554418D01*
X147132353Y-74393266D01*
X147222785Y-74215783D01*
X147235140Y-74177758D01*
X147284338Y-74026343D01*
X147284338Y-74026342D01*
X147284337Y-74026342D01*
X147284339Y-74026339D01*
X147287703Y-74005101D01*
X147317633Y-73941967D01*
X147376945Y-73905036D01*
X147410176Y-73900500D01*
X164617060Y-73900500D01*
X164684099Y-73920185D01*
X164704741Y-73936819D01*
X167859211Y-77091289D01*
X167965524Y-77197602D01*
X167970712Y-77202790D01*
X168101817Y-77290392D01*
X168101819Y-77290392D01*
X168101821Y-77290394D01*
X168198731Y-77330535D01*
X168247502Y-77350737D01*
X168249658Y-77351165D01*
X168257067Y-77354168D01*
X168280217Y-77372531D01*
X168304933Y-77388728D01*
X168307284Y-77394000D01*
X168311807Y-77397588D01*
X168321354Y-77425552D01*
X168333390Y-77452540D01*
X168334079Y-77462820D01*
X168334383Y-77463710D01*
X168334191Y-77464486D01*
X168334500Y-77469092D01*
X168334500Y-77581002D01*
X168339644Y-77652940D01*
X168363799Y-77735202D01*
X168380056Y-77790566D01*
X168380056Y-77860434D01*
X168342282Y-77919212D01*
X168278727Y-77948238D01*
X168261079Y-77949500D01*
X167950170Y-77949500D01*
X167858102Y-77987636D01*
X167787636Y-78058102D01*
X167749500Y-78150170D01*
X167749500Y-78150172D01*
X167749500Y-80049828D01*
X167787636Y-80141897D01*
X167858103Y-80212364D01*
X167950172Y-80250500D01*
X168049828Y-80250500D01*
X168499395Y-80250500D01*
X168566434Y-80270185D01*
X168612189Y-80322989D01*
X168622133Y-80392147D01*
X168593108Y-80455703D01*
X168573706Y-80473766D01*
X168482812Y-80541809D01*
X168482809Y-80541812D01*
X168396649Y-80656906D01*
X168396645Y-80656913D01*
X168346403Y-80791620D01*
X168346401Y-80791627D01*
X168340000Y-80851155D01*
X168340000Y-81411000D01*
X172526000Y-81411000D01*
X172593039Y-81430685D01*
X172638794Y-81483489D01*
X172650000Y-81535000D01*
X172650000Y-81661000D01*
X172776000Y-81661000D01*
X172843039Y-81680685D01*
X172888794Y-81733489D01*
X172900000Y-81785000D01*
X172900000Y-84077000D01*
X172880315Y-84144039D01*
X172827511Y-84189794D01*
X172776000Y-84201000D01*
X172650000Y-84201000D01*
X172650000Y-84327000D01*
X172630315Y-84394039D01*
X172577511Y-84439794D01*
X172526000Y-84451000D01*
X168340000Y-84451000D01*
X168340000Y-85010844D01*
X168346401Y-85070372D01*
X168346403Y-85070379D01*
X168396645Y-85205086D01*
X168396646Y-85205088D01*
X168450625Y-85277194D01*
X168475042Y-85342658D01*
X168460191Y-85410931D01*
X168456893Y-85416607D01*
X168451627Y-85425143D01*
X168414746Y-85467706D01*
X168384455Y-85534031D01*
X168380403Y-85540602D01*
X168359937Y-85559008D01*
X168341908Y-85579815D01*
X168334327Y-85582040D01*
X168328453Y-85587324D01*
X168301280Y-85591744D01*
X168274868Y-85599500D01*
X90588368Y-85599500D01*
X90433723Y-85630261D01*
X90433711Y-85630264D01*
X90391046Y-85647937D01*
X90289349Y-85690061D01*
X90281172Y-85691687D01*
X90276832Y-85694477D01*
X90241897Y-85699500D01*
X90017848Y-85699500D01*
X89950809Y-85679815D01*
X89905054Y-85627011D01*
X89896231Y-85599692D01*
X89869738Y-85466508D01*
X89869737Y-85466507D01*
X89869737Y-85466503D01*
X89867185Y-85460341D01*
X89809397Y-85320827D01*
X89809390Y-85320814D01*
X89721789Y-85189711D01*
X89721786Y-85189707D01*
X89610292Y-85078213D01*
X89610288Y-85078210D01*
X89479185Y-84990609D01*
X89479172Y-84990602D01*
X89333501Y-84930264D01*
X89333489Y-84930261D01*
X89178845Y-84899500D01*
X89178842Y-84899500D01*
X89021158Y-84899500D01*
X89021155Y-84899500D01*
X88866510Y-84930261D01*
X88866498Y-84930264D01*
X88735736Y-84984427D01*
X88666266Y-84991896D01*
X88603787Y-84960620D01*
X88568136Y-84900531D01*
X88569495Y-84839660D01*
X88568549Y-84839472D01*
X88569620Y-84834087D01*
X88569625Y-84833865D01*
X88569735Y-84833501D01*
X88569737Y-84833497D01*
X88600500Y-84678842D01*
X88600500Y-84521158D01*
X88600500Y-84521155D01*
X88600499Y-84521153D01*
X88569737Y-84366503D01*
X88569735Y-84366498D01*
X88509397Y-84220827D01*
X88509390Y-84220814D01*
X88421789Y-84089711D01*
X88421786Y-84089707D01*
X88310292Y-83978213D01*
X88310288Y-83978210D01*
X88179185Y-83890609D01*
X88179172Y-83890602D01*
X88033501Y-83830264D01*
X88033489Y-83830261D01*
X87878845Y-83799500D01*
X87878842Y-83799500D01*
X87721158Y-83799500D01*
X87721155Y-83799500D01*
X87566510Y-83830261D01*
X87566498Y-83830264D01*
X87420827Y-83890602D01*
X87420814Y-83890609D01*
X87289711Y-83978210D01*
X87289707Y-83978213D01*
X87178213Y-84089707D01*
X87178210Y-84089711D01*
X87090609Y-84220814D01*
X87090602Y-84220827D01*
X87030264Y-84366498D01*
X87030261Y-84366510D01*
X86999500Y-84521153D01*
X86999500Y-84678846D01*
X87030261Y-84833489D01*
X87030264Y-84833501D01*
X87090602Y-84979172D01*
X87090609Y-84979185D01*
X87178210Y-85110288D01*
X87178213Y-85110292D01*
X87289707Y-85221786D01*
X87289711Y-85221789D01*
X87420814Y-85309390D01*
X87420827Y-85309397D01*
X87566498Y-85369735D01*
X87566503Y-85369737D01*
X87715965Y-85399467D01*
X87721153Y-85400499D01*
X87721156Y-85400500D01*
X87721158Y-85400500D01*
X87878844Y-85400500D01*
X87878845Y-85400499D01*
X88033497Y-85369737D01*
X88164264Y-85315571D01*
X88233731Y-85308103D01*
X88296211Y-85339378D01*
X88331863Y-85399467D01*
X88330509Y-85460341D01*
X88331451Y-85460529D01*
X88330386Y-85465882D01*
X88330381Y-85466111D01*
X88330263Y-85466498D01*
X88303769Y-85599692D01*
X88271384Y-85661603D01*
X88210668Y-85696177D01*
X88182152Y-85699500D01*
X85788041Y-85699500D01*
X85721002Y-85679815D01*
X85704505Y-85667139D01*
X85695816Y-85659218D01*
X85667546Y-85621454D01*
X85593957Y-85566365D01*
X85589526Y-85562326D01*
X85574370Y-85537384D01*
X85556880Y-85514019D01*
X85556440Y-85507877D01*
X85553243Y-85502615D01*
X85553977Y-85473437D01*
X85551896Y-85444327D01*
X85554846Y-85438922D01*
X85555002Y-85432768D01*
X85571395Y-85408617D01*
X85585382Y-85383005D01*
X85593638Y-85375850D01*
X85594244Y-85374959D01*
X85595078Y-85374602D01*
X85598752Y-85371420D01*
X85667189Y-85320188D01*
X85667190Y-85320187D01*
X85753350Y-85205093D01*
X85753354Y-85205086D01*
X85803596Y-85070379D01*
X85803598Y-85070372D01*
X85809999Y-85010844D01*
X85810000Y-85010827D01*
X85810000Y-84451000D01*
X81624000Y-84451000D01*
X81556961Y-84431315D01*
X81511206Y-84378511D01*
X81500000Y-84327000D01*
X81500000Y-84201000D01*
X81374000Y-84201000D01*
X81306961Y-84181315D01*
X81261206Y-84128511D01*
X81250000Y-84077000D01*
X81250000Y-83951000D01*
X81750000Y-83951000D01*
X85810000Y-83951000D01*
X85810000Y-83391172D01*
X85809999Y-83391155D01*
X85803598Y-83331627D01*
X85803596Y-83331620D01*
X85753354Y-83196913D01*
X85753350Y-83196906D01*
X85667191Y-83081813D01*
X85598334Y-83030267D01*
X85556463Y-82974333D01*
X85551479Y-82904641D01*
X85584964Y-82843318D01*
X85598334Y-82831733D01*
X85667191Y-82780186D01*
X85753350Y-82665093D01*
X85753354Y-82665086D01*
X85803596Y-82530379D01*
X85803598Y-82530372D01*
X85809999Y-82470844D01*
X168340000Y-82470844D01*
X168346401Y-82530372D01*
X168346403Y-82530379D01*
X168396645Y-82665086D01*
X168396649Y-82665093D01*
X168482809Y-82780187D01*
X168551666Y-82831734D01*
X168593536Y-82887668D01*
X168598520Y-82957359D01*
X168565034Y-83018682D01*
X168551666Y-83030266D01*
X168482809Y-83081812D01*
X168396649Y-83196906D01*
X168396645Y-83196913D01*
X168346403Y-83331620D01*
X168346401Y-83331627D01*
X168340000Y-83391155D01*
X168340000Y-83951000D01*
X172400000Y-83951000D01*
X172400000Y-81911000D01*
X168340000Y-81911000D01*
X168340000Y-82470844D01*
X85809999Y-82470844D01*
X85810000Y-82470827D01*
X85810000Y-81911000D01*
X81750000Y-81911000D01*
X81750000Y-83951000D01*
X81250000Y-83951000D01*
X81250000Y-80399000D01*
X81750000Y-80399000D01*
X81750000Y-81411000D01*
X85810000Y-81411000D01*
X85810000Y-81133697D01*
X85829685Y-81066658D01*
X85882489Y-81020903D01*
X85951647Y-81010959D01*
X86002887Y-81030593D01*
X86120821Y-81109394D01*
X86120823Y-81109395D01*
X86120827Y-81109397D01*
X86266498Y-81169735D01*
X86266503Y-81169737D01*
X86421153Y-81200499D01*
X86421156Y-81200500D01*
X86421158Y-81200500D01*
X86578844Y-81200500D01*
X86578845Y-81200499D01*
X86733497Y-81169737D01*
X86879179Y-81109394D01*
X87010289Y-81021789D01*
X87121789Y-80910289D01*
X87209394Y-80779179D01*
X87269737Y-80633497D01*
X87300500Y-80478842D01*
X87300500Y-80321158D01*
X87300500Y-80321155D01*
X87300499Y-80321153D01*
X87269738Y-80166510D01*
X87269737Y-80166503D01*
X87259545Y-80141897D01*
X87209397Y-80020827D01*
X87209390Y-80020814D01*
X87121789Y-79889711D01*
X87121786Y-79889707D01*
X87010292Y-79778213D01*
X87010288Y-79778210D01*
X86879185Y-79690609D01*
X86879172Y-79690602D01*
X86733501Y-79630264D01*
X86733489Y-79630261D01*
X86578845Y-79599500D01*
X86578842Y-79599500D01*
X86421158Y-79599500D01*
X86421155Y-79599500D01*
X86266510Y-79630261D01*
X86266498Y-79630264D01*
X86120827Y-79690602D01*
X86120814Y-79690609D01*
X85989711Y-79778210D01*
X85989707Y-79778213D01*
X85878213Y-79889707D01*
X85878210Y-79889711D01*
X85790609Y-80020814D01*
X85790602Y-80020827D01*
X85730264Y-80166498D01*
X85730261Y-80166510D01*
X85699500Y-80321153D01*
X85699500Y-80332034D01*
X85679815Y-80399073D01*
X85627011Y-80444828D01*
X85557853Y-80454772D01*
X85532167Y-80448216D01*
X85417379Y-80405403D01*
X85417372Y-80405401D01*
X85357844Y-80399000D01*
X81750000Y-80399000D01*
X81250000Y-80399000D01*
X77642155Y-80399000D01*
X77582627Y-80405401D01*
X77582620Y-80405403D01*
X77447913Y-80455645D01*
X77440128Y-80459897D01*
X77439363Y-80458497D01*
X77383343Y-80479390D01*
X77315070Y-80464537D01*
X77265666Y-80415130D01*
X77250500Y-80355706D01*
X77250500Y-78210423D01*
X77270185Y-78143384D01*
X77322989Y-78097629D01*
X77375571Y-78088151D01*
X77375571Y-78086500D01*
X85000000Y-78086500D01*
X85071940Y-78081355D01*
X85209992Y-78040819D01*
X85331032Y-77963031D01*
X85425254Y-77854294D01*
X85425255Y-77854291D01*
X85430264Y-77848511D01*
X85480642Y-77813533D01*
X85552331Y-77786796D01*
X85667546Y-77700546D01*
X85753796Y-77585331D01*
X85799733Y-77462166D01*
X85841604Y-77406234D01*
X85907068Y-77381816D01*
X85915915Y-77381500D01*
X102645840Y-77381500D01*
X102645842Y-77381500D01*
X102645843Y-77381499D01*
X102646764Y-77381409D01*
X102647244Y-77381500D01*
X102651934Y-77381500D01*
X102651934Y-77382389D01*
X102715410Y-77394428D01*
X102766121Y-77442492D01*
X102782796Y-77510343D01*
X102773481Y-77552263D01*
X102723263Y-77673503D01*
X102723261Y-77673510D01*
X102692500Y-77828153D01*
X102692500Y-77985846D01*
X102723261Y-78140489D01*
X102723264Y-78140501D01*
X102783602Y-78286172D01*
X102783609Y-78286185D01*
X102871210Y-78417288D01*
X102871213Y-78417292D01*
X102982707Y-78528786D01*
X102982711Y-78528789D01*
X103113814Y-78616390D01*
X103113827Y-78616397D01*
X103259498Y-78676735D01*
X103259503Y-78676737D01*
X103414153Y-78707499D01*
X103414156Y-78707500D01*
X103414158Y-78707500D01*
X103571844Y-78707500D01*
X103571845Y-78707499D01*
X103726497Y-78676737D01*
X103872179Y-78616394D01*
X104003289Y-78528789D01*
X104114789Y-78417289D01*
X104202394Y-78286179D01*
X104262737Y-78140497D01*
X104293500Y-77985842D01*
X104293500Y-77828158D01*
X104293500Y-77828155D01*
X104293499Y-77828153D01*
X104286022Y-77790564D01*
X104262737Y-77673503D01*
X104226217Y-77585335D01*
X104202397Y-77527827D01*
X104202390Y-77527814D01*
X104114789Y-77396711D01*
X104114786Y-77396707D01*
X104003292Y-77285213D01*
X104003288Y-77285210D01*
X103872185Y-77197609D01*
X103872172Y-77197602D01*
X103726501Y-77137264D01*
X103726489Y-77137261D01*
X103571845Y-77106500D01*
X103571842Y-77106500D01*
X103472941Y-77106500D01*
X103405902Y-77086815D01*
X103360147Y-77034011D01*
X103350203Y-76964853D01*
X103379228Y-76901297D01*
X103385260Y-76894819D01*
X104202190Y-76077889D01*
X106473319Y-73806759D01*
X106534642Y-73773274D01*
X106604334Y-73778258D01*
G37*
%TD.AperFunction*%
%TA.AperFunction,Conductor*%
G36*
X109420203Y-74416030D02*
G01*
X109439316Y-74436855D01*
X109524731Y-74554418D01*
X109665582Y-74695269D01*
X109826734Y-74812353D01*
X109896453Y-74847877D01*
X109978172Y-74889515D01*
X110028968Y-74937490D01*
X110045763Y-75005311D01*
X110023225Y-75071446D01*
X109978172Y-75110485D01*
X109826733Y-75187647D01*
X109739547Y-75250992D01*
X109665582Y-75304731D01*
X109665580Y-75304733D01*
X109665579Y-75304733D01*
X109524733Y-75445579D01*
X109524733Y-75445580D01*
X109524731Y-75445582D01*
X109513198Y-75461456D01*
X109407645Y-75606735D01*
X109330203Y-75758723D01*
X109282229Y-75809518D01*
X109214408Y-75826313D01*
X109148273Y-75803775D01*
X109109234Y-75758722D01*
X109031924Y-75606994D01*
X109004417Y-75569135D01*
X109004417Y-75569134D01*
X108441128Y-76132424D01*
X108425245Y-76073147D01*
X108358102Y-75956853D01*
X108263147Y-75861898D01*
X108146853Y-75794755D01*
X108087574Y-75778871D01*
X108650864Y-75215581D01*
X108650606Y-75212312D01*
X108613343Y-75163988D01*
X108607364Y-75094375D01*
X108639970Y-75032580D01*
X108700808Y-74998223D01*
X108728894Y-74995000D01*
X108762828Y-74995000D01*
X108762844Y-74994999D01*
X108822372Y-74988598D01*
X108822379Y-74988596D01*
X108957086Y-74938354D01*
X108957093Y-74938350D01*
X109072187Y-74852190D01*
X109072190Y-74852187D01*
X109158350Y-74737093D01*
X109158354Y-74737086D01*
X109208596Y-74602379D01*
X109208598Y-74602372D01*
X109214999Y-74542844D01*
X109215000Y-74542827D01*
X109215000Y-74509743D01*
X109234685Y-74442704D01*
X109287489Y-74396949D01*
X109356647Y-74387005D01*
X109420203Y-74416030D01*
G37*
%TD.AperFunction*%
%TA.AperFunction,Conductor*%
G36*
X109420203Y-54416030D02*
G01*
X109439316Y-54436855D01*
X109524731Y-54554418D01*
X109665582Y-54695269D01*
X109826734Y-54812353D01*
X109896453Y-54847877D01*
X109978172Y-54889515D01*
X110028968Y-54937490D01*
X110045763Y-55005311D01*
X110023225Y-55071446D01*
X109978172Y-55110485D01*
X109826733Y-55187647D01*
X109788286Y-55215581D01*
X109665582Y-55304731D01*
X109665580Y-55304733D01*
X109665579Y-55304733D01*
X109524733Y-55445579D01*
X109524733Y-55445580D01*
X109524731Y-55445582D01*
X109489555Y-55493997D01*
X109407645Y-55606735D01*
X109330203Y-55758723D01*
X109282229Y-55809518D01*
X109214408Y-55826313D01*
X109148273Y-55803775D01*
X109109234Y-55758722D01*
X109031924Y-55606994D01*
X109004417Y-55569135D01*
X109004417Y-55569134D01*
X108441128Y-56132424D01*
X108425245Y-56073147D01*
X108358102Y-55956853D01*
X108263147Y-55861898D01*
X108146853Y-55794755D01*
X108087574Y-55778871D01*
X108650864Y-55215581D01*
X108650606Y-55212312D01*
X108613343Y-55163988D01*
X108607364Y-55094375D01*
X108639970Y-55032580D01*
X108700808Y-54998223D01*
X108728894Y-54995000D01*
X108762828Y-54995000D01*
X108762844Y-54994999D01*
X108822372Y-54988598D01*
X108822379Y-54988596D01*
X108957086Y-54938354D01*
X108957093Y-54938350D01*
X109072187Y-54852190D01*
X109072190Y-54852187D01*
X109158350Y-54737093D01*
X109158354Y-54737086D01*
X109208596Y-54602379D01*
X109208598Y-54602372D01*
X109214999Y-54542844D01*
X109215000Y-54542827D01*
X109215000Y-54509743D01*
X109234685Y-54442704D01*
X109287489Y-54396949D01*
X109356647Y-54387005D01*
X109420203Y-54416030D01*
G37*
%TD.AperFunction*%
%TA.AperFunction,Conductor*%
G36*
X176692539Y-43270185D02*
G01*
X176738294Y-43322989D01*
X176749500Y-43374500D01*
X176749500Y-67354019D01*
X176729815Y-67421058D01*
X176677011Y-67466813D01*
X176607854Y-67476757D01*
X176460001Y-67455500D01*
X176460000Y-67455500D01*
X168840000Y-67455500D01*
X168839997Y-67455500D01*
X168768059Y-67460644D01*
X168630005Y-67501182D01*
X168630002Y-67501183D01*
X168568956Y-67540415D01*
X168501916Y-67560099D01*
X168434877Y-67540414D01*
X168398816Y-67504990D01*
X168321789Y-67389710D01*
X168210292Y-67278213D01*
X168210288Y-67278210D01*
X168079185Y-67190609D01*
X168079172Y-67190602D01*
X167933501Y-67130264D01*
X167933489Y-67130261D01*
X167778845Y-67099500D01*
X167778842Y-67099500D01*
X167621158Y-67099500D01*
X167621155Y-67099500D01*
X167466510Y-67130261D01*
X167466498Y-67130264D01*
X167320827Y-67190602D01*
X167320814Y-67190609D01*
X167189711Y-67278210D01*
X167189707Y-67278213D01*
X167078213Y-67389707D01*
X167078210Y-67389711D01*
X166990609Y-67520814D01*
X166990602Y-67520827D01*
X166930264Y-67666498D01*
X166930261Y-67666510D01*
X166899500Y-67821153D01*
X166899500Y-67978841D01*
X166906157Y-68012310D01*
X166899928Y-68081901D01*
X166857065Y-68137078D01*
X166791175Y-68160322D01*
X166784539Y-68160500D01*
X85915915Y-68160500D01*
X85848876Y-68140815D01*
X85803121Y-68088011D01*
X85799733Y-68079833D01*
X85753797Y-67956671D01*
X85753793Y-67956664D01*
X85667547Y-67841455D01*
X85667544Y-67841452D01*
X85552334Y-67755205D01*
X85552333Y-67755204D01*
X85472865Y-67725564D01*
X85416932Y-67683692D01*
X85411891Y-67676431D01*
X85387136Y-67637911D01*
X85382033Y-67629970D01*
X85382029Y-67629966D01*
X85273295Y-67535747D01*
X85273294Y-67535746D01*
X85273290Y-67535744D01*
X85142419Y-67475976D01*
X85142414Y-67475975D01*
X85000000Y-67455500D01*
X77380000Y-67455500D01*
X77379979Y-67455500D01*
X77378912Y-67455538D01*
X77378763Y-67455500D01*
X77377786Y-67455500D01*
X77377786Y-67455250D01*
X77311215Y-67438252D01*
X77263610Y-67387109D01*
X77250500Y-67331617D01*
X77250500Y-64770153D01*
X108210290Y-64770153D01*
X108210290Y-64927846D01*
X108241051Y-65082489D01*
X108241054Y-65082501D01*
X108301392Y-65228172D01*
X108301399Y-65228185D01*
X108389000Y-65359288D01*
X108389003Y-65359292D01*
X108500497Y-65470786D01*
X108500501Y-65470789D01*
X108631604Y-65558390D01*
X108631617Y-65558397D01*
X108777288Y-65618735D01*
X108777293Y-65618737D01*
X108931943Y-65649499D01*
X108931946Y-65649500D01*
X108931948Y-65649500D01*
X109089634Y-65649500D01*
X109089635Y-65649499D01*
X109244287Y-65618737D01*
X109389969Y-65558394D01*
X109521079Y-65470789D01*
X109632579Y-65359289D01*
X109720184Y-65228179D01*
X109780527Y-65082497D01*
X109811290Y-64927842D01*
X109811290Y-64770158D01*
X109811290Y-64770155D01*
X109811289Y-64770153D01*
X109780528Y-64615510D01*
X109780527Y-64615503D01*
X109780525Y-64615498D01*
X109720187Y-64469827D01*
X109720180Y-64469814D01*
X109632579Y-64338711D01*
X109632576Y-64338707D01*
X109521082Y-64227213D01*
X109521078Y-64227210D01*
X109389975Y-64139609D01*
X109389962Y-64139602D01*
X109244291Y-64079264D01*
X109244279Y-64079261D01*
X109089635Y-64048500D01*
X109089632Y-64048500D01*
X108931948Y-64048500D01*
X108931945Y-64048500D01*
X108777300Y-64079261D01*
X108777288Y-64079264D01*
X108631617Y-64139602D01*
X108631604Y-64139609D01*
X108500501Y-64227210D01*
X108500497Y-64227213D01*
X108389003Y-64338707D01*
X108389000Y-64338711D01*
X108301399Y-64469814D01*
X108301392Y-64469827D01*
X108241054Y-64615498D01*
X108241051Y-64615510D01*
X108210290Y-64770153D01*
X77250500Y-64770153D01*
X77250500Y-62062332D01*
X95781290Y-62062332D01*
X95781290Y-62337667D01*
X95781291Y-62337684D01*
X95817228Y-62610655D01*
X95817229Y-62610660D01*
X95817230Y-62610666D01*
X95817231Y-62610668D01*
X95888494Y-62876630D01*
X95993865Y-63131017D01*
X95993870Y-63131028D01*
X96076651Y-63274407D01*
X96131541Y-63369479D01*
X96131543Y-63369482D01*
X96131544Y-63369483D01*
X96299160Y-63587926D01*
X96299166Y-63587933D01*
X96493856Y-63782623D01*
X96493862Y-63782628D01*
X96712311Y-63950249D01*
X96865568Y-64038732D01*
X96950761Y-64087919D01*
X96950766Y-64087921D01*
X96950769Y-64087923D01*
X97205158Y-64193295D01*
X97471124Y-64264560D01*
X97744116Y-64300500D01*
X97744123Y-64300500D01*
X98019457Y-64300500D01*
X98019464Y-64300500D01*
X98292456Y-64264560D01*
X98558422Y-64193295D01*
X98812811Y-64087923D01*
X99051269Y-63950249D01*
X99269718Y-63782628D01*
X99464418Y-63587928D01*
X99632039Y-63369479D01*
X99769713Y-63131021D01*
X99875085Y-62876632D01*
X99946350Y-62610666D01*
X99982290Y-62337674D01*
X99982290Y-62062326D01*
X99946350Y-61789334D01*
X99875085Y-61523368D01*
X99769713Y-61268979D01*
X99769711Y-61268976D01*
X99769709Y-61268971D01*
X99720522Y-61183778D01*
X99632039Y-61030521D01*
X99464418Y-60812072D01*
X99464413Y-60812066D01*
X99269718Y-60617371D01*
X99161206Y-60534108D01*
X111021290Y-60534108D01*
X111021290Y-63865891D01*
X111055398Y-63993187D01*
X111087334Y-64048500D01*
X111121290Y-64107314D01*
X111214476Y-64200500D01*
X111313311Y-64257563D01*
X111325432Y-64264561D01*
X111328604Y-64266392D01*
X111455898Y-64300500D01*
X111455900Y-64300500D01*
X114787680Y-64300500D01*
X114787682Y-64300500D01*
X114914976Y-64266392D01*
X115029104Y-64200500D01*
X115122290Y-64107314D01*
X115188182Y-63993186D01*
X115222290Y-63865892D01*
X115222290Y-60534108D01*
X115188182Y-60406814D01*
X115122290Y-60292686D01*
X115029104Y-60199500D01*
X114972040Y-60166554D01*
X114914977Y-60133608D01*
X114851329Y-60116554D01*
X114787682Y-60099500D01*
X111587682Y-60099500D01*
X111455898Y-60099500D01*
X111328602Y-60133608D01*
X111214476Y-60199500D01*
X111214473Y-60199502D01*
X111121292Y-60292683D01*
X111121290Y-60292686D01*
X111055398Y-60406812D01*
X111021290Y-60534108D01*
X99161206Y-60534108D01*
X99051273Y-60449754D01*
X99051272Y-60449753D01*
X99051269Y-60449751D01*
X98956197Y-60394861D01*
X98812818Y-60312080D01*
X98812807Y-60312075D01*
X98558420Y-60206704D01*
X98425439Y-60171072D01*
X98292456Y-60135440D01*
X98292450Y-60135439D01*
X98292445Y-60135438D01*
X98019474Y-60099501D01*
X98019469Y-60099500D01*
X98019464Y-60099500D01*
X97744116Y-60099500D01*
X97744110Y-60099500D01*
X97744105Y-60099501D01*
X97471134Y-60135438D01*
X97471127Y-60135439D01*
X97471124Y-60135440D01*
X97414915Y-60150500D01*
X97205159Y-60206704D01*
X96950772Y-60312075D01*
X96950761Y-60312080D01*
X96712306Y-60449754D01*
X96493863Y-60617370D01*
X96493856Y-60617376D01*
X96299166Y-60812066D01*
X96299160Y-60812073D01*
X96131544Y-61030516D01*
X95993870Y-61268971D01*
X95993865Y-61268982D01*
X95888494Y-61523369D01*
X95817231Y-61789331D01*
X95817228Y-61789344D01*
X95781291Y-62062315D01*
X95781290Y-62062332D01*
X77250500Y-62062332D01*
X77250500Y-51751617D01*
X83308990Y-51751617D01*
X83308990Y-51948382D01*
X83339768Y-52142705D01*
X83400571Y-52329835D01*
X83489894Y-52505143D01*
X83605545Y-52664321D01*
X83637081Y-52695857D01*
X84353527Y-51979410D01*
X84370565Y-52042993D01*
X84436391Y-52157007D01*
X84529483Y-52250099D01*
X84643497Y-52315925D01*
X84707079Y-52332962D01*
X84047665Y-52992375D01*
X84079149Y-53008416D01*
X84079159Y-53008420D01*
X84266284Y-53069221D01*
X84460608Y-53100000D01*
X85212372Y-53100000D01*
X85406695Y-53069221D01*
X85593825Y-53008418D01*
X85625313Y-52992375D01*
X84965900Y-52332962D01*
X85029483Y-52315925D01*
X85143497Y-52250099D01*
X85236589Y-52157007D01*
X85302415Y-52042993D01*
X85319452Y-51979410D01*
X86035899Y-52695857D01*
X86067433Y-52664322D01*
X86067434Y-52664321D01*
X86183085Y-52505143D01*
X86272408Y-52329835D01*
X86333211Y-52142705D01*
X86363990Y-51948382D01*
X86363990Y-51751617D01*
X89808990Y-51751617D01*
X89808990Y-51948382D01*
X89839768Y-52142705D01*
X89900571Y-52329835D01*
X89989894Y-52505143D01*
X90105545Y-52664321D01*
X90137081Y-52695857D01*
X90853527Y-51979410D01*
X90870565Y-52042993D01*
X90936391Y-52157007D01*
X91029483Y-52250099D01*
X91143497Y-52315925D01*
X91207079Y-52332962D01*
X90547665Y-52992375D01*
X90579149Y-53008416D01*
X90579159Y-53008420D01*
X90766284Y-53069221D01*
X90960608Y-53100000D01*
X91712372Y-53100000D01*
X91906695Y-53069221D01*
X92093825Y-53008418D01*
X92125313Y-52992375D01*
X92050093Y-52917155D01*
X106685000Y-52917155D01*
X106685000Y-53480000D01*
X107505440Y-53480000D01*
X107474755Y-53533147D01*
X107440000Y-53662857D01*
X107440000Y-53797143D01*
X107474755Y-53926853D01*
X107505440Y-53980000D01*
X106685000Y-53980000D01*
X106685000Y-54542844D01*
X106691401Y-54602372D01*
X106691403Y-54602379D01*
X106741645Y-54737086D01*
X106741649Y-54737093D01*
X106827809Y-54852187D01*
X106827812Y-54852190D01*
X106942906Y-54938350D01*
X106942913Y-54938354D01*
X107077620Y-54988596D01*
X107077627Y-54988598D01*
X107137155Y-54994999D01*
X107137172Y-54995000D01*
X107171105Y-54995000D01*
X107238144Y-55014685D01*
X107283899Y-55067489D01*
X107293843Y-55136647D01*
X107264818Y-55200203D01*
X107249219Y-55214519D01*
X107249135Y-55215581D01*
X107812425Y-55778871D01*
X107753147Y-55794755D01*
X107636853Y-55861898D01*
X107541898Y-55956853D01*
X107474755Y-56073147D01*
X107458871Y-56132425D01*
X106895581Y-55569135D01*
X106895580Y-55569135D01*
X106868077Y-55606990D01*
X106777679Y-55784405D01*
X106716147Y-55973777D01*
X106685000Y-56170436D01*
X106685000Y-56369563D01*
X106716147Y-56566222D01*
X106777679Y-56755594D01*
X106868077Y-56933008D01*
X106895580Y-56970863D01*
X106895581Y-56970864D01*
X107458871Y-56407574D01*
X107474755Y-56466853D01*
X107541898Y-56583147D01*
X107636853Y-56678102D01*
X107753147Y-56745245D01*
X107812425Y-56761128D01*
X107249134Y-57324417D01*
X107286994Y-57351924D01*
X107464405Y-57442320D01*
X107653777Y-57503852D01*
X107850437Y-57535000D01*
X108049563Y-57535000D01*
X108246222Y-57503852D01*
X108435594Y-57442320D01*
X108613005Y-57351924D01*
X108650863Y-57324418D01*
X108650863Y-57324417D01*
X108087574Y-56761128D01*
X108146853Y-56745245D01*
X108263147Y-56678102D01*
X108358102Y-56583147D01*
X108425245Y-56466853D01*
X108441128Y-56407574D01*
X109004417Y-56970863D01*
X109004418Y-56970863D01*
X109031924Y-56933005D01*
X109109234Y-56781277D01*
X109157208Y-56730481D01*
X109225029Y-56713686D01*
X109291164Y-56736223D01*
X109330204Y-56781277D01*
X109407514Y-56933005D01*
X109407647Y-56933266D01*
X109524731Y-57094418D01*
X109665582Y-57235269D01*
X109826734Y-57352353D01*
X110003304Y-57442320D01*
X110004219Y-57442786D01*
X110193657Y-57504338D01*
X110193658Y-57504338D01*
X110193661Y-57504339D01*
X110390403Y-57535500D01*
X110390404Y-57535500D01*
X110589596Y-57535500D01*
X110589597Y-57535500D01*
X110786339Y-57504339D01*
X110786342Y-57504338D01*
X110786343Y-57504338D01*
X110975780Y-57442786D01*
X110975780Y-57442785D01*
X110975783Y-57442785D01*
X111153266Y-57352353D01*
X111314418Y-57235269D01*
X111455269Y-57094418D01*
X111572353Y-56933266D01*
X111649515Y-56781827D01*
X111697490Y-56731031D01*
X111765311Y-56714236D01*
X111831446Y-56736773D01*
X111870485Y-56781827D01*
X111947647Y-56933266D01*
X112064731Y-57094418D01*
X112205582Y-57235269D01*
X112366734Y-57352353D01*
X112543304Y-57442320D01*
X112544219Y-57442786D01*
X112733657Y-57504338D01*
X112733658Y-57504338D01*
X112733661Y-57504339D01*
X112930403Y-57535500D01*
X112930404Y-57535500D01*
X113129596Y-57535500D01*
X113129597Y-57535500D01*
X113326339Y-57504339D01*
X113326342Y-57504338D01*
X113326343Y-57504338D01*
X113515780Y-57442786D01*
X113515780Y-57442785D01*
X113515783Y-57442785D01*
X113693266Y-57352353D01*
X113854418Y-57235269D01*
X113995269Y-57094418D01*
X114112353Y-56933266D01*
X114189515Y-56781827D01*
X114237490Y-56731031D01*
X114305311Y-56714236D01*
X114371446Y-56736773D01*
X114410485Y-56781827D01*
X114487647Y-56933266D01*
X114604731Y-57094418D01*
X114745582Y-57235269D01*
X114906734Y-57352353D01*
X115083304Y-57442320D01*
X115084219Y-57442786D01*
X115273657Y-57504338D01*
X115273658Y-57504338D01*
X115273661Y-57504339D01*
X115470403Y-57535500D01*
X115470404Y-57535500D01*
X115669596Y-57535500D01*
X115669597Y-57535500D01*
X115866339Y-57504339D01*
X115866342Y-57504338D01*
X115866343Y-57504338D01*
X116055780Y-57442786D01*
X116055780Y-57442785D01*
X116055783Y-57442785D01*
X116233266Y-57352353D01*
X116394418Y-57235269D01*
X116535269Y-57094418D01*
X116652353Y-56933266D01*
X116729515Y-56781827D01*
X116777490Y-56731031D01*
X116845311Y-56714236D01*
X116911446Y-56736773D01*
X116950485Y-56781827D01*
X117027647Y-56933266D01*
X117144731Y-57094418D01*
X117285582Y-57235269D01*
X117446734Y-57352353D01*
X117623304Y-57442320D01*
X117624219Y-57442786D01*
X117813657Y-57504338D01*
X117813658Y-57504338D01*
X117813661Y-57504339D01*
X118010403Y-57535500D01*
X118010404Y-57535500D01*
X118209596Y-57535500D01*
X118209597Y-57535500D01*
X118406339Y-57504339D01*
X118406342Y-57504338D01*
X118406343Y-57504338D01*
X118595780Y-57442786D01*
X118595780Y-57442785D01*
X118595783Y-57442785D01*
X118773266Y-57352353D01*
X118934418Y-57235269D01*
X119075269Y-57094418D01*
X119192353Y-56933266D01*
X119269515Y-56781827D01*
X119317490Y-56731031D01*
X119385311Y-56714236D01*
X119451446Y-56736773D01*
X119490485Y-56781827D01*
X119567647Y-56933266D01*
X119684731Y-57094418D01*
X119825582Y-57235269D01*
X119986734Y-57352353D01*
X120163304Y-57442320D01*
X120164219Y-57442786D01*
X120353657Y-57504338D01*
X120353658Y-57504338D01*
X120353661Y-57504339D01*
X120550403Y-57535500D01*
X120550404Y-57535500D01*
X120749596Y-57535500D01*
X120749597Y-57535500D01*
X120946339Y-57504339D01*
X120946342Y-57504338D01*
X120946343Y-57504338D01*
X121135780Y-57442786D01*
X121135780Y-57442785D01*
X121135783Y-57442785D01*
X121313266Y-57352353D01*
X121474418Y-57235269D01*
X121615269Y-57094418D01*
X121732353Y-56933266D01*
X121809515Y-56781827D01*
X121857490Y-56731031D01*
X121925311Y-56714236D01*
X121991446Y-56736773D01*
X122030485Y-56781827D01*
X122107647Y-56933266D01*
X122224731Y-57094418D01*
X122365582Y-57235269D01*
X122526734Y-57352353D01*
X122703304Y-57442320D01*
X122704219Y-57442786D01*
X122893657Y-57504338D01*
X122893658Y-57504338D01*
X122893661Y-57504339D01*
X123090403Y-57535500D01*
X123090404Y-57535500D01*
X123289596Y-57535500D01*
X123289597Y-57535500D01*
X123486339Y-57504339D01*
X123486342Y-57504338D01*
X123486343Y-57504338D01*
X123675780Y-57442786D01*
X123675780Y-57442785D01*
X123675783Y-57442785D01*
X123853266Y-57352353D01*
X124014418Y-57235269D01*
X124155269Y-57094418D01*
X124272353Y-56933266D01*
X124349515Y-56781827D01*
X124397490Y-56731031D01*
X124465311Y-56714236D01*
X124531446Y-56736773D01*
X124570485Y-56781827D01*
X124647647Y-56933266D01*
X124764731Y-57094418D01*
X124905582Y-57235269D01*
X125066734Y-57352353D01*
X125243304Y-57442320D01*
X125244219Y-57442786D01*
X125433657Y-57504338D01*
X125433658Y-57504338D01*
X125433661Y-57504339D01*
X125630403Y-57535500D01*
X125630404Y-57535500D01*
X125829596Y-57535500D01*
X125829597Y-57535500D01*
X126026339Y-57504339D01*
X126026342Y-57504338D01*
X126026343Y-57504338D01*
X126215780Y-57442786D01*
X126215780Y-57442785D01*
X126215783Y-57442785D01*
X126393266Y-57352353D01*
X126554418Y-57235269D01*
X126695269Y-57094418D01*
X126812353Y-56933266D01*
X126889515Y-56781827D01*
X126937490Y-56731031D01*
X127005311Y-56714236D01*
X127071446Y-56736773D01*
X127110485Y-56781827D01*
X127187647Y-56933266D01*
X127304731Y-57094418D01*
X127445582Y-57235269D01*
X127606734Y-57352353D01*
X127783304Y-57442320D01*
X127784219Y-57442786D01*
X127973657Y-57504338D01*
X127973658Y-57504338D01*
X127973661Y-57504339D01*
X128170403Y-57535500D01*
X128170404Y-57535500D01*
X128369596Y-57535500D01*
X128369597Y-57535500D01*
X128566339Y-57504339D01*
X128566342Y-57504338D01*
X128566343Y-57504338D01*
X128755780Y-57442786D01*
X128755780Y-57442785D01*
X128755783Y-57442785D01*
X128933266Y-57352353D01*
X129094418Y-57235269D01*
X129235269Y-57094418D01*
X129352353Y-56933266D01*
X129429515Y-56781827D01*
X129477490Y-56731031D01*
X129545311Y-56714236D01*
X129611446Y-56736773D01*
X129650485Y-56781827D01*
X129727647Y-56933266D01*
X129844731Y-57094418D01*
X129985582Y-57235269D01*
X130146734Y-57352353D01*
X130323304Y-57442320D01*
X130324219Y-57442786D01*
X130513657Y-57504338D01*
X130513658Y-57504338D01*
X130513661Y-57504339D01*
X130710403Y-57535500D01*
X130710404Y-57535500D01*
X130909596Y-57535500D01*
X130909597Y-57535500D01*
X131106339Y-57504339D01*
X131106342Y-57504338D01*
X131106343Y-57504338D01*
X131295780Y-57442786D01*
X131295780Y-57442785D01*
X131295783Y-57442785D01*
X131473266Y-57352353D01*
X131634418Y-57235269D01*
X131775269Y-57094418D01*
X131892353Y-56933266D01*
X131969515Y-56781827D01*
X132017490Y-56731031D01*
X132085311Y-56714236D01*
X132151446Y-56736773D01*
X132190485Y-56781827D01*
X132267647Y-56933266D01*
X132384731Y-57094418D01*
X132525582Y-57235269D01*
X132686734Y-57352353D01*
X132863304Y-57442320D01*
X132864219Y-57442786D01*
X133053657Y-57504338D01*
X133053658Y-57504338D01*
X133053661Y-57504339D01*
X133250403Y-57535500D01*
X133250404Y-57535500D01*
X133449596Y-57535500D01*
X133449597Y-57535500D01*
X133646339Y-57504339D01*
X133646342Y-57504338D01*
X133646343Y-57504338D01*
X133835780Y-57442786D01*
X133835780Y-57442785D01*
X133835783Y-57442785D01*
X134013266Y-57352353D01*
X134174418Y-57235269D01*
X134315269Y-57094418D01*
X134432353Y-56933266D01*
X134509515Y-56781827D01*
X134557490Y-56731031D01*
X134625311Y-56714236D01*
X134691446Y-56736773D01*
X134730485Y-56781827D01*
X134807647Y-56933266D01*
X134924731Y-57094418D01*
X135065582Y-57235269D01*
X135226734Y-57352353D01*
X135403304Y-57442320D01*
X135404219Y-57442786D01*
X135593657Y-57504338D01*
X135593658Y-57504338D01*
X135593661Y-57504339D01*
X135790403Y-57535500D01*
X135790404Y-57535500D01*
X135989596Y-57535500D01*
X135989597Y-57535500D01*
X136186339Y-57504339D01*
X136186342Y-57504338D01*
X136186343Y-57504338D01*
X136375780Y-57442786D01*
X136375780Y-57442785D01*
X136375783Y-57442785D01*
X136553266Y-57352353D01*
X136714418Y-57235269D01*
X136855269Y-57094418D01*
X136972353Y-56933266D01*
X137049515Y-56781827D01*
X137097490Y-56731031D01*
X137165311Y-56714236D01*
X137231446Y-56736773D01*
X137270485Y-56781827D01*
X137347647Y-56933266D01*
X137464731Y-57094418D01*
X137605582Y-57235269D01*
X137766734Y-57352353D01*
X137943304Y-57442320D01*
X137944219Y-57442786D01*
X138133657Y-57504338D01*
X138133658Y-57504338D01*
X138133661Y-57504339D01*
X138330403Y-57535500D01*
X138330404Y-57535500D01*
X138529596Y-57535500D01*
X138529597Y-57535500D01*
X138726339Y-57504339D01*
X138726342Y-57504338D01*
X138726343Y-57504338D01*
X138915780Y-57442786D01*
X138915780Y-57442785D01*
X138915783Y-57442785D01*
X139093266Y-57352353D01*
X139254418Y-57235269D01*
X139395269Y-57094418D01*
X139512353Y-56933266D01*
X139589515Y-56781827D01*
X139637490Y-56731031D01*
X139705311Y-56714236D01*
X139771446Y-56736773D01*
X139810485Y-56781827D01*
X139887647Y-56933266D01*
X140004731Y-57094418D01*
X140145582Y-57235269D01*
X140306734Y-57352353D01*
X140483304Y-57442320D01*
X140484219Y-57442786D01*
X140673657Y-57504338D01*
X140673658Y-57504338D01*
X140673661Y-57504339D01*
X140870403Y-57535500D01*
X140870404Y-57535500D01*
X141069596Y-57535500D01*
X141069597Y-57535500D01*
X141266339Y-57504339D01*
X141266342Y-57504338D01*
X141266343Y-57504338D01*
X141455780Y-57442786D01*
X141455780Y-57442785D01*
X141455783Y-57442785D01*
X141633266Y-57352353D01*
X141794418Y-57235269D01*
X141935269Y-57094418D01*
X142052353Y-56933266D01*
X142129515Y-56781827D01*
X142177490Y-56731031D01*
X142245311Y-56714236D01*
X142311446Y-56736773D01*
X142350485Y-56781827D01*
X142427647Y-56933266D01*
X142544731Y-57094418D01*
X142685582Y-57235269D01*
X142846734Y-57352353D01*
X143023304Y-57442320D01*
X143024219Y-57442786D01*
X143213657Y-57504338D01*
X143213658Y-57504338D01*
X143213661Y-57504339D01*
X143410403Y-57535500D01*
X143410404Y-57535500D01*
X143609596Y-57535500D01*
X143609597Y-57535500D01*
X143806339Y-57504339D01*
X143806342Y-57504338D01*
X143806343Y-57504338D01*
X143995780Y-57442786D01*
X143995780Y-57442785D01*
X143995783Y-57442785D01*
X144173266Y-57352353D01*
X144334418Y-57235269D01*
X144475269Y-57094418D01*
X144592353Y-56933266D01*
X144669515Y-56781827D01*
X144717490Y-56731031D01*
X144785311Y-56714236D01*
X144851446Y-56736773D01*
X144890485Y-56781827D01*
X144967647Y-56933266D01*
X145084731Y-57094418D01*
X145225582Y-57235269D01*
X145386734Y-57352353D01*
X145563304Y-57442320D01*
X145564219Y-57442786D01*
X145753657Y-57504338D01*
X145753658Y-57504338D01*
X145753661Y-57504339D01*
X145950403Y-57535500D01*
X145950404Y-57535500D01*
X146149596Y-57535500D01*
X146149597Y-57535500D01*
X146346339Y-57504339D01*
X146346342Y-57504338D01*
X146346343Y-57504338D01*
X146535780Y-57442786D01*
X146535780Y-57442785D01*
X146535783Y-57442785D01*
X146713266Y-57352353D01*
X146874418Y-57235269D01*
X147015269Y-57094418D01*
X147132353Y-56933266D01*
X147222785Y-56755783D01*
X147231006Y-56730481D01*
X147284338Y-56566343D01*
X147284338Y-56566342D01*
X147284339Y-56566339D01*
X147315500Y-56369597D01*
X147315500Y-56170403D01*
X147284339Y-55973661D01*
X147284338Y-55973657D01*
X147284338Y-55973656D01*
X147222786Y-55784219D01*
X147132483Y-55606990D01*
X147132353Y-55606734D01*
X147015269Y-55445582D01*
X146874418Y-55304731D01*
X146713266Y-55187647D01*
X146561827Y-55110485D01*
X146511031Y-55062510D01*
X146494236Y-54994689D01*
X146516773Y-54928554D01*
X146561827Y-54889515D01*
X146635081Y-54852190D01*
X146713266Y-54812353D01*
X146874418Y-54695269D01*
X147015269Y-54554418D01*
X147132353Y-54393266D01*
X147222785Y-54215783D01*
X147235140Y-54177758D01*
X147284338Y-54026343D01*
X147284338Y-54026342D01*
X147284339Y-54026339D01*
X147315500Y-53829597D01*
X147315500Y-53630403D01*
X147284339Y-53433661D01*
X147284338Y-53433657D01*
X147284338Y-53433656D01*
X147222786Y-53244219D01*
X147209514Y-53218172D01*
X147132353Y-53066734D01*
X147015269Y-52905582D01*
X146874418Y-52764731D01*
X146713266Y-52647647D01*
X146535780Y-52557213D01*
X146346342Y-52495661D01*
X146193168Y-52471401D01*
X146149597Y-52464500D01*
X145950403Y-52464500D01*
X145884822Y-52474887D01*
X145753659Y-52495661D01*
X145753656Y-52495661D01*
X145564219Y-52557213D01*
X145386733Y-52647647D01*
X145294790Y-52714447D01*
X145225582Y-52764731D01*
X145225580Y-52764733D01*
X145225579Y-52764733D01*
X145084733Y-52905579D01*
X145084733Y-52905580D01*
X145084731Y-52905582D01*
X145034447Y-52974790D01*
X144967647Y-53066733D01*
X144890485Y-53218172D01*
X144842510Y-53268968D01*
X144774689Y-53285763D01*
X144708554Y-53263225D01*
X144669515Y-53218172D01*
X144592352Y-53066733D01*
X144591679Y-53065807D01*
X144475269Y-52905582D01*
X144334418Y-52764731D01*
X144173266Y-52647647D01*
X143995780Y-52557213D01*
X143806342Y-52495661D01*
X143653168Y-52471401D01*
X143609597Y-52464500D01*
X143410403Y-52464500D01*
X143344822Y-52474887D01*
X143213659Y-52495661D01*
X143213656Y-52495661D01*
X143024219Y-52557213D01*
X142846733Y-52647647D01*
X142754790Y-52714447D01*
X142685582Y-52764731D01*
X142685580Y-52764733D01*
X142685579Y-52764733D01*
X142544733Y-52905579D01*
X142544733Y-52905580D01*
X142544731Y-52905582D01*
X142494447Y-52974790D01*
X142427647Y-53066733D01*
X142350485Y-53218172D01*
X142302510Y-53268968D01*
X142234689Y-53285763D01*
X142168554Y-53263225D01*
X142129515Y-53218172D01*
X142052352Y-53066733D01*
X142051679Y-53065807D01*
X141935269Y-52905582D01*
X141794418Y-52764731D01*
X141633266Y-52647647D01*
X141455780Y-52557213D01*
X141266342Y-52495661D01*
X141113168Y-52471401D01*
X141069597Y-52464500D01*
X140870403Y-52464500D01*
X140804822Y-52474887D01*
X140673659Y-52495661D01*
X140673656Y-52495661D01*
X140484219Y-52557213D01*
X140306733Y-52647647D01*
X140214790Y-52714447D01*
X140145582Y-52764731D01*
X140145580Y-52764733D01*
X140145579Y-52764733D01*
X140004733Y-52905579D01*
X140004733Y-52905580D01*
X140004731Y-52905582D01*
X139954447Y-52974790D01*
X139887647Y-53066733D01*
X139810485Y-53218172D01*
X139762510Y-53268968D01*
X139694689Y-53285763D01*
X139628554Y-53263225D01*
X139589515Y-53218172D01*
X139512352Y-53066733D01*
X139511679Y-53065807D01*
X139395269Y-52905582D01*
X139254418Y-52764731D01*
X139093266Y-52647647D01*
X138915780Y-52557213D01*
X138726342Y-52495661D01*
X138573168Y-52471401D01*
X138529597Y-52464500D01*
X138330403Y-52464500D01*
X138264822Y-52474887D01*
X138133659Y-52495661D01*
X138133656Y-52495661D01*
X137944219Y-52557213D01*
X137766733Y-52647647D01*
X137674790Y-52714447D01*
X137605582Y-52764731D01*
X137605580Y-52764733D01*
X137605579Y-52764733D01*
X137464733Y-52905579D01*
X137464733Y-52905580D01*
X137464731Y-52905582D01*
X137414447Y-52974790D01*
X137347647Y-53066733D01*
X137270485Y-53218172D01*
X137222510Y-53268968D01*
X137154689Y-53285763D01*
X137088554Y-53263225D01*
X137049515Y-53218172D01*
X136972352Y-53066733D01*
X136971679Y-53065807D01*
X136855269Y-52905582D01*
X136714418Y-52764731D01*
X136553266Y-52647647D01*
X136375780Y-52557213D01*
X136186342Y-52495661D01*
X136033168Y-52471401D01*
X135989597Y-52464500D01*
X135790403Y-52464500D01*
X135724822Y-52474887D01*
X135593659Y-52495661D01*
X135593656Y-52495661D01*
X135404219Y-52557213D01*
X135226733Y-52647647D01*
X135134790Y-52714447D01*
X135065582Y-52764731D01*
X135065580Y-52764733D01*
X135065579Y-52764733D01*
X134924733Y-52905579D01*
X134924733Y-52905580D01*
X134924731Y-52905582D01*
X134874447Y-52974790D01*
X134807647Y-53066733D01*
X134730485Y-53218172D01*
X134682510Y-53268968D01*
X134614689Y-53285763D01*
X134548554Y-53263225D01*
X134509515Y-53218172D01*
X134432352Y-53066733D01*
X134431679Y-53065807D01*
X134315269Y-52905582D01*
X134174418Y-52764731D01*
X134013266Y-52647647D01*
X133835780Y-52557213D01*
X133646342Y-52495661D01*
X133493168Y-52471401D01*
X133449597Y-52464500D01*
X133250403Y-52464500D01*
X133184822Y-52474887D01*
X133053659Y-52495661D01*
X133053656Y-52495661D01*
X132864219Y-52557213D01*
X132686733Y-52647647D01*
X132594790Y-52714447D01*
X132525582Y-52764731D01*
X132525580Y-52764733D01*
X132525579Y-52764733D01*
X132384733Y-52905579D01*
X132384733Y-52905580D01*
X132384731Y-52905582D01*
X132334447Y-52974790D01*
X132267647Y-53066733D01*
X132190485Y-53218172D01*
X132142510Y-53268968D01*
X132074689Y-53285763D01*
X132008554Y-53263225D01*
X131969515Y-53218172D01*
X131892352Y-53066733D01*
X131891679Y-53065807D01*
X131775269Y-52905582D01*
X131634418Y-52764731D01*
X131473266Y-52647647D01*
X131295780Y-52557213D01*
X131106342Y-52495661D01*
X130953168Y-52471401D01*
X130909597Y-52464500D01*
X130710403Y-52464500D01*
X130644822Y-52474887D01*
X130513659Y-52495661D01*
X130513656Y-52495661D01*
X130324219Y-52557213D01*
X130146733Y-52647647D01*
X130054790Y-52714447D01*
X129985582Y-52764731D01*
X129985580Y-52764733D01*
X129985579Y-52764733D01*
X129844733Y-52905579D01*
X129844733Y-52905580D01*
X129844731Y-52905582D01*
X129794447Y-52974790D01*
X129727647Y-53066733D01*
X129650485Y-53218172D01*
X129602510Y-53268968D01*
X129534689Y-53285763D01*
X129468554Y-53263225D01*
X129429515Y-53218172D01*
X129352352Y-53066733D01*
X129351679Y-53065807D01*
X129235269Y-52905582D01*
X129094418Y-52764731D01*
X128933266Y-52647647D01*
X128755780Y-52557213D01*
X128566342Y-52495661D01*
X128413168Y-52471401D01*
X128369597Y-52464500D01*
X128170403Y-52464500D01*
X128104822Y-52474887D01*
X127973659Y-52495661D01*
X127973656Y-52495661D01*
X127784219Y-52557213D01*
X127606733Y-52647647D01*
X127514790Y-52714447D01*
X127445582Y-52764731D01*
X127445580Y-52764733D01*
X127445579Y-52764733D01*
X127304733Y-52905579D01*
X127304733Y-52905580D01*
X127304731Y-52905582D01*
X127254447Y-52974790D01*
X127187647Y-53066733D01*
X127110485Y-53218172D01*
X127062510Y-53268968D01*
X126994689Y-53285763D01*
X126928554Y-53263225D01*
X126889515Y-53218172D01*
X126812352Y-53066733D01*
X126811679Y-53065807D01*
X126695269Y-52905582D01*
X126554418Y-52764731D01*
X126393266Y-52647647D01*
X126215780Y-52557213D01*
X126026342Y-52495661D01*
X125873168Y-52471401D01*
X125829597Y-52464500D01*
X125630403Y-52464500D01*
X125564822Y-52474887D01*
X125433659Y-52495661D01*
X125433656Y-52495661D01*
X125244219Y-52557213D01*
X125066733Y-52647647D01*
X124974790Y-52714447D01*
X124905582Y-52764731D01*
X124905580Y-52764733D01*
X124905579Y-52764733D01*
X124764733Y-52905579D01*
X124764733Y-52905580D01*
X124764731Y-52905582D01*
X124714447Y-52974790D01*
X124647647Y-53066733D01*
X124570485Y-53218172D01*
X124522510Y-53268968D01*
X124454689Y-53285763D01*
X124388554Y-53263225D01*
X124349515Y-53218172D01*
X124272352Y-53066733D01*
X124271679Y-53065807D01*
X124155269Y-52905582D01*
X124014418Y-52764731D01*
X123853266Y-52647647D01*
X123675780Y-52557213D01*
X123486342Y-52495661D01*
X123333168Y-52471401D01*
X123289597Y-52464500D01*
X123090403Y-52464500D01*
X123024822Y-52474887D01*
X122893659Y-52495661D01*
X122893656Y-52495661D01*
X122704219Y-52557213D01*
X122526733Y-52647647D01*
X122434790Y-52714447D01*
X122365582Y-52764731D01*
X122365580Y-52764733D01*
X122365579Y-52764733D01*
X122224733Y-52905579D01*
X122224733Y-52905580D01*
X122224731Y-52905582D01*
X122174447Y-52974790D01*
X122107647Y-53066733D01*
X122030485Y-53218172D01*
X121982510Y-53268968D01*
X121914689Y-53285763D01*
X121848554Y-53263225D01*
X121809515Y-53218172D01*
X121732352Y-53066733D01*
X121731679Y-53065807D01*
X121615269Y-52905582D01*
X121474418Y-52764731D01*
X121313266Y-52647647D01*
X121135780Y-52557213D01*
X120946342Y-52495661D01*
X120793168Y-52471401D01*
X120749597Y-52464500D01*
X120550403Y-52464500D01*
X120484822Y-52474887D01*
X120353659Y-52495661D01*
X120353656Y-52495661D01*
X120164219Y-52557213D01*
X119986733Y-52647647D01*
X119894790Y-52714447D01*
X119825582Y-52764731D01*
X119825580Y-52764733D01*
X119825579Y-52764733D01*
X119684733Y-52905579D01*
X119684733Y-52905580D01*
X119684731Y-52905582D01*
X119634447Y-52974790D01*
X119567647Y-53066733D01*
X119490485Y-53218172D01*
X119442510Y-53268968D01*
X119374689Y-53285763D01*
X119308554Y-53263225D01*
X119269515Y-53218172D01*
X119192352Y-53066733D01*
X119191679Y-53065807D01*
X119075269Y-52905582D01*
X118934418Y-52764731D01*
X118773266Y-52647647D01*
X118595780Y-52557213D01*
X118406342Y-52495661D01*
X118253168Y-52471401D01*
X118209597Y-52464500D01*
X118010403Y-52464500D01*
X117944822Y-52474887D01*
X117813659Y-52495661D01*
X117813656Y-52495661D01*
X117624219Y-52557213D01*
X117446733Y-52647647D01*
X117354790Y-52714447D01*
X117285582Y-52764731D01*
X117285580Y-52764733D01*
X117285579Y-52764733D01*
X117144733Y-52905579D01*
X117144733Y-52905580D01*
X117144731Y-52905582D01*
X117094447Y-52974790D01*
X117027647Y-53066733D01*
X116950485Y-53218172D01*
X116902510Y-53268968D01*
X116834689Y-53285763D01*
X116768554Y-53263225D01*
X116729515Y-53218172D01*
X116652352Y-53066733D01*
X116651679Y-53065807D01*
X116535269Y-52905582D01*
X116394418Y-52764731D01*
X116233266Y-52647647D01*
X116055780Y-52557213D01*
X115866342Y-52495661D01*
X115713168Y-52471401D01*
X115669597Y-52464500D01*
X115470403Y-52464500D01*
X115404822Y-52474887D01*
X115273659Y-52495661D01*
X115273656Y-52495661D01*
X115084219Y-52557213D01*
X114906733Y-52647647D01*
X114814790Y-52714447D01*
X114745582Y-52764731D01*
X114745580Y-52764733D01*
X114745579Y-52764733D01*
X114604733Y-52905579D01*
X114604733Y-52905580D01*
X114604731Y-52905582D01*
X114554447Y-52974790D01*
X114487647Y-53066733D01*
X114410485Y-53218172D01*
X114362510Y-53268968D01*
X114294689Y-53285763D01*
X114228554Y-53263225D01*
X114189515Y-53218172D01*
X114112352Y-53066733D01*
X114111679Y-53065807D01*
X113995269Y-52905582D01*
X113854418Y-52764731D01*
X113693266Y-52647647D01*
X113515780Y-52557213D01*
X113326342Y-52495661D01*
X113173168Y-52471401D01*
X113129597Y-52464500D01*
X112930403Y-52464500D01*
X112864822Y-52474887D01*
X112733659Y-52495661D01*
X112733656Y-52495661D01*
X112544219Y-52557213D01*
X112366733Y-52647647D01*
X112274790Y-52714447D01*
X112205582Y-52764731D01*
X112205580Y-52764733D01*
X112205579Y-52764733D01*
X112064733Y-52905579D01*
X112064733Y-52905580D01*
X112064731Y-52905582D01*
X112014447Y-52974790D01*
X111947647Y-53066733D01*
X111870485Y-53218172D01*
X111822510Y-53268968D01*
X111754689Y-53285763D01*
X111688554Y-53263225D01*
X111649515Y-53218172D01*
X111572352Y-53066733D01*
X111571679Y-53065807D01*
X111455269Y-52905582D01*
X111314418Y-52764731D01*
X111153266Y-52647647D01*
X110975780Y-52557213D01*
X110786342Y-52495661D01*
X110633168Y-52471401D01*
X110589597Y-52464500D01*
X110390403Y-52464500D01*
X110324822Y-52474887D01*
X110193659Y-52495661D01*
X110193656Y-52495661D01*
X110004219Y-52557213D01*
X109826733Y-52647647D01*
X109734790Y-52714447D01*
X109665582Y-52764731D01*
X109665580Y-52764733D01*
X109665579Y-52764733D01*
X109524732Y-52905580D01*
X109439318Y-53023142D01*
X109383987Y-53065807D01*
X109314374Y-53071786D01*
X109252579Y-53039180D01*
X109218222Y-52978341D01*
X109215000Y-52950256D01*
X109215000Y-52917172D01*
X109214999Y-52917155D01*
X109208598Y-52857627D01*
X109208596Y-52857620D01*
X109158354Y-52722913D01*
X109158350Y-52722906D01*
X109072190Y-52607812D01*
X109072187Y-52607809D01*
X108957093Y-52521649D01*
X108957086Y-52521645D01*
X108822379Y-52471403D01*
X108822372Y-52471401D01*
X108762844Y-52465000D01*
X108200000Y-52465000D01*
X108200000Y-53285439D01*
X108146853Y-53254755D01*
X108017143Y-53220000D01*
X107882857Y-53220000D01*
X107753147Y-53254755D01*
X107700000Y-53285439D01*
X107700000Y-52465000D01*
X107137155Y-52465000D01*
X107077627Y-52471401D01*
X107077620Y-52471403D01*
X106942913Y-52521645D01*
X106942906Y-52521649D01*
X106827812Y-52607809D01*
X106827809Y-52607812D01*
X106741649Y-52722906D01*
X106741645Y-52722913D01*
X106691403Y-52857620D01*
X106691401Y-52857627D01*
X106685000Y-52917155D01*
X92050093Y-52917155D01*
X91465900Y-52332962D01*
X91529483Y-52315925D01*
X91643497Y-52250099D01*
X91736589Y-52157007D01*
X91802415Y-52042993D01*
X91819452Y-51979410D01*
X92535899Y-52695857D01*
X92567433Y-52664322D01*
X92567434Y-52664321D01*
X92683085Y-52505143D01*
X92772408Y-52329835D01*
X92833211Y-52142705D01*
X92863990Y-51948382D01*
X92863990Y-51751617D01*
X92833211Y-51557294D01*
X92772408Y-51370164D01*
X92683085Y-51194856D01*
X92567434Y-51035678D01*
X92535899Y-51004143D01*
X91819452Y-51720589D01*
X91802415Y-51657007D01*
X91736589Y-51542993D01*
X91643497Y-51449901D01*
X91529483Y-51384075D01*
X91465900Y-51367037D01*
X92125313Y-50707625D01*
X92125312Y-50707624D01*
X92093824Y-50691580D01*
X92093819Y-50691578D01*
X91906695Y-50630778D01*
X91712372Y-50600000D01*
X90960608Y-50600000D01*
X90766284Y-50630778D01*
X90766283Y-50630778D01*
X90579163Y-50691577D01*
X90579150Y-50691582D01*
X90547665Y-50707623D01*
X91207079Y-51367037D01*
X91143497Y-51384075D01*
X91029483Y-51449901D01*
X90936391Y-51542993D01*
X90870565Y-51657007D01*
X90853527Y-51720589D01*
X90137081Y-51004143D01*
X90105546Y-51035677D01*
X90105545Y-51035678D01*
X89989894Y-51194856D01*
X89900571Y-51370164D01*
X89839768Y-51557294D01*
X89808990Y-51751617D01*
X86363990Y-51751617D01*
X86333211Y-51557294D01*
X86272408Y-51370164D01*
X86183085Y-51194856D01*
X86067434Y-51035678D01*
X86035899Y-51004143D01*
X85319452Y-51720589D01*
X85302415Y-51657007D01*
X85236589Y-51542993D01*
X85143497Y-51449901D01*
X85029483Y-51384075D01*
X84965900Y-51367037D01*
X85625313Y-50707624D01*
X85593824Y-50691580D01*
X85593819Y-50691578D01*
X85406695Y-50630778D01*
X85212372Y-50600000D01*
X84460608Y-50600000D01*
X84266284Y-50630778D01*
X84266283Y-50630778D01*
X84079163Y-50691577D01*
X84079150Y-50691582D01*
X84047665Y-50707623D01*
X84707079Y-51367037D01*
X84643497Y-51384075D01*
X84529483Y-51449901D01*
X84436391Y-51542993D01*
X84370565Y-51657007D01*
X84353527Y-51720589D01*
X83637081Y-51004143D01*
X83605546Y-51035677D01*
X83605545Y-51035678D01*
X83489894Y-51194856D01*
X83400571Y-51370164D01*
X83339768Y-51557294D01*
X83308990Y-51751617D01*
X77250500Y-51751617D01*
X77250500Y-47251577D01*
X83308490Y-47251577D01*
X83308490Y-47448422D01*
X83339280Y-47642826D01*
X83400107Y-47830029D01*
X83467028Y-47961368D01*
X83489466Y-48005405D01*
X83605162Y-48164646D01*
X83605164Y-48164648D01*
X83744344Y-48303828D01*
X83754588Y-48311271D01*
X83792182Y-48355289D01*
X83805055Y-48380553D01*
X83813147Y-48396433D01*
X83951973Y-48587510D01*
X84118980Y-48754517D01*
X84310057Y-48893343D01*
X84409481Y-48944002D01*
X84520493Y-49000566D01*
X84520495Y-49000566D01*
X84520498Y-49000568D01*
X84640902Y-49039689D01*
X84745121Y-49073553D01*
X84978393Y-49110500D01*
X84978398Y-49110500D01*
X85214587Y-49110500D01*
X85447858Y-49073553D01*
X85672482Y-49000568D01*
X85882923Y-48893343D01*
X86074000Y-48754517D01*
X86241007Y-48587510D01*
X86379833Y-48396433D01*
X86487058Y-48185992D01*
X86560043Y-47961368D01*
X86580846Y-47830025D01*
X86596990Y-47728097D01*
X86596990Y-47491902D01*
X86561227Y-47266109D01*
X86561227Y-47266108D01*
X86560043Y-47258632D01*
X86557751Y-47251577D01*
X89808490Y-47251577D01*
X89808490Y-47448422D01*
X89839280Y-47642826D01*
X89900107Y-47830029D01*
X89967028Y-47961368D01*
X89989466Y-48005405D01*
X90105162Y-48164646D01*
X90105164Y-48164648D01*
X90244344Y-48303828D01*
X90254588Y-48311271D01*
X90292182Y-48355289D01*
X90305055Y-48380553D01*
X90313147Y-48396433D01*
X90451973Y-48587510D01*
X90618980Y-48754517D01*
X90810057Y-48893343D01*
X90909481Y-48944002D01*
X91020493Y-49000566D01*
X91020495Y-49000566D01*
X91020498Y-49000568D01*
X91140902Y-49039689D01*
X91245121Y-49073553D01*
X91478393Y-49110500D01*
X91478398Y-49110500D01*
X91714587Y-49110500D01*
X91947858Y-49073553D01*
X92172482Y-49000568D01*
X92382923Y-48893343D01*
X92574000Y-48754517D01*
X92741007Y-48587510D01*
X92879833Y-48396433D01*
X92987058Y-48185992D01*
X93060043Y-47961368D01*
X93080846Y-47830025D01*
X93096990Y-47728097D01*
X93096990Y-47491902D01*
X93060043Y-47258631D01*
X92994585Y-47057174D01*
X92987058Y-47034008D01*
X92987056Y-47034005D01*
X92987056Y-47034003D01*
X92879832Y-46823566D01*
X92852853Y-46786433D01*
X92741007Y-46632490D01*
X92574000Y-46465483D01*
X92382923Y-46326657D01*
X92292288Y-46280476D01*
X92172482Y-46219431D01*
X92118570Y-46201914D01*
X92100592Y-46194467D01*
X92094019Y-46191117D01*
X92094011Y-46191114D01*
X91906818Y-46130291D01*
X91712412Y-46099500D01*
X91712407Y-46099500D01*
X90960573Y-46099500D01*
X90960568Y-46099500D01*
X90766163Y-46130290D01*
X90578960Y-46191117D01*
X90403584Y-46280476D01*
X90312731Y-46346485D01*
X90244344Y-46396172D01*
X90244342Y-46396174D01*
X90244341Y-46396174D01*
X90105164Y-46535351D01*
X90105164Y-46535352D01*
X90105162Y-46535354D01*
X90075637Y-46575992D01*
X89989466Y-46694594D01*
X89900107Y-46869970D01*
X89839280Y-47057173D01*
X89808490Y-47251577D01*
X86557751Y-47251577D01*
X86487058Y-47034008D01*
X86487056Y-47034005D01*
X86487056Y-47034003D01*
X86379832Y-46823566D01*
X86352853Y-46786433D01*
X86241007Y-46632490D01*
X86074000Y-46465483D01*
X85882923Y-46326657D01*
X85792288Y-46280476D01*
X85672482Y-46219431D01*
X85618570Y-46201914D01*
X85600592Y-46194467D01*
X85594019Y-46191117D01*
X85594011Y-46191114D01*
X85406818Y-46130291D01*
X85212412Y-46099500D01*
X85212407Y-46099500D01*
X84460573Y-46099500D01*
X84460568Y-46099500D01*
X84266163Y-46130290D01*
X84078960Y-46191117D01*
X83903584Y-46280476D01*
X83812731Y-46346485D01*
X83744344Y-46396172D01*
X83744342Y-46396174D01*
X83744341Y-46396174D01*
X83605164Y-46535351D01*
X83605164Y-46535352D01*
X83605162Y-46535354D01*
X83575637Y-46575992D01*
X83489466Y-46694594D01*
X83400107Y-46869970D01*
X83339280Y-47057173D01*
X83308490Y-47251577D01*
X77250500Y-47251577D01*
X77250500Y-45881902D01*
X100499500Y-45881902D01*
X100499500Y-46118097D01*
X100536446Y-46351368D01*
X100609433Y-46575996D01*
X100669863Y-46694595D01*
X100716657Y-46786433D01*
X100855483Y-46977510D01*
X101022490Y-47144517D01*
X101213567Y-47283343D01*
X101312991Y-47334002D01*
X101424003Y-47390566D01*
X101424005Y-47390566D01*
X101424008Y-47390568D01*
X101544412Y-47429689D01*
X101648631Y-47463553D01*
X101881903Y-47500500D01*
X101881908Y-47500500D01*
X102118097Y-47500500D01*
X102351368Y-47463553D01*
X102397936Y-47448422D01*
X102575992Y-47390568D01*
X102786433Y-47283343D01*
X102977510Y-47144517D01*
X103144517Y-46977510D01*
X103283343Y-46786433D01*
X103390568Y-46575992D01*
X103463553Y-46351368D01*
X103474781Y-46280476D01*
X103500500Y-46118097D01*
X103500500Y-45881902D01*
X150499500Y-45881902D01*
X150499500Y-46118097D01*
X150536446Y-46351368D01*
X150609433Y-46575996D01*
X150669863Y-46694595D01*
X150716657Y-46786433D01*
X150855483Y-46977510D01*
X151022490Y-47144517D01*
X151213567Y-47283343D01*
X151312991Y-47334002D01*
X151424003Y-47390566D01*
X151424005Y-47390566D01*
X151424008Y-47390568D01*
X151544412Y-47429689D01*
X151648631Y-47463553D01*
X151881903Y-47500500D01*
X151881908Y-47500500D01*
X152118097Y-47500500D01*
X152351368Y-47463553D01*
X152397936Y-47448422D01*
X152575992Y-47390568D01*
X152786433Y-47283343D01*
X152977510Y-47144517D01*
X153144517Y-46977510D01*
X153283343Y-46786433D01*
X153390568Y-46575992D01*
X153463553Y-46351368D01*
X153474781Y-46280476D01*
X153500500Y-46118097D01*
X153500500Y-45881902D01*
X153463553Y-45648631D01*
X153390566Y-45424003D01*
X153283342Y-45213566D01*
X153144517Y-45022490D01*
X152977510Y-44855483D01*
X152786433Y-44716657D01*
X152575996Y-44609433D01*
X152351368Y-44536446D01*
X152118097Y-44499500D01*
X152118092Y-44499500D01*
X151881908Y-44499500D01*
X151881903Y-44499500D01*
X151648631Y-44536446D01*
X151424003Y-44609433D01*
X151213566Y-44716657D01*
X151104550Y-44795862D01*
X151022490Y-44855483D01*
X151022488Y-44855485D01*
X151022487Y-44855485D01*
X150855485Y-45022487D01*
X150855485Y-45022488D01*
X150855483Y-45022490D01*
X150795862Y-45104550D01*
X150716657Y-45213566D01*
X150609433Y-45424003D01*
X150536446Y-45648631D01*
X150499500Y-45881902D01*
X103500500Y-45881902D01*
X103463553Y-45648631D01*
X103390566Y-45424003D01*
X103283342Y-45213566D01*
X103144517Y-45022490D01*
X102977510Y-44855483D01*
X102786433Y-44716657D01*
X102575996Y-44609433D01*
X102351368Y-44536446D01*
X102118097Y-44499500D01*
X102118092Y-44499500D01*
X101881908Y-44499500D01*
X101881903Y-44499500D01*
X101648631Y-44536446D01*
X101424003Y-44609433D01*
X101213566Y-44716657D01*
X101104550Y-44795862D01*
X101022490Y-44855483D01*
X101022488Y-44855485D01*
X101022487Y-44855485D01*
X100855485Y-45022487D01*
X100855485Y-45022488D01*
X100855483Y-45022490D01*
X100795862Y-45104550D01*
X100716657Y-45213566D01*
X100609433Y-45424003D01*
X100536446Y-45648631D01*
X100499500Y-45881902D01*
X77250500Y-45881902D01*
X77250500Y-43374500D01*
X77270185Y-43307461D01*
X77322989Y-43261706D01*
X77374500Y-43250500D01*
X176625500Y-43250500D01*
X176692539Y-43270185D01*
G37*
%TD.AperFunction*%
%TD*%
M02*
